<svg width="841" height="335" viewBox="0 0 841 335" fill="none" xmlns="http://www.w3.org/2000/svg">
<path d="M197 38C203.075 38 208 33.0751 208 27C208 20.9249 203.075 16 197 16C190.925 16 186 20.9249 186 27C186 33.0751 190.925 38 197 38Z" fill="#4744A3"/>
<path d="M612 38C618.075 38 623 33.0751 623 27C623 20.9249 618.075 16 612 16C605.925 16 601 20.9249 601 27C601 33.0751 605.925 38 612 38Z" fill="#4744A3"/>
<path d="M351 38C357.075 38 362 33.0751 362 27C362 20.9249 357.075 16 351 16C344.925 16 340 20.9249 340 27C340 33.0751 344.925 38 351 38Z" fill="#4744A3"/>
<path d="M766 38C772.075 38 777 33.0751 777 27C777 20.9249 772.075 16 766 16C759.925 16 755 20.9249 755 27C755 33.0751 759.925 38 766 38Z" fill="#4744A3"/>
<path d="M390 0H0V278H390V0Z" fill="#EBE9EF"/>
<path d="M799 0H409V278H799V0Z" fill="#EBE9EF"/>
<path d="M31 76C37.0751 76 42 71.0751 42 65C42 58.9249 37.0751 54 31 54C24.9249 54 20 58.9249 20 65C20 71.0751 24.9249 76 31 76Z" fill="#19CA94"/>
<path d="M446 76C452.075 76 457 71.0751 457 65C457 58.9249 452.075 54 446 54C439.925 54 435 58.9249 435 65C435 71.0751 439.925 76 446 76Z" fill="#19CA94"/>
<path d="M57 115C63.0751 115 68 110.075 68 104C68 97.9249 63.0751 93 57 93C50.9249 93 46 97.9249 46 104C46 110.075 50.9249 115 57 115Z" fill="#19CA94"/>
<path d="M473 115C479.075 115 484 110.075 484 104C484 97.9249 479.075 93 473 93C466.925 93 462 97.9249 462 104C462 110.075 466.925 115 473 115Z" fill="#19CA94"/>
<path d="M70 152C76.0751 152 81 147.075 81 141C81 134.925 76.0751 130 70 130C63.9249 130 59 134.925 59 141C59 147.075 63.9249 152 70 152Z" fill="#19CA94"/>
<path d="M486 152C492.075 152 497 147.075 497 141C497 134.925 492.075 130 486 130C479.925 130 475 134.925 475 141C475 147.075 479.925 152 486 152Z" fill="#19CA94"/>
<path d="M110 178C116.075 178 121 173.075 121 167C121 160.925 116.075 156 110 156C103.925 156 99 160.925 99 167C99 173.075 103.925 178 110 178Z" fill="#19CA94"/>
<path d="M525 178C531.075 178 536 173.075 536 167C536 160.925 531.075 156 525 156C518.925 156 514 160.925 514 167C514 173.075 518.925 178 525 178Z" fill="#19CA94"/>
<path d="M121 242C127.075 242 132 237.075 132 231C132 224.925 127.075 220 121 220C114.925 220 110 224.925 110 231C110 237.075 114.925 242 121 242Z" fill="#19CA94"/>
<path d="M537 242C543.075 242 548 237.075 548 231C548 224.925 543.075 220 537 220C530.925 220 526 224.925 526 231C526 237.075 530.925 242 537 242Z" fill="#19CA94"/>
<path d="M159 255C165.075 255 170 250.075 170 244C170 237.925 165.075 233 159 233C152.925 233 148 237.925 148 244C148 250.075 152.925 255 159 255Z" fill="#19CA94"/>
<path d="M573 256C579.075 256 584 251.075 584 245C584 238.925 579.075 234 573 234C566.925 234 562 238.925 562 245C562 251.075 566.925 256 573 256Z" fill="#19CA94"/>
<path d="M31 255C37.0751 255 42 250.075 42 244C42 237.925 37.0751 233 31 233C24.9249 233 20 237.925 20 244C20 250.075 24.9249 255 31 255Z" fill="#19CA94"/>
<path d="M445 256C451.075 256 456 251.075 456 245C456 238.925 451.075 234 445 234C438.925 234 434 238.925 434 245C434 251.075 438.925 256 445 256Z" fill="#19CA94"/>
<path d="M134 51C140.075 51 145 46.0751 145 40C145 33.9249 140.075 29 134 29C127.925 29 123 33.9249 123 40C123 46.0751 127.925 51 134 51Z" fill="#19CA94"/>
<path d="M550 51C556.075 51 561 46.0751 561 40C561 33.9249 556.075 29 550 29C543.925 29 539 33.9249 539 40C539 46.0751 543.925 51 550 51Z" fill="#19CA94"/>
<path d="M159 128C165.075 128 170 123.075 170 117C170 110.925 165.075 106 159 106C152.925 106 148 110.925 148 117C148 123.075 152.925 128 159 128Z" fill="#19CA94"/>
<path d="M574 128C580.075 128 585 123.075 585 117C585 110.925 580.075 106 574 106C567.925 106 563 110.925 563 117C563 123.075 567.925 128 574 128Z" fill="#19CA94"/>
<path d="M212 76C218.075 76 223 71.0751 223 65C223 58.9249 218.075 54 212 54C205.925 54 201 58.9249 201 65C201 71.0751 205.925 76 212 76Z" fill="#19CA94"/>
<path d="M627 76C633.075 76 638 71.0751 638 65C638 58.9249 633.075 54 627 54C620.925 54 616 58.9249 616 65C616 71.0751 620.925 76 627 76Z" fill="#19CA94"/>
<path d="M226 153C232.075 153 237 148.075 237 142C237 135.925 232.075 131 226 131C219.925 131 215 135.925 215 142C215 148.075 219.925 153 226 153Z" fill="#19CA94"/>
<path d="M641 153C647.075 153 652 148.075 652 142C652 135.925 647.075 131 641 131C634.925 131 630 135.925 630 142C630 148.075 634.925 153 641 153Z" fill="#19CA94"/>
<path d="M313 140C319.075 140 324 135.075 324 129C324 122.925 319.075 118 313 118C306.925 118 302 122.925 302 129C302 135.075 306.925 140 313 140Z" fill="#19CA94"/>
<path d="M729 140C735.075 140 740 135.075 740 129C740 122.925 735.075 118 729 118C722.925 118 718 122.925 718 129C718 135.075 722.925 140 729 140Z" fill="#19CA94"/>
<path d="M299 56C305.075 56 310 51.0751 310 45C310 38.9249 305.075 34 299 34C292.925 34 288 38.9249 288 45C288 51.0751 292.925 56 299 56Z" fill="#4744A3"/>
<path d="M714 56C720.075 56 725 51.0751 725 45C725 38.9249 720.075 34 714 34C707.925 34 703 38.9249 703 45C703 51.0751 707.925 56 714 56Z" fill="#4744A3"/>
<path d="M264 89C270.075 89 275 84.0751 275 78C275 71.9249 270.075 67 264 67C257.925 67 253 71.9249 253 78C253 84.0751 257.925 89 264 89Z" fill="#4744A3"/>
<path d="M679 89C685.075 89 690 84.0751 690 78C690 71.9249 685.075 67 679 67C672.925 67 668 71.9249 668 78C668 84.0751 672.925 89 679 89Z" fill="#4744A3"/>
<path d="M264 172C270.075 172 275 167.075 275 161C275 154.925 270.075 150 264 150C257.925 150 253 154.925 253 161C253 167.075 257.925 172 264 172Z" fill="#4744A3"/>
<path d="M679 172C685.075 172 690 167.075 690 161C690 154.925 685.075 150 679 150C672.925 150 668 154.925 668 161C668 167.075 672.925 172 679 172Z" fill="#4744A3"/>
<path d="M302 179C308.075 179 313 174.075 313 168C313 161.925 308.075 157 302 157C295.925 157 291 161.925 291 168C291 174.075 295.925 179 302 179Z" fill="#4744A3"/>
<path d="M717 179C723.075 179 728 174.075 728 168C728 161.925 723.075 157 717 157C710.925 157 706 161.925 706 168C706 174.075 710.925 179 717 179Z" fill="#4744A3"/>
<path d="M283 223C289.075 223 294 218.075 294 212C294 205.925 289.075 201 283 201C276.925 201 272 205.925 272 212C272 218.075 276.925 223 283 223Z" fill="#4744A3"/>
<path d="M698 223C704.075 223 709 218.075 709 212C709 205.925 704.075 201 698 201C691.925 201 687 205.925 687 212C687 218.075 691.925 223 698 223Z" fill="#4744A3"/>
<path d="M331 98C337.075 98 342 93.0751 342 87C342 80.9249 337.075 76 331 76C324.925 76 320 80.9249 320 87C320 93.0751 324.925 98 331 98Z" fill="#4744A3"/>
<path d="M746 98C752.075 98 757 93.0751 757 87C757 80.9249 752.075 76 746 76C739.925 76 735 80.9249 735 87C735 93.0751 739.925 98 746 98Z" fill="#4744A3"/>
<path d="M278 122.6L269.3 127L271 117.6L264 110.9L273.7 109.6L278 101L282.3 109.6L292 110.9L285 117.6L286.7 127L278 122.6Z" fill="#29264C" fill-opacity="0.5"/>
<path d="M693 123.6L684.3 128L686 118.6L679 111.9L688.7 110.6L693 102L697.3 110.6L707 111.9L700 118.6L701.7 128L693 123.6Z" fill="#19CA94"/>
<path d="M101 97.6L92.3 102L94 92.6L87 85.9L96.7 84.6L101 76L105.3 84.6L115 85.9L108 92.6L109.7 102L101 97.6Z" fill="#29264C" fill-opacity="0.5"/>
<path d="M516 98.6L507.3 103L509 93.6L502 86.9L511.7 85.6L516 77L520.3 85.6L530 86.9L523 93.6L524.7 103L516 98.6Z" fill="#19CA94"/>
<path d="M197 115C203.075 115 208 110.075 208 104C208 97.9249 203.075 93 197 93C190.925 93 186 97.9249 186 104C186 110.075 190.925 115 197 115Z" fill="#4744A3"/>
<path d="M612 115C618.075 115 623 110.075 623 104C623 97.9249 618.075 93 612 93C605.925 93 601 97.9249 601 104C601 110.075 605.925 115 612 115Z" fill="#4744A3"/>
<path d="M197 191C203.075 191 208 186.075 208 180C208 173.925 203.075 169 197 169C190.925 169 186 173.925 186 180C186 186.075 190.925 191 197 191Z" fill="#4744A3"/>
<path d="M612 191C618.075 191 623 186.075 623 180C623 173.925 618.075 169 612 169C605.925 169 601 173.925 601 180C601 186.075 605.925 191 612 191Z" fill="#4744A3"/>
<path d="M226 255C232.075 255 237 250.075 237 244C237 237.925 232.075 233 226 233C219.925 233 215 237.925 215 244C215 250.075 219.925 255 226 255Z" fill="#4844A3"/>
<path d="M640 256C646.075 256 651 251.075 651 245C651 238.925 646.075 234 640 234C633.925 234 629 238.925 629 245C629 251.075 633.925 256 640 256Z" fill="#4744A3"/>
<path d="M351 255C357.075 255 362 250.075 362 244C362 237.925 357.075 233 351 233C344.925 233 340 237.925 340 244C340 250.075 344.925 255 351 255Z" fill="#4844A3"/>
<path d="M766 255C772.075 255 777 250.075 777 244C777 237.925 772.075 233 766 233C759.925 233 755 237.925 755 244C755 250.075 759.925 255 766 255Z" fill="#4744A3"/>
<path d="M513 93L475 102" stroke="#19CA94" stroke-width="2"/>
<path d="M697.301 118.1L728.401 129.5" stroke="#19CA94" stroke-width="2"/>
<path d="M18 334C24.0751 334 29 329.075 29 323C29 316.925 24.0751 312 18 312C11.9249 312 7 316.925 7 323C7 329.075 11.9249 334 18 334Z" fill="#19CA94"/>
<path d="M51 334C57.0751 334 62 329.075 62 323C62 316.925 57.0751 312 51 312C44.9249 312 40 316.925 40 323C40 329.075 44.9249 334 51 334Z" fill="#4844A3"/>
<path d="M77.3216 324.54C77.3216 325.5 77.6082 326.267 78.1816 326.84C78.7549 327.4 79.5216 327.68 80.4816 327.68C81.2949 327.68 81.9616 327.467 82.4816 327.04C83.0016 326.613 83.2616 326.033 83.2616 325.3C83.2616 324.873 83.1816 324.52 83.0216 324.24C82.8616 323.96 82.6482 323.727 82.3816 323.54C82.1282 323.34 81.8416 323.187 81.5216 323.08C81.2149 322.96 80.9082 322.853 80.6016 322.76C79.9749 322.56 79.3816 322.353 78.8216 322.14C78.2616 321.927 77.7682 321.667 77.3416 321.36C76.9282 321.04 76.6016 320.647 76.3616 320.18C76.1216 319.713 76.0016 319.127 76.0016 318.42C76.0016 317.86 76.1082 317.353 76.3216 316.9C76.5482 316.447 76.8549 316.053 77.2416 315.72C77.6282 315.387 78.0882 315.133 78.6216 314.96C79.1549 314.773 79.7349 314.68 80.3616 314.68C81.0016 314.68 81.5882 314.787 82.1216 315C82.6549 315.2 83.1149 315.487 83.5016 315.86C83.8882 316.233 84.1949 316.687 84.4216 317.22C84.6482 317.74 84.7616 318.32 84.7616 318.96H82.9416C82.9282 318.16 82.6949 317.52 82.2416 317.04C81.8016 316.56 81.1882 316.32 80.4016 316.32C79.6282 316.32 79.0016 316.507 78.5216 316.88C78.0549 317.253 77.8216 317.767 77.8216 318.42C77.8216 318.807 77.8949 319.133 78.0416 319.4C78.1882 319.653 78.3816 319.873 78.6216 320.06C78.8616 320.233 79.1349 320.387 79.4416 320.52C79.7616 320.64 80.0882 320.747 80.4216 320.84C80.9549 321.013 81.4949 321.207 82.0416 321.42C82.6016 321.633 83.1082 321.9 83.5616 322.22C84.0149 322.54 84.3816 322.933 84.6616 323.4C84.9416 323.853 85.0816 324.42 85.0816 325.1C85.0816 325.78 84.9549 326.387 84.7016 326.92C84.4616 327.44 84.1282 327.88 83.7016 328.24C83.2749 328.6 82.7749 328.867 82.2016 329.04C81.6282 329.227 81.0082 329.32 80.3416 329.32C79.6616 329.32 79.0282 329.213 78.4416 329C77.8549 328.773 77.3416 328.46 76.9016 328.06C76.4749 327.647 76.1349 327.147 75.8816 326.56C75.6282 325.96 75.5016 325.287 75.5016 324.54H77.3216ZM91.6073 329.22C90.8873 329.22 90.234 329.093 89.6473 328.84C89.0607 328.587 88.5607 328.24 88.1473 327.8C87.734 327.36 87.414 326.853 87.1873 326.28C86.9607 325.707 86.8473 325.1 86.8473 324.46C86.8473 323.82 86.9607 323.213 87.1873 322.64C87.414 322.053 87.734 321.54 88.1473 321.1C88.5607 320.66 89.0607 320.313 89.6473 320.06C90.234 319.807 90.8873 319.68 91.6073 319.68C92.3407 319.68 93.0007 319.807 93.5873 320.06C94.174 320.313 94.674 320.66 95.0873 321.1C95.514 321.54 95.8407 322.053 96.0673 322.64C96.294 323.213 96.4073 323.82 96.4073 324.46C96.4073 325.1 96.294 325.707 96.0673 326.28C95.8407 326.853 95.514 327.36 95.0873 327.8C94.674 328.24 94.174 328.587 93.5873 328.84C93.0007 329.093 92.3407 329.22 91.6073 329.22ZM91.6073 327.66C92.074 327.66 92.494 327.573 92.8673 327.4C93.254 327.227 93.5807 327 93.8473 326.72C94.114 326.427 94.3207 326.087 94.4673 325.7C94.614 325.313 94.6873 324.9 94.6873 324.46C94.6873 324.02 94.614 323.607 94.4673 323.22C94.3207 322.833 94.114 322.493 93.8473 322.2C93.5807 321.907 93.254 321.673 92.8673 321.5C92.494 321.327 92.074 321.24 91.6073 321.24C91.1407 321.24 90.7207 321.327 90.3473 321.5C89.974 321.673 89.654 321.907 89.3873 322.2C89.134 322.493 88.934 322.833 88.7873 323.22C88.6407 323.607 88.5673 324.02 88.5673 324.46C88.5673 324.9 88.6407 325.313 88.7873 325.7C88.934 326.087 89.134 326.427 89.3873 326.72C89.654 327 89.974 327.227 90.3473 327.4C90.7207 327.573 91.1407 327.66 91.6073 327.66ZM106.959 319.92V329H105.219V327.38C104.952 327.94 104.539 328.387 103.979 328.72C103.432 329.053 102.779 329.22 102.019 329.22C101.379 329.22 100.825 329.12 100.359 328.92C99.9054 328.707 99.5454 328.413 99.2788 328.04C99.0254 327.693 98.8454 327.307 98.7388 326.88C98.6454 326.453 98.5988 325.92 98.5988 325.28V319.92H100.339V324.72C100.339 325.147 100.379 325.54 100.459 325.9C100.539 326.26 100.665 326.573 100.839 326.84C101.025 327.093 101.259 327.3 101.539 327.46C101.832 327.607 102.192 327.68 102.619 327.68C103.059 327.68 103.439 327.6 103.759 327.44C104.092 327.267 104.365 327.04 104.579 326.76C104.792 326.467 104.952 326.133 105.059 325.76C105.165 325.387 105.219 324.993 105.219 324.58V319.92H106.959ZM111.945 329H110.205V315H111.945V321.48C112.238 320.92 112.671 320.48 113.245 320.16C113.818 319.84 114.438 319.68 115.105 319.68C115.798 319.68 116.431 319.807 117.005 320.06C117.591 320.313 118.085 320.66 118.485 321.1C118.898 321.54 119.218 322.053 119.445 322.64C119.671 323.213 119.785 323.82 119.785 324.46C119.785 325.1 119.671 325.707 119.445 326.28C119.218 326.853 118.898 327.36 118.485 327.8C118.085 328.24 117.591 328.587 117.005 328.84C116.431 329.093 115.798 329.22 115.105 329.22C114.438 329.22 113.818 329.06 113.245 328.74C112.671 328.42 112.238 327.98 111.945 327.42V329ZM115.025 327.66C115.478 327.66 115.891 327.573 116.265 327.4C116.638 327.227 116.951 327 117.205 326.72C117.471 326.427 117.678 326.087 117.825 325.7C117.971 325.313 118.045 324.9 118.045 324.46C118.045 324.02 117.971 323.607 117.825 323.22C117.678 322.833 117.471 322.493 117.205 322.2C116.951 321.907 116.638 321.673 116.265 321.5C115.891 321.327 115.478 321.24 115.025 321.24C114.558 321.24 114.131 321.327 113.745 321.5C113.371 321.673 113.051 321.907 112.785 322.2C112.518 322.493 112.311 322.833 112.165 323.22C112.018 323.607 111.945 324.02 111.945 324.46C111.945 324.9 112.018 325.313 112.165 325.7C112.311 326.087 112.518 326.427 112.785 326.72C113.051 327 113.371 327.227 113.745 327.4C114.131 327.573 114.558 327.66 115.025 327.66ZM126.197 329.22C125.477 329.22 124.824 329.093 124.237 328.84C123.651 328.587 123.151 328.24 122.737 327.8C122.324 327.36 122.004 326.853 121.777 326.28C121.551 325.707 121.437 325.1 121.437 324.46C121.437 323.82 121.551 323.213 121.777 322.64C122.004 322.053 122.324 321.54 122.737 321.1C123.151 320.66 123.651 320.313 124.237 320.06C124.824 319.807 125.477 319.68 126.197 319.68C126.931 319.68 127.591 319.807 128.177 320.06C128.764 320.313 129.264 320.66 129.677 321.1C130.104 321.54 130.431 322.053 130.657 322.64C130.884 323.213 130.997 323.82 130.997 324.46C130.997 325.1 130.884 325.707 130.657 326.28C130.431 326.853 130.104 327.36 129.677 327.8C129.264 328.24 128.764 328.587 128.177 328.84C127.591 329.093 126.931 329.22 126.197 329.22ZM126.197 327.66C126.664 327.66 127.084 327.573 127.457 327.4C127.844 327.227 128.171 327 128.437 326.72C128.704 326.427 128.911 326.087 129.057 325.7C129.204 325.313 129.277 324.9 129.277 324.46C129.277 324.02 129.204 323.607 129.057 323.22C128.911 322.833 128.704 322.493 128.437 322.2C128.171 321.907 127.844 321.673 127.457 321.5C127.084 321.327 126.664 321.24 126.197 321.24C125.731 321.24 125.311 321.327 124.937 321.5C124.564 321.673 124.244 321.907 123.977 322.2C123.724 322.493 123.524 322.833 123.377 323.22C123.231 323.607 123.157 324.02 123.157 324.46C123.157 324.9 123.231 325.313 123.377 325.7C123.524 326.087 123.724 326.427 123.977 326.72C124.244 327 124.564 327.227 124.937 327.4C125.311 327.573 125.731 327.66 126.197 327.66ZM138.989 321.52C138.802 321.48 138.649 321.453 138.529 321.44C138.422 321.427 138.289 321.42 138.129 321.42C137.115 321.42 136.355 321.747 135.849 322.4C135.355 323.053 135.109 323.927 135.109 325.02V329H133.369V319.92H135.109V321.7C135.349 321.127 135.749 320.667 136.309 320.32C136.882 319.96 137.489 319.78 138.129 319.78C138.475 319.78 138.762 319.827 138.989 319.92V321.52ZM150.672 329C150.499 329.027 150.265 329.053 149.972 329.08C149.692 329.107 149.405 329.12 149.112 329.12C148.832 329.12 148.525 329.093 148.192 329.04C147.859 328.987 147.545 328.86 147.252 328.66C146.972 328.447 146.732 328.127 146.532 327.7C146.345 327.273 146.252 326.687 146.252 325.94V321.38H144.572V319.92H146.252V316.86H147.992V319.92H150.352V321.38H147.992V325.56C147.992 326 148.025 326.353 148.092 326.62C148.172 326.873 148.279 327.073 148.412 327.22C148.545 327.353 148.699 327.44 148.872 327.48C149.059 327.52 149.265 327.54 149.492 327.54C149.679 327.54 149.885 327.533 150.112 327.52C150.352 327.507 150.539 327.487 150.672 327.46V329ZM158.149 321.52C157.962 321.48 157.809 321.453 157.689 321.44C157.582 321.427 157.449 321.42 157.289 321.42C156.275 321.42 155.515 321.747 155.009 322.4C154.515 323.053 154.269 323.927 154.269 325.02V329H152.529V319.92H154.269V321.7C154.509 321.127 154.909 320.667 155.469 320.32C156.042 319.96 156.649 319.78 157.289 319.78C157.635 319.78 157.922 319.827 158.149 319.92V321.52ZM160.658 324.92C160.671 325.307 160.731 325.673 160.838 326.02C160.958 326.353 161.125 326.653 161.338 326.92C161.565 327.173 161.851 327.38 162.198 327.54C162.545 327.687 162.971 327.76 163.478 327.76C164.158 327.76 164.671 327.62 165.018 327.34C165.378 327.047 165.631 326.707 165.778 326.32H167.538C167.458 326.707 167.311 327.073 167.098 327.42C166.885 327.767 166.605 328.073 166.258 328.34C165.911 328.607 165.505 328.82 165.038 328.98C164.571 329.14 164.051 329.22 163.478 329.22C162.718 329.22 162.051 329.093 161.478 328.84C160.905 328.587 160.431 328.247 160.058 327.82C159.685 327.393 159.405 326.893 159.218 326.32C159.031 325.733 158.938 325.113 158.938 324.46C158.938 323.78 159.038 323.147 159.238 322.56C159.438 321.973 159.725 321.467 160.098 321.04C160.485 320.613 160.951 320.28 161.498 320.04C162.058 319.8 162.698 319.68 163.418 319.68C164.005 319.68 164.551 319.787 165.058 320C165.578 320.2 166.025 320.487 166.398 320.86C166.785 321.233 167.085 321.673 167.298 322.18C167.511 322.673 167.618 323.207 167.618 323.78C167.618 323.913 167.611 324.073 167.598 324.26C167.598 324.447 167.578 324.667 167.538 324.92H160.658ZM163.378 321.02C162.591 321.02 161.951 321.247 161.458 321.7C160.965 322.14 160.705 322.773 160.678 323.6H165.938C165.938 322.8 165.691 322.173 165.198 321.72C164.718 321.253 164.111 321.02 163.378 321.02ZM161.158 318.94L160.338 317.58L165.318 314.84L166.138 316.2L161.158 318.94ZM170.146 319.92H171.886V321.52C172.153 320.96 172.559 320.513 173.106 320.18C173.653 319.847 174.313 319.68 175.086 319.68C175.726 319.68 176.273 319.787 176.726 320C177.179 320.2 177.539 320.493 177.806 320.88C178.059 321.227 178.239 321.613 178.346 322.04C178.453 322.467 178.506 323 178.506 323.64V329H176.766V324.18C176.766 323.767 176.726 323.38 176.646 323.02C176.566 322.647 176.433 322.333 176.246 322.08C176.073 321.813 175.839 321.607 175.546 321.46C175.253 321.3 174.893 321.22 174.466 321.22C174.026 321.22 173.646 321.307 173.326 321.48C173.006 321.653 172.739 321.887 172.526 322.18C172.313 322.46 172.153 322.787 172.046 323.16C171.939 323.533 171.886 323.92 171.886 324.32V329H170.146V319.92ZM181.455 319.92H183.195V329H181.455V319.92ZM180.935 316.48C180.935 316.093 181.068 315.76 181.335 315.48C181.601 315.2 181.928 315.06 182.315 315.06C182.701 315.06 183.035 315.2 183.315 315.48C183.595 315.76 183.735 316.093 183.735 316.48C183.735 316.867 183.595 317.193 183.315 317.46C183.035 317.727 182.701 317.86 182.315 317.86C181.928 317.86 181.601 317.727 181.335 317.46C181.068 317.193 180.935 316.867 180.935 316.48ZM186.318 319.92H188.058V321.52C188.324 320.96 188.731 320.513 189.278 320.18C189.824 319.847 190.484 319.68 191.258 319.68C191.898 319.68 192.444 319.787 192.898 320C193.351 320.2 193.711 320.493 193.978 320.88C194.231 321.227 194.411 321.613 194.518 322.04C194.624 322.467 194.678 323 194.678 323.64V329H192.938V324.18C192.938 323.767 192.898 323.38 192.818 323.02C192.738 322.647 192.604 322.333 192.418 322.08C192.244 321.813 192.011 321.607 191.718 321.46C191.424 321.3 191.064 321.22 190.638 321.22C190.198 321.22 189.818 321.307 189.498 321.48C189.178 321.653 188.911 321.887 188.698 322.18C188.484 322.46 188.324 322.787 188.218 323.16C188.111 323.533 188.058 323.92 188.058 324.32V329H186.318V319.92ZM201.226 324.46L205.366 329H203.166L199.366 324.88V329H197.626V315H199.366V324.06L203.166 319.92H205.366L201.226 324.46ZM210.65 329.22C209.93 329.22 209.277 329.093 208.69 328.84C208.104 328.587 207.604 328.24 207.19 327.8C206.777 327.36 206.457 326.853 206.23 326.28C206.004 325.707 205.89 325.1 205.89 324.46C205.89 323.82 206.004 323.213 206.23 322.64C206.457 322.053 206.777 321.54 207.19 321.1C207.604 320.66 208.104 320.313 208.69 320.06C209.277 319.807 209.93 319.68 210.65 319.68C211.384 319.68 212.044 319.807 212.63 320.06C213.217 320.313 213.717 320.66 214.13 321.1C214.557 321.54 214.884 322.053 215.11 322.64C215.337 323.213 215.45 323.82 215.45 324.46C215.45 325.1 215.337 325.707 215.11 326.28C214.884 326.853 214.557 327.36 214.13 327.8C213.717 328.24 213.217 328.587 212.63 328.84C212.044 329.093 211.384 329.22 210.65 329.22ZM210.65 327.66C211.117 327.66 211.537 327.573 211.91 327.4C212.297 327.227 212.624 327 212.89 326.72C213.157 326.427 213.364 326.087 213.51 325.7C213.657 325.313 213.73 324.9 213.73 324.46C213.73 324.02 213.657 323.607 213.51 323.22C213.364 322.833 213.157 322.493 212.89 322.2C212.624 321.907 212.297 321.673 211.91 321.5C211.537 321.327 211.117 321.24 210.65 321.24C210.184 321.24 209.764 321.327 209.39 321.5C209.017 321.673 208.697 321.907 208.43 322.2C208.177 322.493 207.977 322.833 207.83 323.22C207.684 323.607 207.61 324.02 207.61 324.46C207.61 324.9 207.684 325.313 207.83 325.7C207.977 326.087 208.177 326.427 208.43 326.72C208.697 327 209.017 327.227 209.39 327.4C209.764 327.573 210.184 327.66 210.65 327.66ZM217.636 319.92L220.476 326.52L223.356 319.92H225.236L221.076 329H219.876L215.756 319.92H217.636ZM230.964 334.12C229.671 334.12 228.644 333.793 227.884 333.14C227.138 332.487 226.751 331.5 226.724 330.18H228.484C228.538 331.007 228.778 331.62 229.204 332.02C229.644 332.433 230.244 332.64 231.004 332.64C231.391 332.64 231.738 332.593 232.044 332.5C232.364 332.42 232.631 332.273 232.844 332.06C233.071 331.86 233.244 331.587 233.364 331.24C233.484 330.893 233.544 330.46 233.544 329.94V327.38C233.278 327.94 232.871 328.387 232.324 328.72C231.791 329.053 231.138 329.22 230.364 329.22C229.698 329.22 229.138 329.12 228.684 328.92C228.244 328.72 227.884 328.433 227.604 328.06C227.351 327.713 227.171 327.327 227.064 326.9C226.971 326.46 226.924 325.9 226.924 325.22V319.92H228.664V324.68C228.664 325.12 228.698 325.527 228.764 325.9C228.844 326.26 228.971 326.573 229.144 326.84C229.331 327.107 229.571 327.313 229.864 327.46C230.158 327.607 230.531 327.68 230.984 327.68C231.424 327.68 231.804 327.6 232.124 327.44C232.444 327.267 232.704 327.04 232.904 326.76C233.118 326.467 233.278 326.133 233.384 325.76C233.491 325.387 233.544 324.993 233.544 324.58V319.92H235.284V329.94C235.284 331.393 234.918 332.453 234.184 333.12C233.451 333.787 232.378 334.12 230.964 334.12ZM229.044 318.94L228.204 317.58L233.184 314.84L234.024 316.2L229.044 318.94ZM244.729 323.22C244.662 322.66 244.436 322.193 244.049 321.82C243.676 321.433 243.062 321.24 242.209 321.24C241.742 321.24 241.329 321.327 240.969 321.5C240.622 321.673 240.329 321.913 240.089 322.22C239.862 322.513 239.689 322.853 239.569 323.24C239.449 323.627 239.389 324.033 239.389 324.46C239.389 324.887 239.442 325.293 239.549 325.68C239.669 326.067 239.849 326.407 240.089 326.7C240.329 326.993 240.629 327.227 240.989 327.4C241.362 327.573 241.802 327.66 242.309 327.66C243.069 327.66 243.629 327.5 243.989 327.18C244.349 326.86 244.602 326.427 244.749 325.88H246.489C246.422 326.347 246.282 326.787 246.069 327.2C245.856 327.6 245.569 327.953 245.209 328.26C244.862 328.553 244.436 328.787 243.929 328.96C243.422 329.133 242.842 329.22 242.189 329.22C241.442 329.22 240.789 329.087 240.229 328.82C239.669 328.553 239.196 328.2 238.809 327.76C238.422 327.32 238.129 326.813 237.929 326.24C237.742 325.667 237.649 325.073 237.649 324.46C237.649 323.847 237.742 323.253 237.929 322.68C238.129 322.107 238.416 321.6 238.789 321.16C239.176 320.707 239.649 320.347 240.209 320.08C240.782 319.813 241.436 319.68 242.169 319.68C242.902 319.68 243.529 319.787 244.049 320C244.582 320.2 245.016 320.467 245.349 320.8C245.696 321.12 245.956 321.493 246.129 321.92C246.316 322.347 246.429 322.78 246.469 323.22H244.729ZM248.935 315H250.675V321.52C250.942 320.96 251.348 320.513 251.895 320.18C252.442 319.847 253.102 319.68 253.875 319.68C254.515 319.68 255.062 319.787 255.515 320C255.968 320.2 256.328 320.493 256.595 320.88C256.848 321.227 257.028 321.613 257.135 322.04C257.242 322.467 257.295 323 257.295 323.64V329H255.555V324.18C255.555 323.767 255.515 323.38 255.435 323.02C255.355 322.647 255.222 322.333 255.035 322.08C254.862 321.813 254.628 321.607 254.335 321.46C254.042 321.3 253.682 321.22 253.255 321.22C252.815 321.22 252.435 321.307 252.115 321.48C251.795 321.653 251.528 321.887 251.315 322.18C251.102 322.46 250.942 322.787 250.835 323.16C250.728 323.533 250.675 323.92 250.675 324.32V329H248.935V315ZM272.402 327.42C272.109 327.98 271.669 328.42 271.082 328.74C270.509 329.06 269.889 329.22 269.222 329.22C268.529 329.22 267.896 329.093 267.322 328.84C266.749 328.587 266.256 328.24 265.842 327.8C265.442 327.36 265.129 326.853 264.902 326.28C264.676 325.707 264.562 325.1 264.562 324.46C264.562 323.82 264.676 323.213 264.902 322.64C265.129 322.053 265.442 321.54 265.842 321.1C266.256 320.66 266.749 320.313 267.322 320.06C267.896 319.807 268.529 319.68 269.222 319.68C269.889 319.68 270.509 319.84 271.082 320.16C271.669 320.48 272.109 320.92 272.402 321.48V315H274.122V329H272.402V327.42ZM269.322 327.66C269.789 327.66 270.209 327.573 270.582 327.4C270.969 327.227 271.296 327 271.562 326.72C271.829 326.427 272.036 326.087 272.182 325.7C272.329 325.313 272.402 324.9 272.402 324.46C272.402 324.02 272.329 323.607 272.182 323.22C272.036 322.833 271.829 322.493 271.562 322.2C271.296 321.907 270.969 321.673 270.582 321.5C270.209 321.327 269.789 321.24 269.322 321.24C268.856 321.24 268.436 321.327 268.062 321.5C267.689 321.673 267.369 321.907 267.102 322.2C266.849 322.493 266.649 322.833 266.502 323.22C266.356 323.607 266.282 324.02 266.282 324.46C266.282 324.9 266.356 325.313 266.502 325.7C266.649 326.087 266.849 326.427 267.102 326.72C267.369 327 267.689 327.227 268.062 327.4C268.436 327.573 268.856 327.66 269.322 327.66ZM286.056 319.92V329H284.336V327.42C284.042 327.98 283.602 328.42 283.016 328.74C282.442 329.06 281.822 329.22 281.156 329.22C280.462 329.22 279.829 329.093 279.256 328.84C278.682 328.587 278.189 328.24 277.776 327.8C277.376 327.36 277.062 326.853 276.836 326.28C276.609 325.707 276.496 325.1 276.496 324.46C276.496 323.82 276.609 323.213 276.836 322.64C277.062 322.053 277.376 321.54 277.776 321.1C278.189 320.66 278.682 320.313 279.256 320.06C279.829 319.807 280.462 319.68 281.156 319.68C281.822 319.68 282.442 319.84 283.016 320.16C283.602 320.48 284.042 320.92 284.336 321.48V319.92H286.056ZM281.256 327.66C281.722 327.66 282.142 327.573 282.516 327.4C282.902 327.227 283.229 327 283.496 326.72C283.762 326.427 283.969 326.087 284.116 325.7C284.262 325.313 284.336 324.9 284.336 324.46C284.336 324.02 284.262 323.607 284.116 323.22C283.969 322.833 283.762 322.493 283.496 322.2C283.229 321.907 282.902 321.673 282.516 321.5C282.142 321.327 281.722 321.24 281.256 321.24C280.789 321.24 280.369 321.327 279.996 321.5C279.622 321.673 279.302 321.907 279.036 322.2C278.782 322.493 278.582 322.833 278.436 323.22C278.289 323.607 278.216 324.02 278.216 324.46C278.216 324.9 278.289 325.313 278.436 325.7C278.582 326.087 278.782 326.427 279.036 326.72C279.302 327 279.622 327.227 279.996 327.4C280.369 327.573 280.789 327.66 281.256 327.66ZM294.109 329C293.936 329.027 293.703 329.053 293.409 329.08C293.129 329.107 292.843 329.12 292.549 329.12C292.269 329.12 291.963 329.093 291.629 329.04C291.296 328.987 290.983 328.86 290.689 328.66C290.409 328.447 290.169 328.127 289.969 327.7C289.783 327.273 289.689 326.687 289.689 325.94V321.38H288.009V319.92H289.689V316.86H291.429V319.92H293.789V321.38H291.429V325.56C291.429 326 291.463 326.353 291.529 326.62C291.609 326.873 291.716 327.073 291.849 327.22C291.983 327.353 292.136 327.44 292.309 327.48C292.496 327.52 292.703 327.54 292.929 327.54C293.116 327.54 293.323 327.533 293.549 327.52C293.789 327.507 293.976 327.487 294.109 327.46V329Z" fill="#29264C"/>
<path opacity="0.5" d="M341 330.6L332.3 335L334 325.6L327 318.9L336.7 317.6L341 309L345.3 317.6L355 318.9L348 325.6L349.7 335L341 330.6Z" fill="#29264C"/>
<path opacity="0.5" d="M372.322 324.739C372.322 325.699 372.608 326.466 373.182 327.039C373.755 327.599 374.522 327.879 375.482 327.879C376.295 327.879 376.962 327.666 377.482 327.239C378.002 326.813 378.262 326.233 378.262 325.499C378.262 325.073 378.182 324.719 378.022 324.439C377.862 324.159 377.648 323.926 377.382 323.739C377.128 323.539 376.842 323.386 376.522 323.279C376.215 323.159 375.908 323.053 375.602 322.959C374.975 322.759 374.382 322.553 373.822 322.339C373.262 322.126 372.768 321.866 372.342 321.559C371.928 321.239 371.602 320.846 371.362 320.379C371.122 319.913 371.002 319.326 371.002 318.619C371.002 318.059 371.108 317.553 371.322 317.099C371.548 316.646 371.855 316.253 372.242 315.919C372.628 315.586 373.088 315.333 373.622 315.159C374.155 314.973 374.735 314.879 375.362 314.879C376.002 314.879 376.588 314.986 377.122 315.199C377.655 315.399 378.115 315.686 378.502 316.059C378.888 316.433 379.195 316.886 379.422 317.419C379.648 317.939 379.762 318.519 379.762 319.159H377.942C377.928 318.359 377.695 317.719 377.242 317.239C376.802 316.759 376.188 316.519 375.402 316.519C374.628 316.519 374.002 316.706 373.522 317.079C373.055 317.453 372.822 317.966 372.822 318.619C372.822 319.006 372.895 319.333 373.042 319.599C373.188 319.853 373.382 320.073 373.622 320.259C373.862 320.433 374.135 320.586 374.442 320.719C374.762 320.839 375.088 320.946 375.422 321.039C375.955 321.213 376.495 321.406 377.042 321.619C377.602 321.833 378.108 322.099 378.562 322.419C379.015 322.739 379.382 323.133 379.662 323.599C379.942 324.053 380.082 324.619 380.082 325.299C380.082 325.979 379.955 326.586 379.702 327.119C379.462 327.639 379.128 328.079 378.702 328.439C378.275 328.799 377.775 329.066 377.202 329.239C376.628 329.426 376.008 329.519 375.342 329.519C374.662 329.519 374.028 329.413 373.442 329.199C372.855 328.973 372.342 328.659 371.902 328.259C371.475 327.846 371.135 327.346 370.882 326.759C370.628 326.159 370.502 325.486 370.502 324.739H372.322ZM386.607 329.419C385.887 329.419 385.234 329.293 384.647 329.039C384.061 328.786 383.561 328.439 383.147 327.999C382.734 327.559 382.414 327.053 382.187 326.479C381.961 325.906 381.847 325.299 381.847 324.659C381.847 324.019 381.961 323.413 382.187 322.839C382.414 322.253 382.734 321.739 383.147 321.299C383.561 320.859 384.061 320.513 384.647 320.259C385.234 320.006 385.887 319.879 386.607 319.879C387.341 319.879 388.001 320.006 388.587 320.259C389.174 320.513 389.674 320.859 390.087 321.299C390.514 321.739 390.841 322.253 391.067 322.839C391.294 323.413 391.407 324.019 391.407 324.659C391.407 325.299 391.294 325.906 391.067 326.479C390.841 327.053 390.514 327.559 390.087 327.999C389.674 328.439 389.174 328.786 388.587 329.039C388.001 329.293 387.341 329.419 386.607 329.419ZM386.607 327.859C387.074 327.859 387.494 327.773 387.867 327.599C388.254 327.426 388.581 327.199 388.847 326.919C389.114 326.626 389.321 326.286 389.467 325.899C389.614 325.513 389.687 325.099 389.687 324.659C389.687 324.219 389.614 323.806 389.467 323.419C389.321 323.033 389.114 322.693 388.847 322.399C388.581 322.106 388.254 321.873 387.867 321.699C387.494 321.526 387.074 321.439 386.607 321.439C386.141 321.439 385.721 321.526 385.347 321.699C384.974 321.873 384.654 322.106 384.387 322.399C384.134 322.693 383.934 323.033 383.787 323.419C383.641 323.806 383.567 324.219 383.567 324.659C383.567 325.099 383.641 325.513 383.787 325.899C383.934 326.286 384.134 326.626 384.387 326.919C384.654 327.199 384.974 327.426 385.347 327.599C385.721 327.773 386.141 327.859 386.607 327.859ZM401.959 320.119V329.199H400.219V327.579C399.952 328.139 399.539 328.586 398.979 328.919C398.432 329.253 397.779 329.419 397.019 329.419C396.379 329.419 395.825 329.319 395.359 329.119C394.905 328.906 394.545 328.613 394.279 328.239C394.025 327.893 393.845 327.506 393.739 327.079C393.645 326.653 393.599 326.119 393.599 325.479V320.119H395.339V324.919C395.339 325.346 395.379 325.739 395.459 326.099C395.539 326.459 395.665 326.773 395.839 327.039C396.025 327.293 396.259 327.499 396.539 327.659C396.832 327.806 397.192 327.879 397.619 327.879C398.059 327.879 398.439 327.799 398.759 327.639C399.092 327.466 399.365 327.239 399.579 326.959C399.792 326.666 399.952 326.333 400.059 325.959C400.165 325.586 400.219 325.193 400.219 324.779V320.119H401.959ZM406.945 329.199H405.205V315.199H406.945V321.679C407.238 321.119 407.671 320.679 408.245 320.359C408.818 320.039 409.438 319.879 410.105 319.879C410.798 319.879 411.431 320.006 412.005 320.259C412.591 320.513 413.085 320.859 413.485 321.299C413.898 321.739 414.218 322.253 414.445 322.839C414.671 323.413 414.785 324.019 414.785 324.659C414.785 325.299 414.671 325.906 414.445 326.479C414.218 327.053 413.898 327.559 413.485 327.999C413.085 328.439 412.591 328.786 412.005 329.039C411.431 329.293 410.798 329.419 410.105 329.419C409.438 329.419 408.818 329.259 408.245 328.939C407.671 328.619 407.238 328.179 406.945 327.619V329.199ZM410.025 327.859C410.478 327.859 410.891 327.773 411.265 327.599C411.638 327.426 411.951 327.199 412.205 326.919C412.471 326.626 412.678 326.286 412.825 325.899C412.971 325.513 413.045 325.099 413.045 324.659C413.045 324.219 412.971 323.806 412.825 323.419C412.678 323.033 412.471 322.693 412.205 322.399C411.951 322.106 411.638 321.873 411.265 321.699C410.891 321.526 410.478 321.439 410.025 321.439C409.558 321.439 409.131 321.526 408.745 321.699C408.371 321.873 408.051 322.106 407.785 322.399C407.518 322.693 407.311 323.033 407.165 323.419C407.018 323.806 406.945 324.219 406.945 324.659C406.945 325.099 407.018 325.513 407.165 325.899C407.311 326.286 407.518 326.626 407.785 326.919C408.051 327.199 408.371 327.426 408.745 327.599C409.131 327.773 409.558 327.859 410.025 327.859ZM421.197 329.419C420.477 329.419 419.824 329.293 419.237 329.039C418.651 328.786 418.151 328.439 417.737 327.999C417.324 327.559 417.004 327.053 416.777 326.479C416.551 325.906 416.437 325.299 416.437 324.659C416.437 324.019 416.551 323.413 416.777 322.839C417.004 322.253 417.324 321.739 417.737 321.299C418.151 320.859 418.651 320.513 419.237 320.259C419.824 320.006 420.477 319.879 421.197 319.879C421.931 319.879 422.591 320.006 423.177 320.259C423.764 320.513 424.264 320.859 424.677 321.299C425.104 321.739 425.431 322.253 425.657 322.839C425.884 323.413 425.997 324.019 425.997 324.659C425.997 325.299 425.884 325.906 425.657 326.479C425.431 327.053 425.104 327.559 424.677 327.999C424.264 328.439 423.764 328.786 423.177 329.039C422.591 329.293 421.931 329.419 421.197 329.419ZM421.197 327.859C421.664 327.859 422.084 327.773 422.457 327.599C422.844 327.426 423.171 327.199 423.437 326.919C423.704 326.626 423.911 326.286 424.057 325.899C424.204 325.513 424.277 325.099 424.277 324.659C424.277 324.219 424.204 323.806 424.057 323.419C423.911 323.033 423.704 322.693 423.437 322.399C423.171 322.106 422.844 321.873 422.457 321.699C422.084 321.526 421.664 321.439 421.197 321.439C420.731 321.439 420.311 321.526 419.937 321.699C419.564 321.873 419.244 322.106 418.977 322.399C418.724 322.693 418.524 323.033 418.377 323.419C418.231 323.806 418.157 324.219 418.157 324.659C418.157 325.099 418.231 325.513 418.377 325.899C418.524 326.286 418.724 326.626 418.977 326.919C419.244 327.199 419.564 327.426 419.937 327.599C420.311 327.773 420.731 327.859 421.197 327.859ZM433.989 321.719C433.802 321.679 433.649 321.653 433.529 321.639C433.422 321.626 433.289 321.619 433.129 321.619C432.115 321.619 431.355 321.946 430.849 322.599C430.355 323.253 430.109 324.126 430.109 325.219V329.199H428.369V320.119H430.109V321.899C430.349 321.326 430.749 320.866 431.309 320.519C431.882 320.159 432.489 319.979 433.129 319.979C433.475 319.979 433.762 320.026 433.989 320.119V321.719ZM445.672 329.199C445.499 329.226 445.265 329.253 444.972 329.279C444.692 329.306 444.405 329.319 444.112 329.319C443.832 329.319 443.525 329.293 443.192 329.239C442.859 329.186 442.545 329.059 442.252 328.859C441.972 328.646 441.732 328.326 441.532 327.899C441.345 327.473 441.252 326.886 441.252 326.139V321.579H439.572V320.119H441.252V317.059H442.992V320.119H445.352V321.579H442.992V325.759C442.992 326.199 443.025 326.553 443.092 326.819C443.172 327.073 443.279 327.273 443.412 327.419C443.545 327.553 443.699 327.639 443.872 327.679C444.059 327.719 444.265 327.739 444.492 327.739C444.679 327.739 444.885 327.733 445.112 327.719C445.352 327.706 445.539 327.686 445.672 327.659V329.199ZM451.073 321.219C450.287 321.219 449.647 321.446 449.153 321.899C448.66 322.339 448.4 322.973 448.373 323.799H453.633C453.633 322.999 453.387 322.373 452.893 321.919C452.413 321.453 451.807 321.219 451.073 321.219ZM448.353 325.119C448.367 325.506 448.427 325.873 448.533 326.219C448.653 326.553 448.82 326.853 449.033 327.119C449.26 327.373 449.547 327.579 449.893 327.739C450.24 327.886 450.667 327.959 451.173 327.959C451.853 327.959 452.367 327.819 452.713 327.539C453.073 327.246 453.327 326.906 453.473 326.519H455.233C455.153 326.906 455.007 327.273 454.793 327.619C454.58 327.966 454.3 328.273 453.953 328.539C453.607 328.806 453.2 329.019 452.733 329.179C452.267 329.339 451.747 329.419 451.173 329.419C450.413 329.419 449.747 329.293 449.173 329.039C448.6 328.786 448.127 328.446 447.753 328.019C447.38 327.593 447.1 327.093 446.913 326.519C446.727 325.933 446.633 325.313 446.633 324.659C446.633 323.979 446.733 323.346 446.933 322.759C447.133 322.173 447.42 321.666 447.793 321.239C448.18 320.813 448.647 320.479 449.193 320.239C449.753 319.999 450.393 319.879 451.113 319.879C451.7 319.879 452.247 319.986 452.753 320.199C453.273 320.399 453.72 320.686 454.093 321.059C454.48 321.433 454.78 321.873 454.993 322.379C455.207 322.873 455.313 323.406 455.313 323.979C455.313 324.113 455.307 324.273 455.293 324.459C455.293 324.646 455.273 324.866 455.233 325.119H448.353ZM461.681 324.139C462.028 324.246 462.361 324.359 462.681 324.479C463.015 324.599 463.308 324.753 463.561 324.939C463.815 325.126 464.015 325.359 464.161 325.639C464.321 325.919 464.401 326.273 464.401 326.699C464.401 327.153 464.308 327.553 464.121 327.899C463.948 328.233 463.701 328.513 463.381 328.739C463.061 328.966 462.681 329.133 462.241 329.239C461.815 329.359 461.348 329.419 460.841 329.419C460.335 329.419 459.855 329.353 459.401 329.219C458.948 329.086 458.548 328.886 458.201 328.619C457.868 328.339 457.595 327.993 457.381 327.579C457.181 327.166 457.081 326.686 457.081 326.139H458.781C458.781 326.833 458.981 327.326 459.381 327.619C459.795 327.899 460.308 328.039 460.921 328.039C461.481 328.039 461.921 327.939 462.241 327.739C462.575 327.526 462.741 327.193 462.741 326.739C462.741 326.486 462.675 326.286 462.541 326.139C462.408 325.979 462.215 325.839 461.961 325.719C461.721 325.599 461.421 325.493 461.061 325.399C460.701 325.293 460.295 325.159 459.841 324.999C459.495 324.893 459.168 324.779 458.861 324.659C458.568 324.539 458.308 324.386 458.081 324.199C457.868 324.013 457.695 323.786 457.561 323.519C457.441 323.253 457.381 322.913 457.381 322.499C457.381 322.073 457.468 321.699 457.641 321.379C457.815 321.046 458.055 320.773 458.361 320.559C458.668 320.333 459.028 320.166 459.441 320.059C459.855 319.939 460.295 319.879 460.761 319.879C461.255 319.879 461.715 319.953 462.141 320.099C462.568 320.246 462.935 320.459 463.241 320.739C463.561 321.006 463.808 321.326 463.981 321.699C464.168 322.073 464.261 322.486 464.261 322.939H462.581C462.581 322.406 462.421 321.999 462.101 321.719C461.795 321.426 461.341 321.279 460.741 321.279C460.261 321.279 459.861 321.386 459.541 321.599C459.221 321.813 459.061 322.126 459.061 322.539C459.061 322.766 459.115 322.953 459.221 323.099C459.341 323.246 459.515 323.373 459.741 323.479C459.968 323.586 460.241 323.693 460.561 323.799C460.881 323.893 461.255 324.006 461.681 324.139ZM471.473 329.199C471.299 329.226 471.066 329.253 470.773 329.279C470.493 329.306 470.206 329.319 469.913 329.319C469.633 329.319 469.326 329.293 468.993 329.239C468.659 329.186 468.346 329.059 468.053 328.859C467.773 328.646 467.533 328.326 467.333 327.899C467.146 327.473 467.053 326.886 467.053 326.139V321.579H465.373V320.119H467.053V317.059H468.793V320.119H471.153V321.579H468.793V325.759C468.793 326.199 468.826 326.553 468.893 326.819C468.973 327.073 469.079 327.273 469.213 327.419C469.346 327.553 469.499 327.639 469.673 327.679C469.859 327.719 470.066 327.739 470.293 327.739C470.479 327.739 470.686 327.733 470.913 327.719C471.153 327.706 471.339 327.686 471.473 327.659V329.199ZM477.271 329.419C476.551 329.419 475.898 329.293 475.311 329.039C474.725 328.786 474.225 328.439 473.811 327.999C473.398 327.559 473.078 327.053 472.851 326.479C472.625 325.906 472.511 325.299 472.511 324.659C472.511 324.019 472.625 323.413 472.851 322.839C473.078 322.253 473.398 321.739 473.811 321.299C474.225 320.859 474.725 320.513 475.311 320.259C475.898 320.006 476.551 319.879 477.271 319.879C478.005 319.879 478.665 320.006 479.251 320.259C479.838 320.513 480.338 320.859 480.751 321.299C481.178 321.739 481.505 322.253 481.731 322.839C481.958 323.413 482.071 324.019 482.071 324.659C482.071 325.299 481.958 325.906 481.731 326.479C481.505 327.053 481.178 327.559 480.751 327.999C480.338 328.439 479.838 328.786 479.251 329.039C478.665 329.293 478.005 329.419 477.271 329.419ZM477.271 327.859C477.738 327.859 478.158 327.773 478.531 327.599C478.918 327.426 479.245 327.199 479.511 326.919C479.778 326.626 479.985 326.286 480.131 325.899C480.278 325.513 480.351 325.099 480.351 324.659C480.351 324.219 480.278 323.806 480.131 323.419C479.985 323.033 479.778 322.693 479.511 322.399C479.245 322.106 478.918 321.873 478.531 321.699C478.158 321.526 477.738 321.439 477.271 321.439C476.805 321.439 476.385 321.526 476.011 321.699C475.638 321.873 475.318 322.106 475.051 322.399C474.798 322.693 474.598 323.033 474.451 323.419C474.305 323.806 474.231 324.219 474.231 324.659C474.231 325.099 474.305 325.513 474.451 325.899C474.598 326.286 474.798 326.626 475.051 326.919C475.318 327.199 475.638 327.426 476.011 327.599C476.385 327.773 476.805 327.859 477.271 327.859ZM484.257 320.119L487.097 326.719L489.977 320.119H491.857L487.697 329.199H486.497L482.377 320.119H484.257ZM501.818 320.119V329.199H500.098V327.619C499.804 328.179 499.364 328.619 498.778 328.939C498.204 329.259 497.584 329.419 496.918 329.419C496.224 329.419 495.591 329.293 495.018 329.039C494.444 328.786 493.951 328.439 493.538 327.999C493.138 327.559 492.824 327.053 492.598 326.479C492.371 325.906 492.258 325.299 492.258 324.659C492.258 324.019 492.371 323.413 492.598 322.839C492.824 322.253 493.138 321.739 493.538 321.299C493.951 320.859 494.444 320.513 495.018 320.259C495.591 320.006 496.224 319.879 496.918 319.879C497.584 319.879 498.204 320.039 498.778 320.359C499.364 320.679 499.804 321.119 500.098 321.679V320.119H501.818ZM497.018 327.859C497.484 327.859 497.904 327.773 498.278 327.599C498.664 327.426 498.991 327.199 499.258 326.919C499.524 326.626 499.731 326.286 499.878 325.899C500.024 325.513 500.098 325.099 500.098 324.659C500.098 324.219 500.024 323.806 499.878 323.419C499.731 323.033 499.524 322.693 499.258 322.399C498.991 322.106 498.664 321.873 498.278 321.699C497.904 321.526 497.484 321.439 497.018 321.439C496.551 321.439 496.131 321.526 495.758 321.699C495.384 321.873 495.064 322.106 494.798 322.399C494.544 322.693 494.344 323.033 494.198 323.419C494.051 323.806 493.978 324.219 493.978 324.659C493.978 325.099 494.051 325.513 494.198 325.899C494.344 326.286 494.544 326.626 494.798 326.919C495.064 327.199 495.384 327.426 495.758 327.599C496.131 327.773 496.551 327.859 497.018 327.859ZM511.311 323.419C511.244 322.859 511.018 322.393 510.631 322.019C510.258 321.633 509.644 321.439 508.791 321.439C508.324 321.439 507.911 321.526 507.551 321.699C507.204 321.873 506.911 322.113 506.671 322.419C506.444 322.713 506.271 323.053 506.151 323.439C506.031 323.826 505.971 324.233 505.971 324.659C505.971 325.086 506.024 325.493 506.131 325.879C506.251 326.266 506.431 326.606 506.671 326.899C506.911 327.193 507.211 327.426 507.571 327.599C507.944 327.773 508.384 327.859 508.891 327.859C509.651 327.859 510.211 327.699 510.571 327.379C510.931 327.059 511.184 326.626 511.331 326.079H513.071C513.004 326.546 512.864 326.986 512.651 327.399C512.438 327.799 512.151 328.153 511.791 328.459C511.444 328.753 511.018 328.986 510.511 329.159C510.004 329.333 509.424 329.419 508.771 329.419C508.024 329.419 507.371 329.286 506.811 329.019C506.251 328.753 505.778 328.399 505.391 327.959C505.004 327.519 504.711 327.013 504.511 326.439C504.324 325.866 504.231 325.273 504.231 324.659C504.231 324.046 504.324 323.453 504.511 322.879C504.711 322.306 504.998 321.799 505.371 321.359C505.758 320.906 506.231 320.546 506.791 320.279C507.364 320.013 508.018 319.879 508.751 319.879C509.484 319.879 510.111 319.986 510.631 320.199C511.164 320.399 511.598 320.666 511.931 320.999C512.278 321.319 512.538 321.693 512.711 322.119C512.898 322.546 513.011 322.979 513.051 323.419H511.311ZM515.517 320.119H517.257V329.199H515.517V320.119ZM514.317 318.839L513.477 317.479L518.477 314.739L519.297 316.099L514.317 318.839ZM526.76 323.419C526.694 322.859 526.467 322.393 526.08 322.019C525.707 321.633 525.094 321.439 524.24 321.439C523.774 321.439 523.36 321.526 523 321.699C522.654 321.873 522.36 322.113 522.12 322.419C521.894 322.713 521.72 323.053 521.6 323.439C521.48 323.826 521.42 324.233 521.42 324.659C521.42 325.086 521.474 325.493 521.58 325.879C521.7 326.266 521.88 326.606 522.12 326.899C522.36 327.193 522.66 327.426 523.02 327.599C523.394 327.773 523.834 327.859 524.34 327.859C525.1 327.859 525.66 327.699 526.02 327.379C526.38 327.059 526.634 326.626 526.78 326.079H528.52C528.454 326.546 528.314 326.986 528.1 327.399C527.887 327.799 527.6 328.153 527.24 328.459C526.894 328.753 526.467 328.986 525.96 329.159C525.454 329.333 524.874 329.419 524.22 329.419C523.474 329.419 522.82 329.286 522.26 329.019C521.7 328.753 521.227 328.399 520.84 327.959C520.454 327.519 520.16 327.013 519.96 326.439C519.774 325.866 519.68 325.273 519.68 324.659C519.68 324.046 519.774 323.453 519.96 322.879C520.16 322.306 520.447 321.799 520.82 321.359C521.207 320.906 521.68 320.546 522.24 320.279C522.814 320.013 523.467 319.879 524.2 319.879C524.934 319.879 525.56 319.986 526.08 320.199C526.614 320.399 527.047 320.666 527.38 320.999C527.727 321.319 527.987 321.693 528.16 322.119C528.347 322.546 528.46 322.979 528.5 323.419H526.76ZM530.966 315.199H532.706V321.719C532.973 321.159 533.38 320.713 533.926 320.379C534.473 320.046 535.133 319.879 535.906 319.879C536.546 319.879 537.093 319.986 537.546 320.199C538 320.399 538.36 320.693 538.626 321.079C538.88 321.426 539.06 321.813 539.166 322.239C539.273 322.666 539.326 323.199 539.326 323.839V329.199H537.586V324.379C537.586 323.966 537.546 323.579 537.466 323.219C537.386 322.846 537.253 322.533 537.066 322.279C536.893 322.013 536.66 321.806 536.366 321.659C536.073 321.499 535.713 321.419 535.286 321.419C534.846 321.419 534.466 321.506 534.146 321.679C533.826 321.853 533.56 322.086 533.346 322.379C533.133 322.659 532.973 322.986 532.866 323.359C532.76 323.733 532.706 324.119 532.706 324.519V329.199H530.966V315.199ZM554.433 327.619C554.14 328.179 553.7 328.619 553.113 328.939C552.54 329.259 551.92 329.419 551.253 329.419C550.56 329.419 549.927 329.293 549.353 329.039C548.78 328.786 548.287 328.439 547.873 327.999C547.473 327.559 547.16 327.053 546.933 326.479C546.707 325.906 546.593 325.299 546.593 324.659C546.593 324.019 546.707 323.413 546.933 322.839C547.16 322.253 547.473 321.739 547.873 321.299C548.287 320.859 548.78 320.513 549.353 320.259C549.927 320.006 550.56 319.879 551.253 319.879C551.92 319.879 552.54 320.039 553.113 320.359C553.7 320.679 554.14 321.119 554.433 321.679V315.199H556.153V329.199H554.433V327.619ZM551.353 327.859C551.82 327.859 552.24 327.773 552.613 327.599C553 327.426 553.327 327.199 553.593 326.919C553.86 326.626 554.067 326.286 554.213 325.899C554.36 325.513 554.433 325.099 554.433 324.659C554.433 324.219 554.36 323.806 554.213 323.419C554.067 323.033 553.86 322.693 553.593 322.399C553.327 322.106 553 321.873 552.613 321.699C552.24 321.526 551.82 321.439 551.353 321.439C550.887 321.439 550.467 321.526 550.093 321.699C549.72 321.873 549.4 322.106 549.133 322.399C548.88 322.693 548.68 323.033 548.533 323.419C548.387 323.806 548.313 324.219 548.313 324.659C548.313 325.099 548.387 325.513 548.533 325.899C548.68 326.286 548.88 326.626 549.133 326.919C549.4 327.199 549.72 327.426 550.093 327.599C550.467 327.773 550.887 327.859 551.353 327.859ZM568.087 320.119V329.199H566.367V327.619C566.074 328.179 565.634 328.619 565.047 328.939C564.474 329.259 563.854 329.419 563.187 329.419C562.494 329.419 561.86 329.293 561.287 329.039C560.714 328.786 560.22 328.439 559.807 327.999C559.407 327.559 559.094 327.053 558.867 326.479C558.64 325.906 558.527 325.299 558.527 324.659C558.527 324.019 558.64 323.413 558.867 322.839C559.094 322.253 559.407 321.739 559.807 321.299C560.22 320.859 560.714 320.513 561.287 320.259C561.86 320.006 562.494 319.879 563.187 319.879C563.854 319.879 564.474 320.039 565.047 320.359C565.634 320.679 566.074 321.119 566.367 321.679V320.119H568.087ZM563.287 327.859C563.754 327.859 564.174 327.773 564.547 327.599C564.934 327.426 565.26 327.199 565.527 326.919C565.794 326.626 566 326.286 566.147 325.899C566.294 325.513 566.367 325.099 566.367 324.659C566.367 324.219 566.294 323.806 566.147 323.419C566 323.033 565.794 322.693 565.527 322.399C565.26 322.106 564.934 321.873 564.547 321.699C564.174 321.526 563.754 321.439 563.287 321.439C562.82 321.439 562.4 321.526 562.027 321.699C561.654 321.873 561.334 322.106 561.067 322.399C560.814 322.693 560.614 323.033 560.467 323.419C560.32 323.806 560.247 324.219 560.247 324.659C560.247 325.099 560.32 325.513 560.467 325.899C560.614 326.286 560.814 326.626 561.067 326.919C561.334 327.199 561.654 327.426 562.027 327.599C562.4 327.773 562.82 327.859 563.287 327.859ZM576.141 329.199C575.967 329.226 575.734 329.253 575.441 329.279C575.161 329.306 574.874 329.319 574.581 329.319C574.301 329.319 573.994 329.293 573.661 329.239C573.327 329.186 573.014 329.059 572.721 328.859C572.441 328.646 572.201 328.326 572.001 327.899C571.814 327.473 571.721 326.886 571.721 326.139V321.579H570.041V320.119H571.721V317.059H573.461V320.119H575.821V321.579H573.461V325.759C573.461 326.199 573.494 326.553 573.561 326.819C573.641 327.073 573.747 327.273 573.881 327.419C574.014 327.553 574.167 327.639 574.341 327.679C574.527 327.719 574.734 327.739 574.961 327.739C575.147 327.739 575.354 327.733 575.581 327.719C575.821 327.706 576.007 327.686 576.141 327.659V329.199Z" fill="#29264C"/>
<path opacity="0.5" d="M631 323H649.3L644.2 318L653.8 316.6L658.1 308L662.4 316.6L672 318L665.1 324.7L666.7 334.2L658.1 329.7L649.5 334.2L651.1 325H631.1C630.6 330.6 625.8 335 620.1 335C614 335 609 330.1 609 324C609 317.9 614 313 620.1 313C625.8 313 630.5 317.4 631 323Z" fill="#29264C"/>
<path opacity="0.5" d="M697.903 325.082V314.262H699.723V328.262H697.703L691.403 317.442V328.262H689.583V314.262H691.603L697.903 325.082ZM706.585 320.282C705.798 320.282 705.158 320.508 704.665 320.962C704.172 321.402 703.912 322.035 703.885 322.862H709.145C709.145 322.062 708.898 321.435 708.405 320.982C707.925 320.515 707.318 320.282 706.585 320.282ZM703.865 324.182C703.878 324.568 703.938 324.935 704.045 325.282C704.165 325.615 704.332 325.915 704.545 326.182C704.772 326.435 705.058 326.642 705.405 326.802C705.752 326.948 706.178 327.022 706.685 327.022C707.365 327.022 707.878 326.882 708.225 326.602C708.585 326.308 708.838 325.968 708.985 325.582H710.745C710.665 325.968 710.518 326.335 710.305 326.682C710.092 327.028 709.812 327.335 709.465 327.602C709.118 327.868 708.712 328.082 708.245 328.242C707.778 328.402 707.258 328.482 706.685 328.482C705.925 328.482 705.258 328.355 704.685 328.102C704.112 327.848 703.638 327.508 703.265 327.082C702.892 326.655 702.612 326.155 702.425 325.582C702.238 324.995 702.145 324.375 702.145 323.722C702.145 323.042 702.245 322.408 702.445 321.822C702.645 321.235 702.932 320.728 703.305 320.302C703.692 319.875 704.158 319.542 704.705 319.302C705.265 319.062 705.905 318.942 706.625 318.942C707.212 318.942 707.758 319.048 708.265 319.262C708.785 319.462 709.232 319.748 709.605 320.122C709.992 320.495 710.292 320.935 710.505 321.442C710.718 321.935 710.825 322.468 710.825 323.042C710.825 323.175 710.818 323.335 710.805 323.522C710.805 323.708 710.785 323.928 710.745 324.182H703.865ZM715.073 330.702C715.073 331.195 715.013 331.608 714.893 331.942C714.773 332.288 714.613 332.562 714.413 332.762C714.227 332.975 714.007 333.128 713.753 333.222C713.5 333.315 713.233 333.362 712.953 333.362C712.647 333.362 712.367 333.335 712.113 333.282C711.873 333.242 711.68 333.188 711.533 333.122V331.582C711.747 331.635 711.907 331.668 712.013 331.682C712.133 331.695 712.267 331.702 712.413 331.702C712.72 331.702 712.947 331.588 713.093 331.362C713.253 331.148 713.333 330.842 713.333 330.442V319.182H715.073V330.702ZM712.813 315.742C712.813 315.355 712.947 315.022 713.213 314.742C713.48 314.462 713.807 314.322 714.193 314.322C714.593 314.322 714.927 314.462 715.193 314.742C715.473 315.022 715.613 315.355 715.613 315.742C715.613 316.128 715.473 316.455 715.193 316.722C714.927 316.988 714.593 317.122 714.193 317.122C713.807 317.122 713.48 316.988 713.213 316.722C712.947 316.455 712.813 316.128 712.813 315.742ZM719.937 328.262H718.197V314.262H719.937V320.742C720.23 320.182 720.663 319.742 721.237 319.422C721.81 319.102 722.43 318.942 723.097 318.942C723.79 318.942 724.423 319.068 724.997 319.322C725.583 319.575 726.077 319.922 726.477 320.362C726.89 320.802 727.21 321.315 727.437 321.902C727.663 322.475 727.777 323.082 727.777 323.722C727.777 324.362 727.663 324.968 727.437 325.542C727.21 326.115 726.89 326.622 726.477 327.062C726.077 327.502 725.583 327.848 724.997 328.102C724.423 328.355 723.79 328.482 723.097 328.482C722.43 328.482 721.81 328.322 721.237 328.002C720.663 327.682 720.23 327.242 719.937 326.682V328.262ZM723.017 326.922C723.47 326.922 723.883 326.835 724.257 326.662C724.63 326.488 724.943 326.262 725.197 325.982C725.463 325.688 725.67 325.348 725.817 324.962C725.963 324.575 726.037 324.162 726.037 323.722C726.037 323.282 725.963 322.868 725.817 322.482C725.67 322.095 725.463 321.755 725.197 321.462C724.943 321.168 724.63 320.935 724.257 320.762C723.883 320.588 723.47 320.502 723.017 320.502C722.55 320.502 722.123 320.588 721.737 320.762C721.363 320.935 721.043 321.168 720.777 321.462C720.51 321.755 720.303 322.095 720.157 322.482C720.01 322.868 719.937 323.282 719.937 323.722C719.937 324.162 720.01 324.575 720.157 324.962C720.303 325.348 720.51 325.688 720.777 325.982C721.043 326.262 721.363 326.488 721.737 326.662C722.123 326.835 722.55 326.922 723.017 326.922ZM730.169 314.262H731.909V328.262H730.169V314.262ZM735.033 319.182H736.773V328.262H735.033V319.182ZM734.513 315.742C734.513 315.355 734.646 315.022 734.913 314.742C735.179 314.462 735.506 314.322 735.893 314.322C736.279 314.322 736.613 314.462 736.893 314.742C737.173 315.022 737.313 315.355 737.313 315.742C737.313 316.128 737.173 316.455 736.893 316.722C736.613 316.988 736.279 317.122 735.893 317.122C735.506 317.122 735.179 316.988 734.913 316.722C734.646 316.455 734.513 316.128 734.513 315.742ZM739.336 314.802L740.356 313.682L742.836 315.962L745.336 313.662L746.336 314.802L742.816 317.862L739.336 314.802ZM746.616 319.182L741.756 326.702H746.636V328.262H738.816L743.676 320.722H738.976V319.182H746.616ZM752.408 323.202C752.754 323.308 753.088 323.422 753.408 323.542C753.741 323.662 754.034 323.815 754.288 324.002C754.541 324.188 754.741 324.422 754.888 324.702C755.048 324.982 755.128 325.335 755.128 325.762C755.128 326.215 755.034 326.615 754.848 326.962C754.674 327.295 754.428 327.575 754.108 327.802C753.788 328.028 753.408 328.195 752.968 328.302C752.541 328.422 752.074 328.482 751.568 328.482C751.061 328.482 750.581 328.415 750.128 328.282C749.674 328.148 749.274 327.948 748.928 327.682C748.594 327.402 748.321 327.055 748.108 326.642C747.908 326.228 747.808 325.748 747.808 325.202H749.508C749.508 325.895 749.708 326.388 750.108 326.682C750.521 326.962 751.034 327.102 751.648 327.102C752.208 327.102 752.648 327.002 752.968 326.802C753.301 326.588 753.468 326.255 753.468 325.802C753.468 325.548 753.401 325.348 753.268 325.202C753.134 325.042 752.941 324.902 752.688 324.782C752.448 324.662 752.148 324.555 751.788 324.462C751.428 324.355 751.021 324.222 750.568 324.062C750.221 323.955 749.894 323.842 749.588 323.722C749.294 323.602 749.034 323.448 748.808 323.262C748.594 323.075 748.421 322.848 748.288 322.582C748.168 322.315 748.108 321.975 748.108 321.562C748.108 321.135 748.194 320.762 748.368 320.442C748.541 320.108 748.781 319.835 749.088 319.622C749.394 319.395 749.754 319.228 750.168 319.122C750.581 319.002 751.021 318.942 751.488 318.942C751.981 318.942 752.441 319.015 752.868 319.162C753.294 319.308 753.661 319.522 753.968 319.802C754.288 320.068 754.534 320.388 754.708 320.762C754.894 321.135 754.988 321.548 754.988 322.002H753.308C753.308 321.468 753.148 321.062 752.828 320.782C752.521 320.488 752.068 320.342 751.468 320.342C750.988 320.342 750.588 320.448 750.268 320.662C749.948 320.875 749.788 321.188 749.788 321.602C749.788 321.828 749.841 322.015 749.948 322.162C750.068 322.308 750.241 322.435 750.468 322.542C750.694 322.648 750.968 322.755 751.288 322.862C751.608 322.955 751.981 323.068 752.408 323.202ZM748.028 314.722L749.048 313.622L751.528 315.882L754.028 313.602L755.028 314.722L751.508 317.782L748.028 314.722ZM757.611 319.182H759.351V328.262H757.611V319.182ZM756.411 317.902L755.571 316.542L760.571 313.802L761.391 315.162L756.411 317.902ZM771.373 323.202C771.719 323.308 772.053 323.422 772.373 323.542C772.706 323.662 772.999 323.815 773.253 324.002C773.506 324.188 773.706 324.422 773.853 324.702C774.013 324.982 774.093 325.335 774.093 325.762C774.093 326.215 773.999 326.615 773.813 326.962C773.639 327.295 773.393 327.575 773.073 327.802C772.753 328.028 772.373 328.195 771.933 328.302C771.506 328.422 771.039 328.482 770.533 328.482C770.026 328.482 769.546 328.415 769.093 328.282C768.639 328.148 768.239 327.948 767.893 327.682C767.559 327.402 767.286 327.055 767.073 326.642C766.873 326.228 766.773 325.748 766.773 325.202H768.473C768.473 325.895 768.673 326.388 769.073 326.682C769.486 326.962 769.999 327.102 770.613 327.102C771.173 327.102 771.613 327.002 771.933 326.802C772.266 326.588 772.433 326.255 772.433 325.802C772.433 325.548 772.366 325.348 772.233 325.202C772.099 325.042 771.906 324.902 771.653 324.782C771.413 324.662 771.113 324.555 770.753 324.462C770.393 324.355 769.986 324.222 769.533 324.062C769.186 323.955 768.859 323.842 768.553 323.722C768.259 323.602 767.999 323.448 767.773 323.262C767.559 323.075 767.386 322.848 767.253 322.582C767.133 322.315 767.073 321.975 767.073 321.562C767.073 321.135 767.159 320.762 767.333 320.442C767.506 320.108 767.746 319.835 768.053 319.622C768.359 319.395 768.719 319.228 769.133 319.122C769.546 319.002 769.986 318.942 770.453 318.942C770.946 318.942 771.406 319.015 771.833 319.162C772.259 319.308 772.626 319.522 772.933 319.802C773.253 320.068 773.499 320.388 773.673 320.762C773.859 321.135 773.953 321.548 773.953 322.002H772.273C772.273 321.468 772.113 321.062 771.793 320.782C771.486 320.488 771.033 320.342 770.433 320.342C769.953 320.342 769.553 320.448 769.233 320.662C768.913 320.875 768.753 321.188 768.753 321.602C768.753 321.828 768.806 322.015 768.913 322.162C769.033 322.308 769.206 322.435 769.433 322.542C769.659 322.648 769.933 322.755 770.253 322.862C770.573 322.955 770.946 323.068 771.373 323.202ZM780.596 328.482C779.876 328.482 779.222 328.355 778.636 328.102C778.049 327.848 777.549 327.502 777.136 327.062C776.722 326.622 776.402 326.115 776.176 325.542C775.949 324.968 775.836 324.362 775.836 323.722C775.836 323.082 775.949 322.475 776.176 321.902C776.402 321.315 776.722 320.802 777.136 320.362C777.549 319.922 778.049 319.575 778.636 319.322C779.222 319.068 779.876 318.942 780.596 318.942C781.329 318.942 781.989 319.068 782.576 319.322C783.162 319.575 783.662 319.922 784.076 320.362C784.502 320.802 784.829 321.315 785.056 321.902C785.282 322.475 785.396 323.082 785.396 323.722C785.396 324.362 785.282 324.968 785.056 325.542C784.829 326.115 784.502 326.622 784.076 327.062C783.662 327.502 783.162 327.848 782.576 328.102C781.989 328.355 781.329 328.482 780.596 328.482ZM780.596 326.922C781.062 326.922 781.482 326.835 781.856 326.662C782.242 326.488 782.569 326.262 782.836 325.982C783.102 325.688 783.309 325.348 783.456 324.962C783.602 324.575 783.676 324.162 783.676 323.722C783.676 323.282 783.602 322.868 783.456 322.482C783.309 322.095 783.102 321.755 782.836 321.462C782.569 321.168 782.242 320.935 781.856 320.762C781.482 320.588 781.062 320.502 780.596 320.502C780.129 320.502 779.709 320.588 779.336 320.762C778.962 320.935 778.642 321.168 778.376 321.462C778.122 321.755 777.922 322.095 777.776 322.482C777.629 322.868 777.556 323.282 777.556 323.722C777.556 324.162 777.629 324.575 777.776 324.962C777.922 325.348 778.122 325.688 778.376 325.982C778.642 326.262 778.962 326.488 779.336 326.662C779.709 326.835 780.129 326.922 780.596 326.922ZM795.947 319.182V328.262H794.207V326.642C793.94 327.202 793.527 327.648 792.967 327.982C792.42 328.315 791.767 328.482 791.007 328.482C790.367 328.482 789.814 328.382 789.347 328.182C788.894 327.968 788.534 327.675 788.267 327.302C788.014 326.955 787.834 326.568 787.727 326.142C787.634 325.715 787.587 325.182 787.587 324.542V319.182H789.327V323.982C789.327 324.408 789.367 324.802 789.447 325.162C789.527 325.522 789.654 325.835 789.827 326.102C790.014 326.355 790.247 326.562 790.527 326.722C790.82 326.868 791.18 326.942 791.607 326.942C792.047 326.942 792.427 326.862 792.747 326.702C793.08 326.528 793.354 326.302 793.567 326.022C793.78 325.728 793.94 325.395 794.047 325.022C794.154 324.648 794.207 324.255 794.207 323.842V319.182H795.947ZM802.916 323.202C803.262 323.308 803.596 323.422 803.916 323.542C804.249 323.662 804.542 323.815 804.796 324.002C805.049 324.188 805.249 324.422 805.396 324.702C805.556 324.982 805.636 325.335 805.636 325.762C805.636 326.215 805.542 326.615 805.356 326.962C805.182 327.295 804.936 327.575 804.616 327.802C804.296 328.028 803.916 328.195 803.476 328.302C803.049 328.422 802.582 328.482 802.076 328.482C801.569 328.482 801.089 328.415 800.636 328.282C800.182 328.148 799.782 327.948 799.436 327.682C799.102 327.402 798.829 327.055 798.616 326.642C798.416 326.228 798.316 325.748 798.316 325.202H800.016C800.016 325.895 800.216 326.388 800.616 326.682C801.029 326.962 801.542 327.102 802.156 327.102C802.716 327.102 803.156 327.002 803.476 326.802C803.809 326.588 803.976 326.255 803.976 325.802C803.976 325.548 803.909 325.348 803.776 325.202C803.642 325.042 803.449 324.902 803.196 324.782C802.956 324.662 802.656 324.555 802.296 324.462C801.936 324.355 801.529 324.222 801.076 324.062C800.729 323.955 800.402 323.842 800.096 323.722C799.802 323.602 799.542 323.448 799.316 323.262C799.102 323.075 798.929 322.848 798.796 322.582C798.676 322.315 798.616 321.975 798.616 321.562C798.616 321.135 798.702 320.762 798.876 320.442C799.049 320.108 799.289 319.835 799.596 319.622C799.902 319.395 800.262 319.228 800.676 319.122C801.089 319.002 801.529 318.942 801.996 318.942C802.489 318.942 802.949 319.015 803.376 319.162C803.802 319.308 804.169 319.522 804.476 319.802C804.796 320.068 805.042 320.388 805.216 320.762C805.402 321.135 805.496 321.548 805.496 322.002H803.816C803.816 321.468 803.656 321.062 803.336 320.782C803.029 320.488 802.576 320.342 801.976 320.342C801.496 320.342 801.096 320.448 800.776 320.662C800.456 320.875 800.296 321.188 800.296 321.602C800.296 321.828 800.349 322.015 800.456 322.162C800.576 322.308 800.749 322.435 800.976 322.542C801.202 322.648 801.476 322.755 801.796 322.862C802.116 322.955 802.489 323.068 802.916 323.202ZM811.859 320.282C811.072 320.282 810.432 320.508 809.939 320.962C809.445 321.402 809.185 322.035 809.159 322.862H814.419C814.419 322.062 814.172 321.435 813.679 320.982C813.199 320.515 812.592 320.282 811.859 320.282ZM809.139 324.182C809.152 324.568 809.212 324.935 809.319 325.282C809.439 325.615 809.605 325.915 809.819 326.182C810.045 326.435 810.332 326.642 810.679 326.802C811.025 326.948 811.452 327.022 811.959 327.022C812.639 327.022 813.152 326.882 813.499 326.602C813.859 326.308 814.112 325.968 814.259 325.582H816.019C815.939 325.968 815.792 326.335 815.579 326.682C815.365 327.028 815.085 327.335 814.739 327.602C814.392 327.868 813.985 328.082 813.519 328.242C813.052 328.402 812.532 328.482 811.959 328.482C811.199 328.482 810.532 328.355 809.959 328.102C809.385 327.848 808.912 327.508 808.539 327.082C808.165 326.655 807.885 326.155 807.699 325.582C807.512 324.995 807.419 324.375 807.419 323.722C807.419 323.042 807.519 322.408 807.719 321.822C807.919 321.235 808.205 320.728 808.579 320.302C808.965 319.875 809.432 319.542 809.979 319.302C810.539 319.062 811.179 318.942 811.899 318.942C812.485 318.942 813.032 319.048 813.539 319.262C814.059 319.462 814.505 319.748 814.879 320.122C815.265 320.495 815.565 320.935 815.779 321.442C815.992 321.935 816.099 322.468 816.099 323.042C816.099 323.175 816.092 323.335 816.079 323.522C816.079 323.708 816.059 323.928 816.019 324.182H809.139ZM825.726 326.682C825.433 327.242 824.993 327.682 824.406 328.002C823.833 328.322 823.213 328.482 822.546 328.482C821.853 328.482 821.22 328.355 820.646 328.102C820.073 327.848 819.58 327.502 819.166 327.062C818.766 326.622 818.453 326.115 818.226 325.542C818 324.968 817.886 324.362 817.886 323.722C817.886 323.082 818 322.475 818.226 321.902C818.453 321.315 818.766 320.802 819.166 320.362C819.58 319.922 820.073 319.575 820.646 319.322C821.22 319.068 821.853 318.942 822.546 318.942C823.213 318.942 823.833 319.102 824.406 319.422C824.993 319.742 825.433 320.182 825.726 320.742V314.262H827.446V328.262H825.726V326.682ZM822.646 326.922C823.113 326.922 823.533 326.835 823.906 326.662C824.293 326.488 824.62 326.262 824.886 325.982C825.153 325.688 825.36 325.348 825.506 324.962C825.653 324.575 825.726 324.162 825.726 323.722C825.726 323.282 825.653 322.868 825.506 322.482C825.36 322.095 825.153 321.755 824.886 321.462C824.62 321.168 824.293 320.935 823.906 320.762C823.533 320.588 823.113 320.502 822.646 320.502C822.18 320.502 821.76 320.588 821.386 320.762C821.013 320.935 820.693 321.168 820.426 321.462C820.173 321.755 819.973 322.095 819.826 322.482C819.68 322.868 819.606 323.282 819.606 323.722C819.606 324.162 819.68 324.575 819.826 324.962C819.973 325.348 820.173 325.688 820.426 325.982C820.693 326.262 821.013 326.488 821.386 326.662C821.76 326.835 822.18 326.922 822.646 326.922ZM831.58 324.182C831.593 324.568 831.653 324.935 831.76 325.282C831.88 325.615 832.047 325.915 832.26 326.182C832.487 326.435 832.773 326.642 833.12 326.802C833.467 326.948 833.893 327.022 834.4 327.022C835.08 327.022 835.593 326.882 835.94 326.602C836.3 326.308 836.553 325.968 836.7 325.582H838.46C838.38 325.968 838.233 326.335 838.02 326.682C837.807 327.028 837.527 327.335 837.18 327.602C836.833 327.868 836.427 328.082 835.96 328.242C835.493 328.402 834.973 328.482 834.4 328.482C833.64 328.482 832.973 328.355 832.4 328.102C831.827 327.848 831.353 327.508 830.98 327.082C830.607 326.655 830.327 326.155 830.14 325.582C829.953 324.995 829.86 324.375 829.86 323.722C829.86 323.042 829.96 322.408 830.16 321.822C830.36 321.235 830.647 320.728 831.02 320.302C831.407 319.875 831.873 319.542 832.42 319.302C832.98 319.062 833.62 318.942 834.34 318.942C834.927 318.942 835.473 319.048 835.98 319.262C836.5 319.462 836.947 319.748 837.32 320.122C837.707 320.495 838.007 320.935 838.22 321.442C838.433 321.935 838.54 322.468 838.54 323.042C838.54 323.175 838.533 323.335 838.52 323.522C838.52 323.708 838.5 323.928 838.46 324.182H831.58ZM834.3 320.282C833.513 320.282 832.873 320.508 832.38 320.962C831.887 321.402 831.627 322.035 831.6 322.862H836.86C836.86 322.062 836.613 321.435 836.12 320.982C835.64 320.515 835.033 320.282 834.3 320.282ZM832.08 318.202L831.26 316.842L836.24 314.102L837.06 315.462L832.08 318.202Z" fill="#29264C"/>
</svg>
