<?xml version="1.0" encoding="utf-8"?>
<!-- Generator: Adobe Illustrator 24.0.3, SVG Export Plug-In . SVG Version: 6.00 Build 0)  -->
<svg version="1.1" id="Layer_1" xmlns="http://www.w3.org/2000/svg" xmlns:xlink="http://www.w3.org/1999/xlink" x="0px" y="0px"
	 viewBox="0 0 800 660" style="enable-background:new 0 0 800 660;" xml:space="preserve">
<style type="text/css">
	.st0{clip-path:url(#SVGID_2_);}
	.st1{fill-rule:evenodd;clip-rule:evenodd;fill:#29264C;}
	.st2{fill-rule:evenodd;clip-rule:evenodd;fill:#E4E3EC;}
	.st3{fill:none;stroke:#4844A3;stroke-width:2;}
	.st4{fill-rule:evenodd;clip-rule:evenodd;fill:#19CA94;}
	.st5{fill-rule:evenodd;clip-rule:evenodd;fill:#CDCCE2;}
	.st6{fill:#D36BD3;}
	.st7{fill:none;stroke:#CDCCE2;stroke-width:2;stroke-opacity:0.5;}
	.st8{fill:none;stroke:#D36BD3;stroke-width:2;stroke-linecap:round;stroke-linejoin:round;stroke-dasharray:1,1;}
	.st9{fill:none;stroke:#A3A1D1;stroke-width:2;stroke-linecap:round;stroke-linejoin:round;stroke-dasharray:1,5;}
	.st10{fill:none;stroke:#A3A1D1;stroke-width:2;stroke-linecap:round;stroke-linejoin:round;}
	.st11{fill:none;stroke:#A3A1D1;stroke-width:2;stroke-linecap:round;stroke-linejoin:round;stroke-dasharray:1.0346,5.173;}
	.st12{fill-rule:evenodd;clip-rule:evenodd;fill:#D36BD3;}
</style>
<g>
	<defs>
		<rect id="SVGID_1_" y="0" width="800" height="660"/>
	</defs>
	<clipPath id="SVGID_2_">
		<use xlink:href="#SVGID_1_"  style="overflow:visible;"/>
	</clipPath>
	<g class="st0">
		<path class="st1" d="M16.2,62v14H13v-8.7L10,76H7.6l-3.1-8.7V76H1.3V62H5l3.7,9.7l3.7-9.7C12.5,62,16.2,62,16.2,62z M18.6,63.2
			c0-1.1,0.9-1.9,2-1.9s2,0.9,2,1.9c0,1.1-0.9,1.9-2,1.9S18.6,64.2,18.6,63.2z M19.1,76v-9.6h3.1V76H19.1z M24.9,76v-9.6H28v1.4
			c0.5-1,1.7-1.6,3.2-1.6c1.2,0,2.2,0.4,2.7,1.1c0.6,0.7,0.8,1.7,0.8,3.1V76h-3.1v-4.9c0-1.4-0.4-2.3-1.7-2.3c-1.2,0-1.9,1-1.9,2.4
			V76H24.9z M16.2,230v14H13v-8.7l-3,8.7H7.6l-3.1-8.7v8.7H1.3v-14H5l3.7,9.7l3.7-9.7C12.5,230,16.2,230,16.2,230z M23.8,241.6
			c1.4,0,2.3-1.1,2.3-2.5c0-1.3-0.9-2.5-2.3-2.5s-2.3,1.1-2.3,2.5C21.5,240.5,22.4,241.6,23.8,241.6z M26.1,234.4h3.1v9.6h-3.1v-1.4
			c-0.5,0.9-1.7,1.6-2.9,1.6c-2.8,0-4.7-2.2-4.7-5.1c0-2.9,1.9-5.1,4.7-5.1c1.2,0,2.5,0.7,2.9,1.6C26.1,235.7,26.1,234.4,26.1,234.4
			z M37.6,239.1l3.3,4.9h-3.5l-1.6-2.8l-1.6,2.8h-3.5l3.3-4.9l-3.3-4.8h3.5l1.5,2.7l1.5-2.7h3.5C40.9,234.4,37.6,239.1,37.6,239.1z
			 M16.2,401v14H13v-8.7l-3,8.7H7.6l-3.1-8.7v8.7H1.3v-14H5l3.7,9.7l3.7-9.7C12.5,401,16.2,401,16.2,401z M18.6,402.2
			c0-1.1,0.9-1.9,2-1.9s2,0.9,2,1.9c0,1.1-0.9,1.9-2,1.9S18.6,403.2,18.6,402.2z M19.1,415v-9.6h3.1v9.6H19.1z M24.9,415v-9.6H28
			v1.4c0.5-1,1.7-1.6,3.2-1.6c1.2,0,2.2,0.4,2.7,1.1c0.6,0.7,0.8,1.7,0.8,3.1v5.7h-3.1v-4.9c0-1.4-0.4-2.3-1.7-2.3
			c-1.2,0-1.9,1-1.9,2.4v4.8C28,415,24.9,415,24.9,415z M16.2,570v14H13v-8.7l-3,8.7H7.6l-3.1-8.7v8.7H1.3v-14H5l3.7,9.7l3.7-9.7
			C12.5,570,16.2,570,16.2,570z M23.8,581.6c1.4,0,2.3-1.1,2.3-2.5c0-1.3-0.9-2.5-2.3-2.5s-2.3,1.1-2.3,2.5
			C21.5,580.5,22.4,581.6,23.8,581.6z M26.1,574.4h3.1v9.6h-3.1v-1.4c-0.5,0.9-1.7,1.6-2.9,1.6c-2.8,0-4.7-2.2-4.7-5.1
			c0-2.9,1.9-5.1,4.7-5.1c1.2,0,2.5,0.7,2.9,1.6C26.1,575.7,26.1,574.4,26.1,574.4z M37.6,579.1l3.3,4.9h-3.5l-1.6-2.8l-1.6,2.8
			h-3.5l3.3-4.9l-3.3-4.8h3.5l1.5,2.7l1.5-2.7h3.5C40.9,574.4,37.6,579.1,37.6,579.1z"/>
		<path class="st2" d="M304,392v2h-80v-2H304z M304,418v2h-80v-2H304z"/>
		<path class="st3" d="M436,50c2.8,0,5-2.2,5-5s-2.2-5-5-5s-5,2.2-5,5S433.2,50,436,50z"/>
		<path class="st3" d="M682,214c2.8,0,5-2.2,5-5s-2.2-5-5-5s-5,2.2-5,5S679.2,214,682,214z"/>
		<path class="st3" d="M434,214c2.8,0,5-2.2,5-5s-2.2-5-5-5s-5,2.2-5,5S431.2,214,434,214z"/>
		<path class="st3" d="M630,385c2.8,0,5-2.2,5-5s-2.2-5-5-5s-5,2.2-5,5S627.2,385,630,385z"/>
		<path class="st3" d="M134,385c2.8,0,5-2.2,5-5s-2.2-5-5-5s-5,2.2-5,5S131.2,385,134,385z"/>
		<path class="st3" d="M134,558c2.8,0,5-2.2,5-5s-2.2-5-5-5s-5,2.2-5,5S131.2,558,134,558z"/>
		<path class="st3" d="M160,584c2.8,0,5-2.2,5-5s-2.2-5-5-5s-5,2.2-5,5S157.2,584,160,584z"/>
		<path class="st3" d="M186,610c2.8,0,5-2.2,5-5s-2.2-5-5-5s-5,2.2-5,5S183.2,610,186,610z"/>
		<path class="st3" d="M486,385c2.8,0,5-2.2,5-5s-2.2-5-5-5s-5,2.2-5,5S483.2,385,486,385z"/>
		<path class="st3" d="M734,385c2.8,0,5-2.2,5-5s-2.2-5-5-5s-5,2.2-5,5S731.2,385,734,385z"/>
		<path class="st3" d="M238,385c2.8,0,5-2.2,5-5s-2.2-5-5-5s-5,2.2-5,5S235.2,385,238,385z"/>
		<path class="st3" d="M238,558c2.8,0,5-2.2,5-5s-2.2-5-5-5s-5,2.2-5,5S235.2,558,238,558z"/>
		<path class="st3" d="M486,558c2.8,0,5-2.2,5-5s-2.2-5-5-5s-5,2.2-5,5S483.2,558,486,558z"/>
		<path class="st3" d="M186,214c2.8,0,5-2.2,5-5s-2.2-5-5-5s-5,2.2-5,5S183.2,214,186,214z"/>
		<path class="st3" d="M462,102c2.8,0,5-2.2,5-5s-2.2-5-5-5s-5,2.2-5,5S459.2,102,462,102z"/>
		<path class="st3" d="M708,266c2.8,0,5-2.2,5-5s-2.2-5-5-5s-5,2.2-5,5S705.2,266,708,266z"/>
		<path class="st3" d="M460,266c2.8,0,5-2.2,5-5s-2.2-5-5-5s-5,2.2-5,5S457.2,266,460,266z"/>
		<path class="st3" d="M656,437c2.8,0,5-2.2,5-5s-2.2-5-5-5s-5,2.2-5,5S653.2,437,656,437z"/>
		<path class="st3" d="M682,437c2.8,0,5-2.2,5-5s-2.2-5-5-5s-5,2.2-5,5S679.2,437,682,437z"/>
		<path class="st3" d="M160,437c2.8,0,5-2.2,5-5s-2.2-5-5-5s-5,2.2-5,5S157.2,437,160,437z"/>
		<path class="st3" d="M160,411c2.8,0,5-2.2,5-5s-2.2-5-5-5s-5,2.2-5,5S157.2,411,160,411z"/>
		<path class="st3" d="M160,610c2.8,0,5-2.2,5-5s-2.2-5-5-5s-5,2.2-5,5S157.2,610,160,610z"/>
		<path class="st3" d="M512,437c2.8,0,5-2.2,5-5s-2.2-5-5-5s-5,2.2-5,5S509.2,437,512,437z"/>
		<path class="st3" d="M486,437c2.8,0,5-2.2,5-5s-2.2-5-5-5s-5,2.2-5,5S483.2,437,486,437z"/>
		<path class="st3" d="M760,437c2.8,0,5-2.2,5-5s-2.2-5-5-5s-5,2.2-5,5S757.2,437,760,437z"/>
		<path class="st3" d="M786,437c2.8,0,5-2.2,5-5s-2.2-5-5-5s-5,2.2-5,5S783.2,437,786,437z"/>
		<path class="st3" d="M264,437c2.8,0,5-2.2,5-5s-2.2-5-5-5s-5,2.2-5,5S261.2,437,264,437z"/>
		<path class="st3" d="M264,411c2.8,0,5-2.2,5-5s-2.2-5-5-5s-5,2.2-5,5S261.2,411,264,411z"/>
		<path class="st3" d="M264,584c2.8,0,5-2.2,5-5s-2.2-5-5-5s-5,2.2-5,5S261.2,584,264,584z"/>
		<path class="st3" d="M512,584c2.8,0,5-2.2,5-5s-2.2-5-5-5s-5,2.2-5,5S509.2,584,512,584z"/>
		<path class="st3" d="M264,610c2.8,0,5-2.2,5-5s-2.2-5-5-5s-5,2.2-5,5S261.2,610,264,610z"/>
		<path class="st3" d="M512,610c2.8,0,5-2.2,5-5s-2.2-5-5-5s-5,2.2-5,5S509.2,610,512,610z"/>
		<path class="st3" d="M238,610c2.8,0,5-2.2,5-5s-2.2-5-5-5s-5,2.2-5,5S235.2,610,238,610z"/>
		<path class="st3" d="M486,610c2.8,0,5-2.2,5-5s-2.2-5-5-5s-5,2.2-5,5S483.2,610,486,610z"/>
		<path class="st3" d="M212,266c2.8,0,5-2.2,5-5s-2.2-5-5-5s-5,2.2-5,5S209.2,266,212,266z"/>
		<path class="st3" d="M488,50c2.8,0,5-2.2,5-5s-2.2-5-5-5s-5,2.2-5,5S485.2,50,488,50z"/>
		<path class="st3" d="M734,214c2.8,0,5-2.2,5-5s-2.2-5-5-5s-5,2.2-5,5S731.2,214,734,214z"/>
		<path class="st3" d="M486,214c2.8,0,5-2.2,5-5s-2.2-5-5-5s-5,2.2-5,5S483.2,214,486,214z"/>
		<path class="st3" d="M682,385c2.8,0,5-2.2,5-5s-2.2-5-5-5s-5,2.2-5,5S679.2,385,682,385z"/>
		<path class="st3" d="M186,385c2.8,0,5-2.2,5-5s-2.2-5-5-5s-5,2.2-5,5S183.2,385,186,385z"/>
		<path class="st3" d="M186,558c2.8,0,5-2.2,5-5s-2.2-5-5-5s-5,2.2-5,5S183.2,558,186,558z"/>
		<path class="st3" d="M538,385c2.8,0,5-2.2,5-5s-2.2-5-5-5s-5,2.2-5,5S535.2,385,538,385z"/>
		<path class="st3" d="M786,385c2.8,0,5-2.2,5-5s-2.2-5-5-5s-5,2.2-5,5S783.2,385,786,385z"/>
		<path class="st3" d="M290,385c2.8,0,5-2.2,5-5s-2.2-5-5-5s-5,2.2-5,5S287.2,385,290,385z"/>
		<path class="st3" d="M290,558c2.8,0,5-2.2,5-5s-2.2-5-5-5s-5,2.2-5,5S287.2,558,290,558z"/>
		<path class="st3" d="M538,558c2.8,0,5-2.2,5-5s-2.2-5-5-5s-5,2.2-5,5S535.2,558,538,558z"/>
		<path class="st3" d="M238,214c2.8,0,5-2.2,5-5s-2.2-5-5-5s-5,2.2-5,5S235.2,214,238,214z"/>
		<path class="st4" d="M431.8,65.2l9.8,9.8l-1.3,1.3l-9.8-9.8L431.8,65.2z"/>
		<path class="st4" d="M430.5,75l9.8-9.8l1.3,1.3l-9.8,9.8L430.5,75z"/>
		<path class="st4" d="M677.8,229.2l9.8,9.8l-1.3,1.3l-9.8-9.8L677.8,229.2z"/>
		<path class="st4" d="M676.5,239l9.8-9.8l1.3,1.3l-9.8,9.8L676.5,239z"/>
		<path class="st4" d="M429.8,229.2l9.8,9.8l-1.3,1.3l-9.8-9.8L429.8,229.2z"/>
		<path class="st4" d="M428.5,239l9.8-9.8l1.3,1.3l-9.8,9.8L428.5,239z"/>
		<path class="st4" d="M625.8,400.2l9.8,9.8l-1.3,1.3l-9.8-9.8L625.8,400.2z"/>
		<path class="st4" d="M624.5,410l9.8-9.8l1.3,1.3l-9.8,9.8L624.5,410z"/>
		<path class="st4" d="M651.8,400.2l9.8,9.8l-1.3,1.3l-9.8-9.8L651.8,400.2z"/>
		<path class="st4" d="M650.5,410l9.8-9.8l1.3,1.3l-9.8,9.8L650.5,410z"/>
		<path class="st4" d="M129.8,400.2l9.8,9.8l-1.3,1.3l-9.8-9.8L129.8,400.2z"/>
		<path class="st4" d="M128.5,410l9.8-9.8l1.3,1.3l-9.8,9.8L128.5,410z"/>
		<path class="st4" d="M129.8,426.2l9.8,9.8l-1.3,1.3l-9.8-9.8L129.8,426.2z"/>
		<path class="st4" d="M128.5,436l9.8-9.8l1.3,1.3l-9.8,9.8L128.5,436z"/>
		<path class="st4" d="M285.8,426.2l9.8,9.8l-1.3,1.3l-9.8-9.8L285.8,426.2z"/>
		<path class="st4" d="M284.5,436l9.8-9.8l1.3,1.3l-9.8,9.8L284.5,436z"/>
		<path class="st4" d="M129.8,573.2l9.8,9.8l-1.3,1.3l-9.8-9.8L129.8,573.2z"/>
		<path class="st4" d="M128.5,583l9.8-9.8l1.3,1.3l-9.8,9.8L128.5,583z"/>
		<path class="st4" d="M129.8,599.2l9.8,9.8l-1.3,1.3l-9.8-9.8L129.8,599.2z"/>
		<path class="st4" d="M128.5,609l9.8-9.8l1.3,1.3l-9.8,9.8L128.5,609z"/>
		<path class="st4" d="M481.8,400.2l9.8,9.8l-1.3,1.3l-9.8-9.8L481.8,400.2z"/>
		<path class="st4" d="M480.5,410l9.8-9.8l1.3,1.3l-9.8,9.8L480.5,410z"/>
		<path class="st4" d="M729.8,400.2l9.8,9.8l-1.3,1.3l-9.8-9.8L729.8,400.2z"/>
		<path class="st4" d="M728.5,410l9.8-9.8l1.3,1.3l-9.8,9.8L728.5,410z"/>
		<path class="st4" d="M729.8,426.2l9.8,9.8l-1.3,1.3l-9.8-9.8L729.8,426.2z"/>
		<path class="st4" d="M728.5,436l9.8-9.8l1.3,1.3l-9.8,9.8L728.5,436z"/>
		<path class="st4" d="M233.8,400.2l9.8,9.8l-1.3,1.3l-9.8-9.8L233.8,400.2z"/>
		<path class="st4" d="M232.5,410l9.8-9.8l1.3,1.3l-9.8,9.8L232.5,410z"/>
		<path class="st4" d="M233.8,573.2l9.8,9.8l-1.3,1.3l-9.8-9.8L233.8,573.2z"/>
		<path class="st4" d="M232.5,583l9.8-9.8l1.3,1.3l-9.8,9.8L232.5,583z"/>
		<path class="st4" d="M481.8,573.2l9.8,9.8l-1.3,1.3l-9.8-9.8L481.8,573.2z"/>
		<path class="st4" d="M480.5,583l9.8-9.8l1.3,1.3l-9.8,9.8L480.5,583z"/>
		<path class="st4" d="M181.8,229.2l9.8,9.8l-1.3,1.3l-9.8-9.8L181.8,229.2z"/>
		<path class="st4" d="M180.5,239l9.8-9.8l1.3,1.3l-9.8,9.8L180.5,239z"/>
		<path class="st4" d="M483.8,65.2l9.8,9.8l-1.3,1.3l-9.8-9.8L483.8,65.2z"/>
		<path class="st4" d="M482.5,75l9.8-9.8l1.3,1.3l-9.8,9.8L482.5,75z"/>
		<path class="st4" d="M729.8,229.2l9.8,9.8l-1.3,1.3l-9.8-9.8L729.8,229.2z"/>
		<path class="st4" d="M728.5,239l9.8-9.8l1.3,1.3l-9.8,9.8L728.5,239z"/>
		<path class="st4" d="M481.8,229.2l9.8,9.8l-1.3,1.3l-9.8-9.8L481.8,229.2z"/>
		<path class="st4" d="M480.5,239l9.8-9.8l1.3,1.3l-9.8,9.8L480.5,239z"/>
		<path class="st4" d="M677.8,400.2l9.8,9.8l-1.3,1.3l-9.8-9.8L677.8,400.2z"/>
		<path class="st4" d="M676.5,410l9.8-9.8l1.3,1.3l-9.8,9.8L676.5,410z"/>
		<path class="st4" d="M181.8,400.2l9.8,9.8l-1.3,1.3l-9.8-9.8L181.8,400.2z"/>
		<path class="st4" d="M180.5,410l9.8-9.8l1.3,1.3l-9.8,9.8L180.5,410z"/>
		<path class="st4" d="M181.8,573.2l9.8,9.8l-1.3,1.3l-9.8-9.8L181.8,573.2z"/>
		<path class="st4" d="M180.5,583l9.8-9.8l1.3,1.3l-9.8,9.8L180.5,583z"/>
		<path class="st4" d="M533.8,400.2l9.8,9.8l-1.3,1.3l-9.8-9.8L533.8,400.2z"/>
		<path class="st4" d="M532.5,410l9.8-9.8l1.3,1.3l-9.8,9.8L532.5,410z"/>
		<path class="st4" d="M533.8,426.2l9.8,9.8l-1.3,1.3l-9.8-9.8L533.8,426.2z"/>
		<path class="st4" d="M532.5,436l9.8-9.8l1.3,1.3l-9.8,9.8L532.5,436z"/>
		<path class="st4" d="M781.8,400.2l9.8,9.8l-1.3,1.3l-9.8-9.8L781.8,400.2z"/>
		<path class="st4" d="M780.5,410l9.8-9.8l1.3,1.3l-9.8,9.8L780.5,410z"/>
		<path class="st4" d="M285.8,400.2l9.8,9.8l-1.3,1.3l-9.8-9.8L285.8,400.2z"/>
		<path class="st4" d="M284.5,410l9.8-9.8l1.3,1.3l-9.8,9.8L284.5,410z"/>
		<path class="st4" d="M285.8,573.2l9.8,9.8l-1.3,1.3l-9.8-9.8L285.8,573.2z"/>
		<path class="st4" d="M284.5,583l9.8-9.8l1.3,1.3l-9.8,9.8L284.5,583z"/>
		<path class="st4" d="M533.8,573.2l9.8,9.8l-1.3,1.3l-9.8-9.8L533.8,573.2z"/>
		<path class="st4" d="M532.5,583l9.8-9.8l1.3,1.3l-9.8,9.8L532.5,583z"/>
		<path class="st4" d="M285.8,599.2l9.8,9.8l-1.3,1.3l-9.8-9.8L285.8,599.2z"/>
		<path class="st4" d="M284.5,609l9.8-9.8l1.3,1.3l-9.8,9.8L284.5,609z"/>
		<path class="st4" d="M533.8,599.2l9.8,9.8l-1.3,1.3l-9.8-9.8L533.8,599.2z"/>
		<path class="st4" d="M532.5,609l9.8-9.8l1.3,1.3l-9.8,9.8L532.5,609z"/>
		<path class="st4" d="M233.8,229.2l9.8,9.8l-1.3,1.3l-9.8-9.8L233.8,229.2z"/>
		<path class="st4" d="M232.5,239l9.8-9.8l1.3,1.3l-9.8,9.8L232.5,239z"/>
		<path class="st4" d="M457.8,39.2l9.8,9.8l-1.3,1.3l-9.8-9.8L457.8,39.2z"/>
		<path class="st4" d="M456.5,49l9.8-9.8l1.3,1.3l-9.8,9.8L456.5,49z"/>
		<path class="st4" d="M703.8,203.2l9.8,9.8l-1.3,1.3l-9.8-9.8L703.8,203.2z"/>
		<path class="st4" d="M702.5,213l9.8-9.8l1.3,1.3l-9.8,9.8L702.5,213z"/>
		<path class="st4" d="M455.8,203.2l9.8,9.8l-1.3,1.3l-9.8-9.8L455.8,203.2z"/>
		<path class="st4" d="M454.5,213l9.8-9.8l1.3,1.3l-9.8,9.8L454.5,213z"/>
		<path class="st4" d="M651.8,374.2l9.8,9.8l-1.3,1.3l-9.8-9.8L651.8,374.2z"/>
		<path class="st4" d="M650.5,384l9.8-9.8l1.3,1.3l-9.8,9.8L650.5,384z"/>
		<path class="st4" d="M155.8,374.2l9.8,9.8l-1.3,1.3l-9.8-9.8L155.8,374.2z"/>
		<path class="st4" d="M154.5,384l9.8-9.8l1.3,1.3l-9.8,9.8L154.5,384z"/>
		<path class="st4" d="M155.8,547.2l9.8,9.8l-1.3,1.3l-9.8-9.8L155.8,547.2z"/>
		<path class="st4" d="M154.5,557l9.8-9.8l1.3,1.3l-9.8,9.8L154.5,557z"/>
		<path class="st4" d="M507.8,374.2l9.8,9.8l-1.3,1.3l-9.8-9.8L507.8,374.2z"/>
		<path class="st4" d="M506.5,384l9.8-9.8l1.3,1.3l-9.8,9.8L506.5,384z"/>
		<path class="st4" d="M755.8,374.2l9.8,9.8l-1.3,1.3l-9.8-9.8L755.8,374.2z"/>
		<path class="st4" d="M754.5,384l9.8-9.8l1.3,1.3l-9.8,9.8L754.5,384z"/>
		<path class="st4" d="M259.8,374.2l9.8,9.8l-1.3,1.3l-9.8-9.8L259.8,374.2z"/>
		<path class="st4" d="M258.5,384l9.8-9.8l1.3,1.3l-9.8,9.8L258.5,384z"/>
		<path class="st4" d="M259.8,547.2l9.8,9.8l-1.3,1.3l-9.8-9.8L259.8,547.2z"/>
		<path class="st4" d="M258.5,557l9.8-9.8l1.3,1.3l-9.8,9.8L258.5,557z"/>
		<path class="st4" d="M507.8,547.2l9.8,9.8l-1.3,1.3l-9.8-9.8L507.8,547.2z"/>
		<path class="st4" d="M506.5,557l9.8-9.8l1.3,1.3l-9.8,9.8L506.5,557z"/>
		<path class="st4" d="M207.8,203.2l9.8,9.8l-1.3,1.3l-9.8-9.8L207.8,203.2z"/>
		<path class="st4" d="M206.5,213l9.8-9.8l1.3,1.3l-9.8,9.8L206.5,213z"/>
		<path class="st5" d="M422.5,12.5v-1.6c1.9,0,2.3-0.5,2.3-1.7h2V19h-2.3v-6.5H422.5z M671.9,183v-2.7H668v-7.1h2.3v5.2h1.7v-2.7
			h2.3v2.7h1.2v1.9h-1.2v2.7H671.9z M419.7,179.7h2.3c0,1.1,0.6,1.7,1.5,1.7c0.8,0,1.3-0.6,1.3-1.3c0-0.8-0.4-1.4-1.4-1.4h-0.9V177
			h0.9c1,0,1.3-0.5,1.3-1.2s-0.5-1.1-1.1-1.1c-1,0-1.2,0.6-1.2,1.4h-2.3c0-1.7,1-3.1,3.5-3.1c1.8,0,3.4,0.9,3.4,2.7
			c0,1.1-0.7,1.9-1.4,2.2c0.9,0.3,1.6,1.1,1.6,2.4c0,1.9-1.7,2.9-3.5,2.9C421,183.2,419.7,181.8,419.7,179.7z M367.7,344.2h7
			l-4.2,9.8h-2.4l3.4-7.9h-3.9v-1.9H367.7z M620.8,354h-2.5l2-2.9c-2.2-0.1-3.5-1.6-3.5-3.5s1.4-3.6,3.8-3.6c2.3,0,3.7,1.6,3.7,3.6
			c0,0.8-0.2,1.5-0.6,2L620.8,354z M620.4,345.9c-1,0-1.6,0.8-1.6,1.7s0.6,1.7,1.6,1.7c0.9,0,1.5-0.7,1.5-1.7
			C622,346.6,621.4,345.9,620.4,345.9z M119.4,349.9v-5.7h6.6v1.8h-4.5v2.2c0.4-0.6,1.3-0.9,2-0.9c2.2,0,3.2,1.7,3.2,3.4
			c0,1.9-1.4,3.6-3.8,3.6c-2.3,0-3.7-1.6-3.7-3.5h2.2c0,0.9,0.6,1.7,1.5,1.7c1,0,1.6-0.8,1.6-1.7c0-0.9-0.6-1.7-1.6-1.7
			c-0.7,0-1.1,0.3-1.4,0.9h-2.1V349.9z M120.6,520.5v-1.6c1.9,0,2.3-0.5,2.3-1.7h2v9.8h-2.3v-6.5H120.6L120.6,520.5z M126.4,520.5
			v-1.6c1.9,0,2.3-0.5,2.3-1.7h2v9.8h-2.3v-6.5H126.4z"/>
		<path class="st1" d="M144.5,466.7h1.5l2.3,5.3l2.3-5.3h1.5l-3.3,7.3h-1L144.5,466.7z M160.1,468.8h-6.5v-1.2h6.5V468.8z
			 M160.1,471.4h-6.5v-1.2h6.5V471.4z M168.9,470.1h-6.4v-1.2h6.4V470.1z M170.4,465.8v-1.2c2,0,2.4-0.5,2.4-1.9h1.4V474h-1.5v-8.2
			H170.4z M145.5,639.7h1.5l2.3,5.3l2.3-5.3h1.5l-3.3,7.3h-1L145.5,639.7z M161.1,641.8h-6.5v-1.2h6.5V641.8z M161.1,644.4h-6.5
			v-1.2h6.5V644.4z M169.9,643.1h-6.4v-1.2h6.4V643.1z M171.4,638.8v-1.2c2,0,2.4-0.5,2.4-1.9h1.4V647h-1.5v-8.2H171.4z
			 M198.5,295.7h1.5l2.3,5.3l2.3-5.3h1.5l-3.3,7.3h-1L198.5,295.7z M214.1,297.8h-6.5v-1.2h6.5V297.8z M214.1,300.4h-6.5v-1.2h6.5
			V300.4z M222.9,299.1h-6.4v-1.2h6.4V299.1z M224.4,294.8v-1.2c2,0,2.4-0.5,2.4-1.9h1.4V303h-1.5v-8.2H224.4z M449.1,295.7h1.5
			l2.3,5.3l2.3-5.3h1.5l-3.3,7.3h-1L449.1,295.7z M464.7,297.8h-6.5v-1.2h6.5V297.8z M464.7,300.4h-6.5v-1.2h6.5V300.4z
			 M466.8,294.8v-1.2c2,0,2.4-0.5,2.4-1.9h1.4V303H469v-8.2H466.8z M444.5,131.7h1.5l2.3,5.3l2.3-5.3h1.5l-3.3,7.3h-1L444.5,131.7z
			 M460.1,133.8h-6.5v-1.2h6.5V133.8z M460.1,136.4h-6.5v-1.2h6.5V136.4z M468.9,135.1h-6.4v-1.2h6.4V135.1z M470.4,130.8v-1.2
			c2,0,2.4-0.5,2.4-1.9h1.4V139h-1.5v-8.2H470.4z"/>
		<path class="st6" d="M285.7,162.1c-0.8,0.4-1.6,0.7-2.4,0.7c-0.8,0-1.5-0.1-2.2-0.3c-0.7-0.2-1.3-0.6-1.9-1.1s-1-1.1-1.4-1.7
			c-0.4-0.7-0.6-1.4-0.7-2.1c-0.1-0.7-0.1-1.5,0.1-2.2c0.2-0.7,0.5-1.4,1-2c0.5-0.6,1.1-1.2,1.9-1.6c0.8-0.4,1.6-0.7,2.4-0.7
			c0.8-0.1,1.5,0,2.2,0.3c0.7,0.2,1.3,0.6,1.9,1.1c0.6,0.5,1,1.1,1.4,1.7c0.4,0.7,0.6,1.4,0.7,2.1c0.1,0.7,0,1.5-0.1,2.2
			c-0.2,0.7-0.5,1.4-1,2C287.1,161.2,286.5,161.7,285.7,162.1z M285.1,161c0.6-0.3,1-0.7,1.4-1.2c0.4-0.5,0.6-1,0.7-1.5
			c0.1-0.5,0.1-1.1,0.1-1.7c-0.1-0.6-0.3-1.1-0.5-1.6s-0.6-1-1.1-1.4c-0.4-0.4-0.9-0.7-1.4-0.9c-0.5-0.2-1.1-0.3-1.7-0.3
			c-0.6,0-1.2,0.2-1.7,0.5c-0.6,0.3-1,0.7-1.4,1.2c-0.3,0.5-0.6,1-0.7,1.5c-0.1,0.5-0.1,1.1-0.1,1.7c0.1,0.6,0.3,1.1,0.5,1.6
			c0.3,0.5,0.6,1,1.1,1.4c0.4,0.4,0.9,0.7,1.4,0.9c0.5,0.2,1.1,0.3,1.7,0.3C283.9,161.5,284.5,161.3,285.1,161z M290.7,152.4
			c0-0.5,0.1-1,0.4-1.4c0.3-0.4,0.7-0.8,1.1-1c0.5-0.3,1-0.4,1.5-0.4c0.5,0,1,0,1.4,0.2c0.5,0.2,0.9,0.4,1.3,0.7
			c0.4,0.3,0.7,0.7,0.9,1.2c0.2,0.5,0.4,0.9,0.4,1.4c0.1,0.5,0,1-0.1,1.4c-0.1,0.5-0.3,0.9-0.7,1.3c-0.3,0.4-0.7,0.7-1.2,1
			c-0.5,0.2-1,0.4-1.5,0.4c-0.5,0-1-0.2-1.4-0.4l2.4,4.6l-1.2,0.7l-5.3-9.9l1.2-0.7L290.7,152.4z M292.8,151
			c-0.3,0.2-0.6,0.4-0.8,0.7c-0.2,0.3-0.3,0.5-0.4,0.9c-0.1,0.3-0.1,0.6-0.1,1c0,0.3,0.1,0.6,0.3,1c0.2,0.3,0.4,0.6,0.6,0.8
			c0.2,0.2,0.5,0.4,0.8,0.5c0.3,0.1,0.6,0.1,0.9,0.1c0.3,0,0.7-0.1,1-0.3c0.3-0.2,0.6-0.4,0.8-0.6c0.2-0.3,0.3-0.5,0.4-0.8
			c0.1-0.3,0.1-0.6,0.1-1c0-0.3-0.1-0.6-0.3-1c-0.2-0.3-0.4-0.6-0.6-0.8c-0.2-0.2-0.5-0.4-0.8-0.5c-0.3-0.1-0.6-0.2-0.9-0.1
			S293.1,150.9,292.8,151z M304.3,152c-0.1,0.1-0.3,0.2-0.5,0.3c-0.2,0.1-0.4,0.2-0.6,0.4c-0.2,0.1-0.4,0.2-0.7,0.3
			c-0.3,0.1-0.5,0.1-0.8,0.1c-0.3,0-0.6-0.2-0.9-0.4c-0.3-0.2-0.6-0.6-0.9-1.1l-1.7-3.2l-1.2,0.6l-0.5-1l1.2-0.6l-1.2-2.2l1.2-0.7
			l1.1,2.2l1.7-0.9l0.5,1l-1.7,0.9l1.6,3c0.2,0.3,0.3,0.5,0.5,0.7c0.2,0.1,0.3,0.2,0.5,0.3c0.1,0,0.3,0,0.4,0c0.1,0,0.3-0.1,0.5-0.2
			c0.1-0.1,0.3-0.2,0.4-0.2c0.2-0.1,0.3-0.2,0.4-0.3L304.3,152z M302.2,144.9l1.2-0.7l3.4,6.4l-1.2,0.7L302.2,144.9z M300.5,142.6
			c-0.1-0.3-0.2-0.6-0.1-0.9c0.1-0.3,0.3-0.5,0.5-0.7c0.3-0.1,0.6-0.2,0.9-0.1c0.3,0.1,0.5,0.3,0.7,0.5c0.1,0.3,0.2,0.6,0.1,0.8
			c-0.1,0.3-0.3,0.5-0.6,0.7c-0.3,0.1-0.6,0.2-0.8,0.1C300.9,143.1,300.7,142.9,300.5,142.6z M317.3,145l-2-3.7
			c-0.3-0.6-0.7-1-1.1-1.2c-0.4-0.2-0.8-0.2-1.3,0.1c-0.5,0.3-0.8,0.6-0.9,1.2c-0.1,0.5,0.1,1.2,0.5,1.9l1.7,3.3l-1.2,0.7l-1.9-3.6
			c-0.3-0.6-0.7-1.1-1.1-1.2c-0.4-0.2-0.8-0.2-1.2,0.1c-0.5,0.3-0.8,0.6-0.9,1.2c-0.1,0.5,0.1,1.2,0.5,1.9l1.7,3.3l-1.2,0.7
			l-3.4-6.4l1.2-0.7l0.6,1.1c-0.1-0.4,0-0.8,0.2-1.3c0.2-0.4,0.5-0.8,1-1c0.6-0.3,1.1-0.4,1.6-0.4c0.5,0.1,0.9,0.3,1.2,0.6
			c0-0.2,0-0.4,0-0.7c0-0.2,0.1-0.5,0.2-0.7c0.1-0.2,0.3-0.4,0.4-0.6c0.2-0.2,0.4-0.4,0.7-0.5c0.4-0.2,0.8-0.4,1.2-0.4
			c0.4,0,0.7,0,1,0.2c0.3,0.1,0.6,0.3,0.8,0.6c0.2,0.3,0.5,0.6,0.7,0.9l2.2,4.1L317.3,145z M323.5,133.5l3.4,6.4l-1.2,0.6l-0.6-1.1
			c0,0.5-0.1,1-0.4,1.4c-0.3,0.4-0.7,0.8-1.1,1c-0.5,0.3-1,0.4-1.5,0.4s-1,0-1.4-0.2c-0.4-0.2-0.9-0.4-1.2-0.7
			c-0.4-0.3-0.7-0.7-0.9-1.2c-0.2-0.5-0.4-0.9-0.4-1.4c-0.1-0.5,0-1,0.1-1.4c0.1-0.5,0.3-0.9,0.7-1.3c0.3-0.4,0.7-0.7,1.2-1
			c0.5-0.2,1-0.4,1.5-0.4c0.5,0,1,0.2,1.4,0.4l-0.6-1.1L323.5,133.5z M323,140.8c0.3-0.2,0.6-0.4,0.8-0.7c0.2-0.3,0.4-0.6,0.4-0.8
			c0.1-0.3,0.1-0.6,0.1-1c0-0.3-0.1-0.6-0.3-1c-0.2-0.3-0.4-0.6-0.6-0.8c-0.2-0.2-0.5-0.4-0.8-0.5c-0.3-0.1-0.6-0.1-1-0.1
			c-0.3,0-0.7,0.1-1,0.3c-0.3,0.2-0.6,0.4-0.8,0.7c-0.2,0.3-0.3,0.5-0.4,0.9c-0.1,0.3-0.1,0.6,0,0.9c0,0.3,0.1,0.6,0.3,1
			c0.2,0.3,0.4,0.6,0.6,0.8c0.2,0.2,0.5,0.4,0.8,0.5c0.3,0.1,0.6,0.1,0.9,0.1C322.3,141.1,322.7,141,323,140.8z M318.3,135.4
			l-1.1-0.6l2.5-3.8l1.1,0.6L318.3,135.4z M323.8,128.9l1.2-0.7l5.3,9.9l-1.2,0.7L323.8,128.9z M329.1,130.5l1.2-0.7l0.6,1.1
			c0-0.5,0.1-1,0.4-1.4c0.3-0.4,0.7-0.8,1.2-1.1c0.5-0.2,0.9-0.4,1.3-0.4c0.4,0,0.8,0,1.1,0.2c0.3,0.1,0.6,0.4,0.8,0.6
			c0.2,0.3,0.5,0.6,0.7,1.1l2,3.8l-1.2,0.7l-1.8-3.4c-0.2-0.3-0.3-0.6-0.5-0.8c-0.2-0.2-0.4-0.4-0.6-0.5c-0.2-0.1-0.5-0.2-0.7-0.2
			c-0.3,0-0.6,0.1-0.9,0.2c-0.3,0.2-0.5,0.4-0.7,0.6c-0.2,0.2-0.3,0.5-0.3,0.8c0,0.3,0,0.6,0,0.9c0.1,0.3,0.2,0.6,0.3,0.9l1.8,3.3
			l-1.2,0.7L329.1,130.5z M337.1,126.3l1.2-0.7l3.4,6.4l-1.2,0.7L337.1,126.3z M335.8,125.8l-1.1-0.6l2.5-3.8l1.1,0.7L335.8,125.8z
			 M351,127.1c-0.1,0.1-0.3,0.2-0.5,0.3c-0.2,0.1-0.4,0.2-0.6,0.4c-0.2,0.1-0.4,0.2-0.7,0.3c-0.3,0.1-0.5,0.1-0.8,0.1
			c-0.3,0-0.6-0.2-0.9-0.4c-0.3-0.2-0.6-0.6-0.9-1.1l-1.7-3.2l-1.2,0.6l-0.5-1l1.2-0.6l-1.1-2.2l1.2-0.7l1.1,2.2l1.7-0.9l0.5,1
			l-1.7,0.9l1.6,3c0.2,0.3,0.3,0.5,0.5,0.7c0.2,0.1,0.3,0.2,0.5,0.3c0.1,0,0.3,0,0.4,0c0.1,0,0.3-0.1,0.5-0.2
			c0.1-0.1,0.3-0.2,0.4-0.2c0.2-0.1,0.3-0.2,0.4-0.3L351,127.1z M353.5,119c-0.1,0-0.3,0.1-0.4,0.1c-0.1,0-0.2,0.1-0.3,0.1
			c-0.7,0.4-1.1,0.9-1.2,1.5c-0.1,0.6,0.1,1.4,0.5,2.1l1.5,2.8l-1.2,0.7l-3.4-6.4l1.2-0.7l0.7,1.3c0-0.5,0.1-1,0.3-1.4
			c0.3-0.5,0.6-0.8,1.1-1.1c0.2-0.1,0.5-0.2,0.7-0.2L353.5,119z M360.2,114l3.4,6.4l-1.2,0.6l-0.6-1.1c0,0.5-0.1,1-0.4,1.4
			c-0.3,0.4-0.7,0.8-1.1,1c-0.5,0.3-1,0.4-1.5,0.4c-0.5,0-1,0-1.4-0.2c-0.4-0.2-0.9-0.4-1.2-0.7c-0.4-0.3-0.7-0.7-0.9-1.2
			c-0.2-0.5-0.4-0.9-0.4-1.4c-0.1-0.5,0-1,0.1-1.4c0.1-0.5,0.3-0.9,0.7-1.3c0.3-0.4,0.7-0.7,1.2-1c0.5-0.2,1-0.4,1.5-0.4
			c0.5,0,1,0.2,1.4,0.4l-0.6-1.1L360.2,114z M359.7,121.3c0.3-0.2,0.6-0.4,0.8-0.7c0.2-0.3,0.4-0.6,0.4-0.8c0.1-0.3,0.1-0.6,0.1-1
			c0-0.3-0.1-0.6-0.3-1c-0.2-0.3-0.4-0.6-0.6-0.8s-0.5-0.4-0.8-0.5c-0.3-0.1-0.6-0.1-1-0.1c-0.3,0-0.7,0.1-1,0.3
			c-0.3,0.2-0.6,0.4-0.8,0.7c-0.2,0.3-0.3,0.5-0.4,0.9c-0.1,0.3-0.1,0.6,0,0.9c0,0.3,0.1,0.6,0.3,1c0.2,0.3,0.4,0.6,0.6,0.8
			c0.2,0.2,0.5,0.4,0.8,0.5c0.3,0.1,0.6,0.1,0.9,0.1C359,121.6,359.3,121.5,359.7,121.3z M366.6,114.3c0.3-0.1,0.6-0.1,0.8-0.1
			c0.3,0,0.5,0,0.8,0c0.2,0,0.5,0.1,0.7,0.3c0.2,0.1,0.4,0.4,0.6,0.7c0.2,0.3,0.3,0.6,0.3,1c0,0.3-0.1,0.6-0.2,0.9
			c-0.1,0.3-0.3,0.5-0.6,0.8c-0.3,0.2-0.6,0.5-0.9,0.7c-0.4,0.2-0.7,0.3-1.1,0.4c-0.4,0.1-0.7,0.1-1.1,0c-0.3-0.1-0.7-0.2-1-0.4
			c-0.3-0.2-0.5-0.5-0.8-0.9l1.2-0.6c0.3,0.5,0.6,0.8,1,0.8c0.4,0,0.8-0.1,1.2-0.3c0.4-0.2,0.7-0.4,0.8-0.7c0.2-0.3,0.1-0.6,0-0.9
			c-0.1-0.2-0.2-0.3-0.4-0.3c-0.2-0.1-0.3-0.1-0.6-0.1c-0.2,0-0.5,0-0.8,0.1c-0.3,0.1-0.6,0.1-1,0.2c-0.3,0.1-0.6,0.1-0.8,0.1
			c-0.3,0-0.5,0-0.7,0c-0.2-0.1-0.4-0.1-0.6-0.3c-0.2-0.1-0.4-0.4-0.5-0.7c-0.2-0.3-0.2-0.6-0.2-0.9c0-0.3,0.1-0.6,0.2-0.8
			c0.1-0.3,0.3-0.5,0.6-0.8c0.2-0.2,0.5-0.4,0.9-0.6c0.3-0.2,0.7-0.3,1.1-0.4c0.4-0.1,0.7,0,1,0c0.3,0.1,0.6,0.2,0.9,0.4
			c0.3,0.2,0.5,0.4,0.7,0.8l-1.2,0.6c-0.2-0.4-0.5-0.6-0.8-0.7c-0.3-0.1-0.7,0-1.1,0.2c-0.3,0.2-0.6,0.4-0.7,0.7
			c-0.1,0.3-0.1,0.6,0,0.8c0.1,0.2,0.2,0.3,0.3,0.3c0.1,0.1,0.3,0.1,0.5,0.1c0.2,0,0.4,0,0.7-0.1
			C365.9,114.4,366.2,114.3,366.6,114.3z M375,106.1l3.4,6.4l-1.2,0.6l-0.6-1.1c0,0.5-0.1,1-0.4,1.4c-0.3,0.4-0.7,0.8-1.1,1
			c-0.5,0.3-1,0.4-1.5,0.4c-0.5,0-1,0-1.4-0.2c-0.4-0.2-0.9-0.4-1.2-0.7c-0.4-0.3-0.7-0.7-0.9-1.2s-0.4-0.9-0.4-1.4
			c-0.1-0.5,0-1,0.1-1.4c0.1-0.5,0.3-0.9,0.7-1.3c0.3-0.4,0.7-0.7,1.2-1c0.5-0.2,1-0.4,1.5-0.4c0.5,0,1,0.2,1.4,0.4l-0.6-1.1
			L375,106.1z M374.5,113.4c0.3-0.2,0.6-0.4,0.8-0.7c0.2-0.3,0.4-0.6,0.4-0.8c0.1-0.3,0.1-0.6,0.1-1c0-0.3-0.1-0.6-0.3-1
			c-0.2-0.3-0.4-0.6-0.6-0.8c-0.2-0.2-0.5-0.4-0.8-0.5c-0.3-0.1-0.6-0.1-1-0.1c-0.3,0-0.7,0.1-1,0.3c-0.3,0.2-0.6,0.4-0.8,0.7
			c-0.2,0.3-0.3,0.5-0.4,0.9c-0.1,0.3-0.1,0.6,0,0.9c0,0.3,0.1,0.6,0.3,1c0.2,0.3,0.4,0.6,0.6,0.8c0.2,0.2,0.5,0.4,0.8,0.5
			c0.3,0.1,0.6,0.1,0.9,0.1C373.8,113.7,374.2,113.6,374.5,113.4z"/>
		<path class="st1" d="M698.1,295.7h1.5l2.3,5.3l2.3-5.3h1.5l-3.3,7.3h-1L698.1,295.7z M713.7,297.8h-6.5v-1.2h6.5V297.8z
			 M713.7,300.4h-6.5v-1.2h6.5V300.4z M715.8,294.8v-1.2c2,0,2.4-0.5,2.4-1.9h1.4V303H718v-8.2H715.8z M246.5,466.7h1.5l2.3,5.3
			l2.3-5.3h1.5l-3.3,7.3h-1L246.5,466.7z M262.1,468.8h-6.5v-1.2h6.5V468.8z M262.1,471.4h-6.5v-1.2h6.5V471.4z M270.9,470.1h-6.4
			v-1.2h6.4V470.1z M272.4,465.8v-1.2c2,0,2.4-0.5,2.4-1.9h1.4V474h-1.5v-8.2H272.4z M248.5,639.7h1.5l2.3,5.3l2.3-5.3h1.5l-3.3,7.3
			h-1L248.5,639.7z M264.1,641.8h-6.5v-1.2h6.5V641.8z M264.1,644.4h-6.5v-1.2h6.5V644.4z M272.9,643.1h-6.4v-1.2h6.4V643.1z
			 M274.4,638.8v-1.2c2,0,2.4-0.5,2.4-1.9h1.4V647h-1.5v-8.2H274.4z M396.1,466.7h1.5l2.3,5.3l2.3-5.3h1.5l-3.3,7.3h-1L396.1,466.7z
			 M411.7,468.8h-6.5v-1.2h6.5V468.8z M411.7,471.4h-6.5v-1.2h6.5V471.4z M413.8,465.8v-1.2c2,0,2.4-0.5,2.4-1.9h1.4V474H416v-8.2
			H413.8z M645.1,466.7h1.5l2.3,5.3l2.3-5.3h1.5l-3.3,7.3h-1L645.1,466.7z M660.7,468.8h-6.5v-1.2h6.5V468.8z M660.7,471.4h-6.5
			v-1.2h6.5V471.4z M662.8,465.8v-1.2c2,0,2.4-0.5,2.4-1.9h1.4V474H665v-8.2H662.8z M494.5,466.7h1.5l2.3,5.3l2.3-5.3h1.5l-3.3,7.3
			h-1L494.5,466.7z M510.1,468.8h-6.5v-1.2h6.5V468.8z M510.1,471.4h-6.5v-1.2h6.5V471.4z M518.9,470.1h-6.4v-1.2h6.4V470.1z
			 M520.4,465.8v-1.2c2,0,2.4-0.5,2.4-1.9h1.4V474h-1.5v-8.2H520.4z M496.5,639.7h1.5l2.3,5.3l2.3-5.3h1.5l-3.3,7.3h-1L496.5,639.7z
			 M512.1,641.8h-6.5v-1.2h6.5V641.8z M512.1,644.4h-6.5v-1.2h6.5V644.4z M520.9,643.1h-6.4v-1.2h6.4V643.1z M522.4,638.8v-1.2
			c2,0,2.4-0.5,2.4-1.9h1.4V647h-1.5v-8.2H522.4z M744.2,466.7h1.5l2.3,5.3l2.3-5.3h1.5l-3.3,7.3h-1L744.2,466.7z M759.8,468.8h-6.5
			v-1.2h6.5V468.8z M759.8,471.4h-6.5v-1.2h6.5V471.4z M765.6,468.8v1.2h-3.7v-1.2H765.6z M766.7,465.8v-1.2c2,0,2.4-0.5,2.4-1.9
			h1.4V474H769v-8.2H766.7z M745.5,639.7h1.5l2.3,5.3l2.3-5.3h1.5l-3.3,7.3h-1L745.5,639.7z M761.1,641.8h-6.5v-1.2h6.5V641.8z
			 M761.1,644.4h-6.5v-1.2h6.5V644.4z M769.9,643.1h-6.4v-1.2h6.4V643.1z M771.4,638.8v-1.2c2,0,2.4-0.5,2.4-1.9h1.4V647h-1.5v-8.2
			H771.4z"/>
		<path class="st5" d="M475.4,354.2c-2.3,0-3.7-1.4-3.7-3c0-1,0.7-2,1.6-2.3c-0.8-0.3-1.3-1.2-1.3-2.1c0-1.5,1.3-2.8,3.4-2.8
			c2.2,0,3.4,1.3,3.4,2.8c0,0.9-0.5,1.8-1.3,2.1c0.9,0.3,1.6,1.3,1.6,2.3C479.1,352.8,477.8,354.2,475.4,354.2z M475.4,348.1
			c0.8,0,1.3-0.6,1.3-1.2s-0.5-1.2-1.3-1.2c-0.8,0-1.3,0.6-1.3,1.2C474.1,347.6,474.6,348.1,475.4,348.1z M475.4,352.5
			c0.9,0,1.5-0.6,1.5-1.3c0-0.7-0.5-1.4-1.5-1.4s-1.5,0.6-1.5,1.4C473.9,351.9,474.5,352.5,475.4,352.5z M472.7,520.5v-1.6
			c1.9,0,2.3-0.5,2.3-1.7h2v9.8h-2.3v-6.5H472.7L472.7,520.5z M478.6,523.7h2.3c0,1.1,0.6,1.7,1.5,1.7c0.8,0,1.3-0.6,1.3-1.3
			c0-0.8-0.4-1.4-1.4-1.4h-0.9V521h0.9c1,0,1.3-0.5,1.3-1.2s-0.5-1.1-1.1-1.1c-1,0-1.2,0.6-1.2,1.4H479c0-1.7,1-3.1,3.5-3.1
			c1.8,0,3.4,0.9,3.4,2.7c0,1.1-0.7,1.9-1.4,2.2c0.9,0.3,1.6,1.1,1.6,2.4c0,1.9-1.7,2.9-3.5,2.9
			C479.9,527.2,478.6,525.8,478.6,523.7z M719.6,347.5v-1.6c1.9,0,2.3-0.5,2.3-1.7h2v9.8h-2.3v-6.5H719.6z M725.6,350.7v-3.2
			c0-1.9,1.4-3.5,3.7-3.5s3.8,1.6,3.8,3.5v3.2c0,1.9-1.5,3.5-3.8,3.5S725.6,352.6,725.6,350.7z M730.8,350.7v-3.2
			c0-0.9-0.6-1.6-1.5-1.6c-0.9,0-1.5,0.7-1.5,1.6v3.2c0,0.9,0.6,1.6,1.5,1.6C730.2,352.3,730.8,351.6,730.8,350.7z M720.6,520.5
			v-1.6c1.9,0,2.3-0.5,2.3-1.7h2v9.8h-2.3v-6.5H720.6L720.6,520.5z M730.8,527v-2.7h-3.9v-7.1h2.3v5.2h1.7v-2.7h2.3v2.7h1.2v1.9H733
			v2.7H730.8z M227.4,354.2c-2.3,0-3.7-1.6-3.7-3.6c0-0.7,0.2-1.4,0.6-2l2.8-4.4h2.5l-2,2.9c0.2,0,0.4,0.1,0.6,0.2
			c1.8,0.2,2.9,1.7,2.9,3.3C231.1,352.6,229.7,354.2,227.4,354.2z M227.4,352.3c1,0,1.6-0.8,1.6-1.7s-0.6-1.7-1.6-1.7
			c-0.9,0-1.5,0.7-1.5,1.7C225.8,351.6,226.4,352.3,227.4,352.3z M224.9,520.5v-1.6c1.9,0,2.3-0.5,2.3-1.7h2v9.8h-2.3v-6.5H224.9
			L224.9,520.5z M230.9,527c0-3.2,1.1-4.1,2.6-5.1c1.1-0.7,2.1-1.1,2.1-2.1c0-0.8-0.5-1.1-1.1-1.1c-0.7,0-1.2,0.4-1.2,1.4H231
			c0-1.8,1.3-3.1,3.5-3.1c1.8,0,3.4,0.9,3.4,3c0,1.7-1.6,2.6-2.6,3.2c-1.3,0.9-1.7,1.2-1.7,2h4.2v1.8H230.9L230.9,527z M172,183
			c0-3.2,1.1-4.1,2.6-5.1c1.1-0.7,2.1-1.1,2.1-2.1c0-0.8-0.5-1.1-1.1-1.1c-0.7,0-1.2,0.4-1.2,1.4H172c0-1.8,1.3-3.1,3.5-3.1
			c1.8,0,3.4,0.9,3.4,3c0,1.7-1.6,2.6-2.6,3.2c-1.3,0.9-1.7,1.2-1.7,2h4.2v1.8H172L172,183z"/>
		<path class="st7" d="M431,32h62c4.4,0,8,3.6,8,8v62c0,4.4-3.6,8-8,8h-62c-4.4,0-8-3.6-8-8V40C423,35.6,426.6,32,431,32z"/>
		<path class="st7" d="M677,196h62c4.4,0,8,3.6,8,8v62c0,4.4-3.6,8-8,8h-62c-4.4,0-8-3.6-8-8v-62C669,199.6,672.6,196,677,196z"/>
		<path class="st7" d="M429,196h62c4.4,0,8,3.6,8,8v62c0,4.4-3.6,8-8,8h-62c-4.4,0-8-3.6-8-8v-62C421,199.6,424.6,196,429,196z"/>
		<path class="st7" d="M625,367h62c4.4,0,8,3.6,8,8v62c0,4.4-3.6,8-8,8h-62c-4.4,0-8-3.6-8-8v-62C617,370.6,620.6,367,625,367z"/>
		<path class="st7" d="M129,367h62c4.4,0,8,3.6,8,8v62c0,4.4-3.6,8-8,8h-62c-4.4,0-8-3.6-8-8v-62C121,370.6,124.6,367,129,367z"/>
		<path class="st7" d="M129,540h62c4.4,0,8,3.6,8,8v62c0,4.4-3.6,8-8,8h-62c-4.4,0-8-3.6-8-8v-62C121,543.6,124.6,540,129,540z"/>
		<path class="st7" d="M481,367h62c4.4,0,8,3.6,8,8v62c0,4.4-3.6,8-8,8h-62c-4.4,0-8-3.6-8-8v-62C473,370.6,476.6,367,481,367z"/>
		<path class="st7" d="M729,367h62c4.4,0,8,3.6,8,8v62c0,4.4-3.6,8-8,8h-62c-4.4,0-8-3.6-8-8v-62C721,370.6,724.6,367,729,367z"/>
		<path class="st7" d="M233,367h62c4.4,0,8,3.6,8,8v62c0,4.4-3.6,8-8,8h-62c-4.4,0-8-3.6-8-8v-62C225,370.6,228.6,367,233,367z"/>
		<path class="st7" d="M233,540h62c4.4,0,8,3.6,8,8v62c0,4.4-3.6,8-8,8h-62c-4.4,0-8-3.6-8-8v-62C225,543.6,228.6,540,233,540z"/>
		<path class="st7" d="M481,540h62c4.4,0,8,3.6,8,8v62c0,4.4-3.6,8-8,8h-62c-4.4,0-8-3.6-8-8v-62C473,543.6,476.6,540,481,540z"/>
		<path class="st7" d="M181,196h62c4.4,0,8,3.6,8,8v62c0,4.4-3.6,8-8,8h-62c-4.4,0-8-3.6-8-8v-62C173,199.6,176.6,196,181,196z"/>
		<path class="st2" d="M448,31h2v80h-2V31z M694,195h2v80h-2V195z M446,195h2v80h-2V195z M642,366h2v80h-2V366z M146,366h2v80h-2
			V366z M146,539h2v80h-2V539z M498,366h2v80h-2V366z M746,366h2v80h-2V366z M250,366h2v80h-2V366z M250,539h2v80h-2V539z M498,539
			h2v80h-2V539z M198,195h2v80h-2V195z M474,31h2v80h-2V31z M720,195h2v80h-2V195z M472,195h2v80h-2V195z M668,366h2v80h-2V366z
			 M172,366h2v80h-2V366z M172,539h2v80h-2V539z M524,366h2v80h-2V366z M772,366h2v80h-2V366z M276,366h2v80h-2V366z M276,539h2v80
			h-2V539z M524,539h2v80h-2V539z M224,195h2v80h-2V195z"/>
		<path class="st2" d="M502,57v2h-80v-2H502z M502,83v2h-80v-2H502z"/>
		<path class="st2" d="M748,221v2h-80v-2H748z M748,247v2h-80v-2H748z"/>
		<path class="st2" d="M500,221v2h-80v-2H500z M500,247v2h-80v-2H500z"/>
		<path class="st2" d="M696,392v2h-80v-2H696z M696,418v2h-80v-2H696z"/>
		<path class="st3" d="M432,385c-2.8,0-5-2.2-5-5s2.2-5,5-5s5,2.2,5,5S434.8,385,432,385z"/>
		<path class="st3" d="M406,437c-2.8,0-5-2.2-5-5s2.2-5,5-5s5,2.2,5,5S408.8,437,406,437z"/>
		<path class="st3" d="M380,437c-2.8,0-5-2.2-5-5s2.2-5,5-5s5,2.2,5,5S382.8,437,380,437z"/>
		<path class="st3" d="M380,385c-2.8,0-5-2.2-5-5s2.2-5,5-5s5,2.2,5,5S382.8,385,380,385z"/>
		<path class="st4" d="M436.2,400.2l-9.8,9.8l1.3,1.3l9.8-9.8L436.2,400.2z"/>
		<path class="st4" d="M437.5,410l-9.8-9.8l-1.3,1.3l9.8,9.8L437.5,410z"/>
		<path class="st4" d="M410.2,400.2l-9.8,9.8l1.3,1.3l9.8-9.8L410.2,400.2z"/>
		<path class="st4" d="M411.5,410l-9.8-9.8l-1.3,1.3l9.8,9.8L411.5,410z"/>
		<path class="st4" d="M384.2,400.2l-9.8,9.8l1.3,1.3l9.8-9.8L384.2,400.2z"/>
		<path class="st4" d="M385.5,410l-9.8-9.8l-1.3,1.3l9.8,9.8L385.5,410z"/>
		<path class="st4" d="M410.2,374.2l-9.8,9.8l1.3,1.3l9.8-9.8L410.2,374.2z"/>
		<path class="st4" d="M411.5,384l-9.8-9.8l-1.3,1.3l9.8,9.8L411.5,384z"/>
		<path class="st7" d="M437,367h-62c-4.4,0-8,3.6-8,8v62c0,4.4,3.6,8,8,8h62c4.4,0,8-3.6,8-8v-62C445,370.6,441.4,367,437,367z"/>
		<path class="st2" d="M420,366h-2v80h2V366z M394,366h-2v80h2V366z"/>
		<path class="st2" d="M366,392v2h80v-2H366z M366,418v2h80v-2H366z"/>
		<path class="st2" d="M200,392v2h-80v-2H200z M200,418v2h-80v-2H200z M200,565v2h-80v-2H200z M200,591v2h-80v-2H200z M552,392v2
			h-80v-2H552z M552,418v2h-80v-2H552z M800,392v2h-80v-2H800z M800,418v2h-80v-2H800z M304,565v2h-80v-2H304z M552,565v2h-80v-2
			H552z M304,591v2h-80v-2H304z M552,591v2h-80v-2H552z"/>
		<path class="st3" d="M786,558c2.8,0,5-2.2,5-5s-2.2-5-5-5s-5,2.2-5,5S783.2,558,786,558z"/>
		<path class="st3" d="M760,584c2.8,0,5-2.2,5-5s-2.2-5-5-5s-5,2.2-5,5S757.2,584,760,584z"/>
		<path class="st3" d="M760,610c2.8,0,5-2.2,5-5s-2.2-5-5-5s-5,2.2-5,5S757.2,610,760,610z"/>
		<path class="st3" d="M786,610c2.8,0,5-2.2,5-5s-2.2-5-5-5s-5,2.2-5,5S783.2,610,786,610z"/>
		<path class="st3" d="M734,558c2.8,0,5-2.2,5-5s-2.2-5-5-5s-5,2.2-5,5S731.2,558,734,558z"/>
		<path class="st4" d="M781.8,573.2l9.7,9.8l-1.3,1.3l-9.8-9.8L781.8,573.2z"/>
		<path class="st4" d="M780.5,583l9.8-9.8l1.3,1.3l-9.8,9.8L780.5,583z"/>
		<path class="st4" d="M729.8,573.2l9.7,9.8l-1.3,1.3l-9.8-9.8L729.8,573.2z"/>
		<path class="st4" d="M728.5,583l9.8-9.8l1.3,1.3l-9.8,9.8L728.5,583z"/>
		<path class="st4" d="M729.8,599.2l9.7,9.8l-1.3,1.3l-9.8-9.8L729.8,599.2z"/>
		<path class="st4" d="M728.5,609l9.8-9.8l1.3,1.3l-9.8,9.8L728.5,609z"/>
		<path class="st4" d="M755.8,547.2l9.7,9.8l-1.3,1.3l-9.8-9.8L755.8,547.2z"/>
		<path class="st4" d="M754.5,557l9.8-9.8l1.3,1.3l-9.8,9.8L754.5,557z"/>
		<path class="st7" d="M729,540h62c4.4,0,8,3.6,8,8v62c0,4.4-3.6,8-8,8h-62c-4.4,0-8-3.6-8-8v-62C721,543.6,724.6,540,729,540z"/>
		<path class="st2" d="M772,539h2v80h-2V539z M746,539h2v80h-2V539z"/>
		<path class="st2" d="M800,565v2h-80v-2H800z M800,591v2h-80v-2H800z"/>
		<path class="st2" d="M252,221v2h-80v-2H252z M252,247v2h-80v-2H252z"/>
		<path class="st8" d="M264,191l147-77"/>
		<path class="st9" d="M761,489v40 M658,191l-147-77L658,191z M461,147v40V147z M513,489v40V489z"/>
		<path class="st8" d="M175,288l-13,67 M264,489v40V489z M160,489v40V489z"/>
		<path class="st9" d="M423,288l-13,67 M671,288l-13,67"/>
		<path class="st8" d="M250,288l13,67"/>
		<g>
			<g>
				<g>
					<line class="st10" x1="746" y1="288" x2="746.1" y2="288.5"/>
					<line class="st11" x1="747.1" y1="293.6" x2="758.4" y2="352"/>
					<line class="st10" x1="758.9" y1="354.5" x2="759" y2="355"/>
				</g>
				<g>
					<polyline class="st10" points="498.1,288.5 498,288 498.1,288.5 					"/>
					<line class="st11" x1="499.1" y1="293.6" x2="510.4" y2="352"/>
					<polyline class="st10" points="510.9,354.5 511,355 510.9,354.5 					"/>
					<line class="st11" x1="509.9" y1="349.4" x2="498.6" y2="291"/>
				</g>
			</g>
		</g>
		<path class="st12" d="M624,405h64v2h-64V405z M374,405h64v2h-64V405z M127.8,545.4l67.9,67.9l-1.4,1.4l-67.9-67.9L127.8,545.4z
			 M727.8,545.4l67.9,67.9l-1.4,1.4l-67.9-67.9L727.8,545.4z M298.2,545.4l-67.9,67.9l1.4,1.4l67.9-67.9L298.2,545.4z M544.2,545.4
			l-67.9,67.9l1.4,1.4l67.9-67.9L544.2,545.4z"/>
		<path class="st3" d="M212,240c2.8,0,5-2.2,5-5s-2.2-5-5-5s-5,2.2-5,5S209.2,240,212,240z"/>
		<path class="st3" d="M734,266c2.8,0,5-2.2,5-5s-2.2-5-5-5s-5,2.2-5,5S731.2,266,734,266z"/>
		<path class="st3" d="M434,266c2.8,0,5-2.2,5-5s-2.2-5-5-5s-5,2.2-5,5S431.2,266,434,266z"/>
	</g>
</g>
</svg>
