<svg xmlns="http://www.w3.org/2000/svg" viewBox="0 0 760 360"><defs><style>.a{fill:#ca2967;}.b{fill:#bebedc;}.c{fill:#dadaee;}</style></defs><path class="a" d="M757.083,177.632l-28.269-12.026,5.3,26.435L757.2,180.352A1.507,1.507,0,0,0,757.083,177.632Z"/><ellipse class="a" cx="730.705" cy="178.731" rx="4.889" ry="13.742" transform="translate(-21.532 182.443) rotate(-14.027)"/><path class="a" d="M728.069,183.237H697.53a3.756,3.756,0,0,1,0-7.511h30.539a3.756,3.756,0,1,1,0,7.511Z"/><path d="M734.763,183.737H697.531a4.26,4.26,0,0,1-4.256-4.255.5.5,0,1,1,1,0,3.26,3.26,0,0,0,3.256,3.255h37.232a.5.5,0,0,1,0,1Z"/><path class="b" d="M701.955,302.91c0-6.7,1.59-10.811,4.057-11.743.916-.347,1.779,5.254,1.779,5.254l4.506-2.253V208.707c-5.712-6.6-10.342-21.2-10.342-32.628,0-6.961,1.719-11.134,4.355-11.839.879-.235,1.481,5.35,1.481,5.35l4.506-2.253V131.259L630.843,37.2l-4.507,2.254s3.687,5.261,3.048,6.66c-1.806,3.957-5.109,4.188-8.884-.171-5.712-6.6-10.342-21.2-10.342-32.627L599.64,1.174l-4.506,2.253,4.506,7.125V93.146c5.712,6.595,10.342,21.2,10.342,32.627s-4.63,15.338-10.342,8.743l-4.506,2.253,4.506,5.611v84.108l54.587,63.031,1.2,8.846,4.506-2.253c0-11.424,4.631-15.338,10.343-8.743s10.342,21.2,10.342,32.628l26.038,30.066,1.132,8.763,4.506-2.253V335.538C706.585,328.942,701.955,314.334,701.955,302.91ZM629.5,232.773c-5.712-6.595-10.342-21.2-10.342-32.627s4.63-15.338,10.342-8.743,10.343,21.2,10.343,32.628S635.209,239.369,629.5,232.773Zm5.611-142.2c0-11.424,4.631-15.338,10.343-8.742s10.342,21.2,10.342,32.627-4.63,15.338-10.342,8.743S635.108,101.993,635.108,90.569Zm20.861,108.989c-5.712-6.595-10.343-21.2-10.343-32.627s4.631-15.338,10.343-8.742,10.342,21.2,10.342,32.627S661.68,206.154,655.969,199.558Zm31.962,36.907c-5.712-6.595-10.343-21.2-10.343-32.627s4.631-15.338,10.343-8.743,10.342,21.2,10.342,32.628S693.643,243.061,687.931,236.465Z"/><path d="M707.79,359.326a.5.5,0,0,1-.5-.436l-1.111-8.614-25.94-29.952a.5.5,0,0,1-.122-.327c0-11.3-4.585-25.793-10.22-32.3-2.11-2.435-4.136-3.45-5.72-2.864-2.345.874-3.745,5.091-3.745,11.28a.5.5,0,0,1-.276.447l-4.506,2.253a.5.5,0,0,1-.719-.38l-1.184-8.7-54.489-62.919a.5.5,0,0,1-.122-.327V142.556l-4.4-5.474a.5.5,0,0,1,.166-.761l4.506-2.253a.5.5,0,0,1,.6.121c2.11,2.436,4.14,3.453,5.72,2.864,2.344-.874,3.745-5.091,3.745-11.28,0-11.3-4.585-25.792-10.221-32.3a.5.5,0,0,1-.122-.327V10.7l-4.43-7a.5.5,0,0,1,.2-.714L599.416.726a.5.5,0,0,1,.6.12l10.518,12.145a.5.5,0,0,1,.122.327c0,11.3,4.585,25.793,10.22,32.3,1.888,2.179,3.664,3.219,5.176,3,1.448-.208,2.363-1.59,2.875-2.713.311-.681-1.3-3.738-3-6.165a.5.5,0,0,1,.186-.735l4.506-2.253a.5.5,0,0,1,.6.12l81.455,94.056a.5.5,0,0,1,.122.327v36.078a.5.5,0,0,1-.276.447l-4.507,2.253a.5.5,0,0,1-.721-.393,18.435,18.435,0,0,0-1.013-4.873c-2.4.8-3.825,5-3.825,11.308,0,11.3,4.584,25.793,10.22,32.3a.5.5,0,0,1,.122.328v85.461a.5.5,0,0,1-.276.447l-4.507,2.253a.5.5,0,0,1-.718-.371,17.41,17.41,0,0,0-1.255-4.8c-2.249,1-3.586,5.17-3.586,11.215,0,11.3,4.584,25.793,10.22,32.3a.5.5,0,0,1,.122.327v21.035a.5.5,0,0,1-.276.448l-4.507,2.253A.5.5,0,0,1,707.79,359.326ZM681.121,319.81l25.917,29.926a.5.5,0,0,1,.118.263l1.041,8.066,3.6-1.8V335.723c-5.714-6.73-10.342-21.386-10.342-32.813,0-6.708,1.6-11.158,4.38-12.211a.74.74,0,0,1,.646.06c.813.474,1.4,3.22,1.693,4.911l3.623-1.812V208.892c-5.714-6.729-10.342-21.386-10.342-32.813,0-7.027,1.722-11.519,4.726-12.322a.729.729,0,0,1,.6.111c.738.507,1.185,3.074,1.419,4.956l3.592-1.8V131.445L630.718,37.824l-3.643,1.823c1.122,1.656,3.4,5.293,2.764,6.677-.884,1.935-2.143,3.073-3.643,3.288-1.852.266-3.952-.889-6.074-3.339-5.739-6.627-10.414-21.287-10.464-32.768L599.516,1.8l-3.665,1.832,4.212,6.658a.492.492,0,0,1,.077.267V92.961c5.714,6.729,10.343,21.385,10.343,32.812,0,6.723-1.6,11.176-4.4,12.217-1.369.514-3.613.417-6.566-2.855l-3.608,1.8,4.118,5.128a.5.5,0,0,1,.11.313V226.3l54.465,62.891a.5.5,0,0,1,.117.26l1.109,8.153,3.606-1.8c.049-6.549,1.644-10.882,4.395-11.907,1.411-.526,3.745-.409,6.825,3.147C676.4,293.668,681.07,308.328,681.121,319.81Zm11.965-79.639c-1.389,0-3.256-.75-5.533-3.378-5.77-6.664-10.465-21.447-10.465-32.955,0-6.723,1.6-11.176,4.4-12.217,1.411-.526,3.745-.409,6.824,3.147,5.771,6.663,10.465,21.446,10.465,32.955,0,6.722-1.6,11.176-4.4,12.217A3.654,3.654,0,0,1,693.086,240.171ZM682.755,192.4a2.625,2.625,0,0,0-.922.163c-2.344.874-3.745,5.091-3.745,11.28,0,11.3,4.585,25.792,10.221,32.3,2.11,2.437,4.142,3.453,5.72,2.865,2.344-.874,3.745-5.091,3.745-11.28,0-11.3-4.585-25.793-10.221-32.3C685.834,193.438,684.167,192.4,682.755,192.4Zm-48.1,44.084c-1.39,0-3.257-.75-5.533-3.379-5.771-6.663-10.465-21.446-10.465-32.954,0-6.723,1.6-11.176,4.4-12.217,1.412-.527,3.743-.41,6.824,3.147,5.771,6.663,10.465,21.447,10.465,32.955,0,6.723-1.6,11.175-4.4,12.217A3.681,3.681,0,0,1,634.653,236.479ZM624.322,188.7a2.621,2.621,0,0,0-.922.163c-2.345.874-3.745,5.091-3.745,11.28,0,11.3,4.585,25.792,10.22,32.3,2.111,2.436,4.141,3.454,5.72,2.865,2.345-.875,3.745-5.091,3.745-11.28,0-11.3-4.585-25.793-10.22-32.3C627.4,189.746,625.734,188.7,624.322,188.7Zm36.8,14.561c-1.39,0-3.257-.75-5.533-3.378-5.769-6.662-10.464-21.446-10.464-32.955,0-6.722,1.6-11.176,4.4-12.217,1.417-.527,3.745-.407,6.824,3.147,5.771,6.663,10.465,21.446,10.465,32.955,0,6.722-1.6,11.175-4.4,12.217A3.654,3.654,0,0,1,661.123,203.264Zm-4.777-4.032c2.11,2.436,4.14,3.455,5.72,2.864,2.345-.874,3.745-5.092,3.745-11.28,0-11.3-4.585-25.793-10.221-32.3-2.109-2.436-4.14-3.45-5.718-2.865-2.345.874-3.746,5.091-3.746,11.28,0,11.3,4.585,25.793,10.22,32.3Zm-5.74-72.33c-1.391,0-3.258-.75-5.533-3.378-5.77-6.662-10.464-21.446-10.464-32.955,0-6.722,1.6-11.175,4.395-12.217,1.417-.527,3.745-.407,6.825,3.148,5.77,6.663,10.464,21.446,10.464,32.954,0,6.722-1.6,11.175-4.4,12.217A3.659,3.659,0,0,1,650.606,126.9ZM640.275,79.126a2.616,2.616,0,0,0-.921.163c-2.345.874-3.745,5.091-3.745,11.28,0,11.3,4.585,25.793,10.22,32.3,2.11,2.436,4.14,3.455,5.719,2.864,2.345-.874,3.745-5.091,3.745-11.28,0-11.3-4.585-25.792-10.22-32.3C643.354,80.17,641.687,79.126,640.275,79.126Z"/><path class="c" d="M697.448,305.163c0-11.424,4.631-15.338,10.343-8.742V210.96c-5.712-6.6-10.343-21.2-10.343-32.627s4.631-15.339,10.343-8.743V133.512L626.336,39.457c0,11.424-4.63,15.338-10.342,8.742S605.651,27,605.651,15.572L595.134,3.427V95.4c5.712,6.6,10.342,21.2,10.342,32.627s-4.63,15.339-10.342,8.743v91.972l60.3,69.624c0-11.424,4.63-15.338,10.342-8.742s10.343,21.2,10.343,32.627l31.676,36.576V337.791C702.079,331.2,697.448,316.587,697.448,305.163Zm-72.457-70.137c-5.712-6.595-10.342-21.2-10.342-32.627s4.63-15.338,10.342-8.743,10.342,21.2,10.342,32.628S630.7,241.622,624.991,235.026Zm5.611-142.2c0-11.424,4.631-15.338,10.343-8.742s10.342,21.2,10.342,32.627-4.631,15.338-10.342,8.743S630.6,104.246,630.6,92.822Zm20.86,108.99c-5.712-6.6-10.342-21.2-10.342-32.628s4.63-15.338,10.342-8.742,10.343,21.2,10.343,32.627S657.174,208.407,651.462,201.812Zm31.963,36.907c-5.712-6.6-10.343-21.2-10.343-32.628s4.631-15.338,10.343-8.742,10.342,21.2,10.342,32.627S689.137,245.314,683.425,238.719Z"/><path d="M707.79,359.326a.5.5,0,0,1-.377-.173l-31.676-36.576a.5.5,0,0,1-.122-.327c0-11.3-4.585-25.792-10.221-32.3-2.11-2.436-4.145-3.452-5.719-2.865-2.345.874-3.745,5.091-3.745,11.28a.5.5,0,0,1-.878.327l-60.3-69.624a.5.5,0,0,1-.122-.327V136.769a.5.5,0,0,1,.878-.327c2.111,2.435,4.143,3.454,5.72,2.864,2.345-.874,3.745-5.091,3.745-11.28,0-11.3-4.585-25.793-10.221-32.3a.5.5,0,0,1-.122-.327V3.427a.5.5,0,0,1,.878-.327L606.03,15.245a.5.5,0,0,1,.122.327c0,11.3,4.585,25.793,10.22,32.3,2.11,2.437,4.14,3.453,5.719,2.865,2.345-.875,3.745-5.091,3.745-11.28a.5.5,0,0,1,.878-.328l81.454,94.056a.5.5,0,0,1,.122.327V169.59a.5.5,0,0,1-.877.327c-2.11-2.435-4.14-3.45-5.719-2.865-2.345.875-3.745,5.092-3.745,11.281,0,11.3,4.585,25.793,10.219,32.3a.5.5,0,0,1,.122.327v85.461a.5.5,0,0,1-.877.327c-2.11-2.435-4.14-3.451-5.719-2.865-2.345.874-3.745,5.091-3.745,11.28,0,11.3,4.585,25.793,10.219,32.3a.5.5,0,0,1,.122.328v21.035a.5.5,0,0,1-.5.5Zm-31.175-37.263,30.675,35.422V337.976c-5.713-6.729-10.341-21.386-10.341-32.813,0-6.722,1.6-11.175,4.4-12.217,1.278-.476,3.3-.424,5.946,2.2v-84c-5.713-6.729-10.341-21.385-10.341-32.812,0-6.723,1.6-11.176,4.4-12.218,1.278-.475,3.3-.424,5.946,2.2V133.7L626.815,40.773c-.2,5.986-1.768,9.929-4.375,10.9-1.411.525-3.745.409-6.824-3.148C609.877,41.9,605.2,27.24,605.152,15.759L595.633,4.768V95.214c5.714,6.728,10.343,21.385,10.343,32.812,0,6.723-1.6,11.176-4.4,12.217-1.278.478-3.3.424-5.947-2.2v90.516l59.319,68.493c.2-5.986,1.767-9.928,4.374-10.9,1.418-.527,3.746-.408,6.824,3.148C671.889,295.922,676.564,310.583,676.615,322.063Zm11.965-79.639c-1.39,0-3.257-.75-5.534-3.378-5.769-6.663-10.464-21.446-10.464-32.955,0-6.723,1.6-11.175,4.4-12.217,1.417-.528,3.745-.407,6.824,3.148,5.771,6.663,10.465,21.446,10.465,32.954,0,6.722-1.6,11.175-4.4,12.217A3.663,3.663,0,0,1,688.58,242.424Zm-10.332-47.776a2.61,2.61,0,0,0-.92.163c-2.345.874-3.746,5.091-3.746,11.28,0,11.3,4.585,25.793,10.22,32.3,2.11,2.436,4.139,3.452,5.72,2.865,2.345-.875,3.745-5.091,3.745-11.28,0-11.3-4.585-25.792-10.221-32.3C681.328,195.692,679.661,194.648,678.248,194.648Zm-48.1,44.084c-1.39,0-3.258-.75-5.533-3.378-5.77-6.662-10.464-21.446-10.464-32.955,0-6.723,1.6-11.176,4.395-12.217,1.418-.526,3.746-.407,6.825,3.147,5.77,6.663,10.464,21.446,10.464,32.955,0,6.722-1.6,11.176-4.4,12.217A3.659,3.659,0,0,1,630.146,238.732Zm-10.331-47.776a2.616,2.616,0,0,0-.921.163c-2.345.874-3.745,5.091-3.745,11.28,0,11.3,4.585,25.793,10.22,32.3,2.11,2.436,4.142,3.453,5.719,2.865,2.345-.874,3.745-5.091,3.745-11.28,0-11.3-4.585-25.793-10.22-32.3C622.894,192,621.227,190.956,619.815,190.956Zm36.8,14.561c-1.39,0-3.257-.75-5.534-3.378-5.77-6.663-10.464-21.447-10.464-32.955,0-6.722,1.6-11.176,4.4-12.217,1.41-.526,3.745-.409,6.824,3.147,5.771,6.663,10.465,21.447,10.465,32.955,0,6.723-1.6,11.176-4.4,12.217A3.663,3.663,0,0,1,656.618,205.517Zm-10.331-47.776a2.621,2.621,0,0,0-.922.163c-2.345.874-3.745,5.091-3.745,11.28,0,11.3,4.585,25.793,10.22,32.3,2.111,2.437,4.141,3.455,5.72,2.865,2.345-.874,3.745-5.091,3.745-11.28,0-11.3-4.585-25.793-10.221-32.3C649.366,158.784,647.7,157.741,646.287,157.741Zm-.187-28.586c-1.391,0-3.257-.75-5.533-3.378C634.8,119.114,630.1,104.331,630.1,92.822c0-6.722,1.6-11.175,4.4-12.216,1.412-.528,3.746-.41,6.825,3.147,5.769,6.662,10.464,21.445,10.464,32.954,0,6.723-1.6,11.176-4.4,12.217A3.667,3.667,0,0,1,646.1,129.155ZM635.769,81.379a2.6,2.6,0,0,0-.922.164c-2.345.874-3.745,5.09-3.745,11.279,0,11.3,4.585,25.793,10.221,32.3,2.11,2.436,4.147,3.454,5.718,2.864,2.345-.874,3.746-5.091,3.746-11.28,0-11.3-4.585-25.793-10.22-32.3C638.848,82.422,637.181,81.379,635.769,81.379Z"/><path d="M605.652,16.072a.5.5,0,0,1-.224-.947l4.506-2.254a.5.5,0,0,1,.447.895l-4.506,2.253A.494.494,0,0,1,605.652,16.072Z"/><path d="M707.79,134.012a.5.5,0,0,1-.223-.947l4.507-2.253a.5.5,0,1,1,.447.894l-4.507,2.254A.51.51,0,0,1,707.79,134.012Z"/><path d="M655.43,298.365l4.506-2.253c.029-3.984.457-7.067,1.767-9.525C656.82,285.22,655.365,292.746,655.43,298.365Z"/><path d="M697.421,305.155l4.506-2.253c.029-3.984.457-7.067,1.766-9.525C698.811,292.01,697.355,299.536,697.421,305.155Z"/><path d="M641.122,169.178l4.506-2.253c.029-3.983.457-7.067,1.767-9.524C642.512,156.033,641.057,163.56,641.122,169.178Z"/><path d="M614.651,202.393l4.506-2.253c.029-3.984.457-7.067,1.766-9.525C616.041,189.248,614.585,196.774,614.651,202.393Z"/><path d="M673.084,206.088l4.507-2.253c.028-3.984.457-7.067,1.766-9.525C674.474,192.943,673.019,200.469,673.084,206.088Z"/><path d="M697.431,178.335l4.506-2.253c.029-3.984.457-7.068,1.767-9.525C698.821,165.19,697.366,172.716,697.431,178.335Z"/><path d="M630.6,92.817l4.506-2.254c.029-3.983.458-7.067,1.767-9.524C631.994,79.672,630.539,87.2,630.6,92.817Z"/><path d="M707.79,211.46a.5.5,0,0,1-.223-.947l4.507-2.254a.5.5,0,0,1,.447.9l-4.507,2.253A.5.5,0,0,1,707.79,211.46Z"/><path d="M707.79,338.291a.5.5,0,0,1-.223-.948l4.507-2.253a.5.5,0,1,1,.447.9l-4.507,2.253A.5.5,0,0,1,707.79,338.291Z"/><ellipse class="a" cx="685.153" cy="278.577" rx="2.823" ry="7.934" transform="translate(-47.092 174.379) rotate(-14.027)"/><path class="a" d="M687.953,292.059c-.813,0-1.89-.428-3.178-1.916-3.166-3.656-5.742-11.755-5.742-18.055,0-3.809.9-6.242,2.537-6.853.841-.312,2.2-.256,3.961,1.775,3.166,3.656,5.741,11.755,5.741,18.056,0,3.809-.9,6.242-2.537,6.852A2.217,2.217,0,0,1,687.953,292.059ZM682.345,266.1a1.239,1.239,0,0,0-.426.074c-.912.341-1.886,2.073-1.886,5.916,0,6.094,2.466,13.9,5.5,17.4h0c1.079,1.245,2.088,1.776,2.855,1.492.911-.34,1.886-2.072,1.886-5.915,0-6.095-2.466-13.9-5.5-17.4A3.7,3.7,0,0,0,682.345,266.1Z"/><path class="a" d="M660.843,183.237H557.8a3.756,3.756,0,1,1,0-7.511H659.018C659.553,177.581,660.421,181.127,660.843,183.237Z"/><path d="M661.454,183.737H557.8a4.261,4.261,0,0,1-4.255-4.255h1a3.259,3.259,0,0,0,3.255,3.255H660.229c-.437-2.058-1.194-5.147-1.691-6.872l.96-.277c.564,1.958,1.421,5.486,1.835,7.551Z"/><path class="a" d="M683.189,282.332H565.428a3.766,3.766,0,0,1,0-7.51H683.189c1.922,0,2.73,1.681,2.73,3.755S685.111,282.332,683.189,282.332Z"/><path d="M685.918,282.832H565.428a4.13,4.13,0,0,1-3.981-4.255.5.5,0,0,1,1,0,3.131,3.131,0,0,0,2.981,3.255h120.49a.5.5,0,0,1,0,1Z"/><path class="b" d="M572.6,208.707c-5.712-6.6-10.342-21.2-10.342-32.628,0-6.944,1.711-11.114,4.336-11.834.875-.24,1.5,5.345,1.5,5.345l4.506-2.253h0V131.259l-10.991-12.692-4.506,2.254s3.784,4.864,3.228,6.24c-1.761,4.355-5.16,4.758-9.064.249-5.712-6.6-10.343-21.2-10.343-32.627L459.945,1.174l-4.506,2.253,4.506,9.11V91.466c5.712,6.6,10.343,21.2,10.343,32.627s-4.631,15.338-10.343,8.742l-4.506,2.254,4.506,6.266v85.133l12.9,14.894.125,7.6,4.506-2.253c0-11.425,4.63-15.339,10.342-8.743s10.343,21.2,10.343,32.627l17.106,19.753.469,8,4.506-2.253c0-11.424,4.631-15.338,10.343-8.743s10.342,21.2,10.342,32.628l26.253,30.314.917,8.515,4.506-2.253V208.707Zm-74.71-94.591c-5.712-6.6-10.343-21.2-10.343-32.627s4.631-15.338,10.343-8.743,10.342,21.2,10.342,32.628S503.6,120.712,497.892,114.116Zm18.382,85.442c-5.712-6.595-10.343-21.2-10.343-32.627s4.631-15.338,10.343-8.742,10.342,21.2,10.342,32.627S521.986,206.154,516.274,199.558Zm21.62,4.28c0-11.424,4.63-15.338,10.342-8.743s10.343,21.2,10.343,32.628-4.631,15.338-10.343,8.742S537.894,215.262,537.894,203.838Zm10.488,93.171c-5.712-6.6-10.342-21.2-10.342-32.628s4.63-15.338,10.342-8.742,10.343,21.2,10.343,32.627S554.094,303.6,548.382,297.009Z"/><path d="M568.1,359.326a.491.491,0,0,1-.239-.061.5.5,0,0,1-.258-.385l-.9-8.36-26.15-30.2a.5.5,0,0,1-.122-.327c0-11.3-4.585-25.793-10.221-32.3-2.109-2.435-4.142-3.453-5.718-2.864-2.345.874-3.745,5.091-3.745,11.28a.5.5,0,0,1-.277.447l-4.507,2.253a.5.5,0,0,1-.722-.418l-.459-7.828-17-19.624a.5.5,0,0,1-.122-.328c0-11.3-4.585-25.793-10.221-32.3-2.109-2.435-4.142-3.452-5.719-2.865-2.345.874-3.745,5.092-3.745,11.281a.5.5,0,0,1-.276.447l-4.507,2.253a.5.5,0,0,1-.724-.439l-.122-7.419-12.779-14.757a.5.5,0,0,1-.122-.327V141.516l-4.412-6.136a.5.5,0,0,1,.182-.739l4.506-2.253a.5.5,0,0,1,.6.12c2.109,2.436,4.144,3.455,5.719,2.865,2.345-.874,3.746-5.091,3.746-11.28,0-11.3-4.585-25.794-10.221-32.3a.5.5,0,0,1-.122-.328V12.654l-4.454-9a.5.5,0,0,1,.224-.669L459.721.727a.5.5,0,0,1,.6.12L541.3,94.356a.5.5,0,0,1,.122.327c0,11.3,4.585,25.792,10.221,32.3,1.914,2.209,3.73,3.241,5.232,3,1.538-.256,2.475-1.829,2.99-3.1.268-.663-1.416-3.507-3.159-5.746a.5.5,0,0,1,.171-.755l4.506-2.253a.5.5,0,0,1,.6.12l10.991,12.692a.5.5,0,0,1,.122.327v36.078a.5.5,0,0,1-.276.447l-4.506,2.253a.5.5,0,0,1-.721-.391,18.61,18.61,0,0,0-1.031-4.869c-2.388.818-3.808,5.016-3.808,11.3,0,11.3,4.585,25.794,10.22,32.3a.5.5,0,0,1,.122.328V356.573a.5.5,0,0,1-.276.448l-4.506,2.253A.507.507,0,0,1,568.1,359.326Zm-26.67-39.516,26.13,30.173a.507.507,0,0,1,.119.274l.841,7.8,3.586-1.793V208.892c-5.714-6.729-10.342-21.385-10.342-32.813,0-7.007,1.715-11.5,4.7-12.316a.724.724,0,0,1,.6.107c.739.5,1.2,3.072,1.439,4.955l3.594-1.8V131.445l-10.615-12.256L557.87,121c1.167,1.556,3.475,4.893,2.926,6.252-.876,2.168-2.174,3.452-3.753,3.715-1.871.315-4-.84-6.152-3.327-5.739-6.627-10.414-21.287-10.465-32.767L459.821,1.8l-3.713,1.856,4.285,8.665a.5.5,0,0,1,.052.221V91.28c5.714,6.729,10.343,21.385,10.343,32.813,0,6.723-1.6,11.176-4.4,12.217-1.378.512-3.616.414-6.567-2.855l-3.637,1.818,4.163,5.79a.5.5,0,0,1,.094.292V226.3l12.776,14.754a.5.5,0,0,1,.122.319l.112,6.806,3.521-1.76c.049-6.55,1.645-10.882,4.395-11.908,1.417-.527,3.746-.406,6.824,3.148,5.739,6.625,10.414,21.285,10.465,32.767l16.984,19.613a.5.5,0,0,1,.121.3l.425,7.241,3.553-1.777c.048-6.549,1.644-10.881,4.394-11.907,1.417-.528,3.747-.407,6.824,3.147C536.7,293.669,541.375,308.329,541.426,319.81Zm12.112-19.1c-1.391,0-3.258-.75-5.534-3.378h0c-5.77-6.663-10.465-21.447-10.465-32.955,0-6.722,1.6-11.175,4.4-12.217,1.41-.526,3.745-.41,6.824,3.148,5.771,6.663,10.465,21.446,10.465,32.954,0,6.723-1.6,11.176-4.4,12.217A3.663,3.663,0,0,1,553.538,300.714Zm-4.778-4.032c2.11,2.436,4.139,3.454,5.72,2.864,2.345-.874,3.745-5.091,3.745-11.28,0-11.3-4.585-25.792-10.221-32.3-2.109-2.436-4.135-3.451-5.719-2.865-2.345.875-3.746,5.091-3.746,11.28C538.539,275.684,543.124,290.174,548.76,296.682Zm4.631-56.511c-1.39,0-3.257-.75-5.533-3.378-5.77-6.663-10.464-21.446-10.464-32.955,0-6.723,1.6-11.175,4.395-12.217,1.417-.527,3.748-.407,6.825,3.147,5.77,6.663,10.465,21.446,10.465,32.955,0,6.722-1.6,11.176-4.4,12.217A3.659,3.659,0,0,1,553.391,240.171ZM543.06,192.4a2.616,2.616,0,0,0-.921.163c-2.345.874-3.745,5.091-3.745,11.28,0,11.3,4.585,25.793,10.22,32.3,2.109,2.437,4.142,3.453,5.719,2.865,2.345-.874,3.746-5.091,3.746-11.28,0-11.3-4.585-25.793-10.221-32.3C546.139,193.438,544.472,192.4,543.06,192.4Zm-21.631,10.869c-1.39,0-3.258-.75-5.533-3.378-5.771-6.663-10.465-21.446-10.465-32.955,0-6.722,1.6-11.176,4.4-12.217,1.412-.525,3.743-.41,6.824,3.147,5.77,6.664,10.465,21.447,10.465,32.955,0,6.723-1.6,11.176-4.4,12.217A3.659,3.659,0,0,1,521.429,203.264ZM511.1,155.488a2.625,2.625,0,0,0-.922.163c-2.345.874-3.745,5.091-3.745,11.28,0,11.3,4.585,25.793,10.221,32.3,2.11,2.436,4.139,3.452,5.72,2.864,2.344-.874,3.745-5.091,3.745-11.28,0-11.3-4.585-25.792-10.221-32.3C514.177,156.531,512.51,155.488,511.1,155.488Zm-8.051-37.667c-1.389,0-3.257-.75-5.533-3.378h0c-5.77-6.663-10.465-21.446-10.465-32.955,0-6.722,1.6-11.175,4.4-12.216,1.411-.526,3.744-.411,6.824,3.147,5.77,6.663,10.465,21.446,10.465,32.955,0,6.722-1.6,11.175-4.4,12.216A3.654,3.654,0,0,1,503.047,117.821ZM492.716,70.046a2.625,2.625,0,0,0-.922.163c-2.344.874-3.745,5.09-3.745,11.279,0,11.3,4.585,25.793,10.221,32.3h0c2.11,2.437,4.142,3.452,5.72,2.864,2.344-.874,3.745-5.09,3.745-11.279,0-11.3-4.585-25.793-10.221-32.3C495.8,71.088,494.128,70.046,492.716,70.046Z"/><path class="c" d="M568.1,210.96c-5.712-6.595-10.343-21.2-10.343-32.627S562.384,163,568.1,169.59h0V133.512l-10.991-12.691c0,11.424-4.631,15.338-10.343,8.742s-10.342-21.2-10.342-32.627L455.439,3.427V93.719c5.712,6.595,10.342,21.2,10.342,32.627s-4.63,15.338-10.342,8.743v93.652l17.53,20.242c0-11.424,4.63-15.338,10.342-8.743s10.342,21.2,10.342,32.628l22.082,25.5c0-11.424,4.63-15.338,10.342-8.742s10.343,21.2,10.343,32.627L568.1,358.826V210.96Zm-74.71-94.591c-5.712-6.595-10.343-21.2-10.343-32.627S487.674,68.4,493.386,75s10.342,21.2,10.342,32.628S499.1,122.965,493.386,116.369Zm18.381,85.443c-5.712-6.6-10.342-21.2-10.342-32.628s4.63-15.338,10.342-8.742,10.343,21.2,10.343,32.627S517.479,208.407,511.767,201.812Zm21.62,4.279c0-11.424,4.631-15.338,10.343-8.742s10.342,21.2,10.342,32.627-4.63,15.338-10.342,8.743S533.387,217.515,533.387,206.091Zm10.489,93.171c-5.712-6.6-10.343-21.2-10.343-32.628s4.631-15.338,10.343-8.742,10.342,21.2,10.342,32.627S549.588,305.857,543.876,299.262Z"/><path d="M568.1,359.326a.5.5,0,0,1-.378-.173l-31.676-36.576a.5.5,0,0,1-.122-.327c0-11.3-4.585-25.792-10.22-32.3-2.11-2.436-4.139-3.452-5.72-2.865-2.345.875-3.745,5.091-3.745,11.28a.5.5,0,0,1-.878.327l-22.081-25.5a.5.5,0,0,1-.122-.327c0-11.3-4.585-25.793-10.221-32.3-2.109-2.435-4.138-3.45-5.72-2.864-2.344.874-3.745,5.091-3.745,11.28a.5.5,0,0,1-.878.327l-17.529-20.242a.5.5,0,0,1-.122-.327V135.088a.5.5,0,0,1,.878-.327c2.11,2.436,4.139,3.452,5.72,2.865,2.344-.874,3.745-5.091,3.745-11.28,0-11.3-4.585-25.792-10.221-32.3a.5.5,0,0,1-.122-.327V3.427a.5.5,0,0,1,.878-.327L536.8,96.608a.5.5,0,0,1,.122.328c0,11.3,4.585,25.793,10.22,32.3,2.11,2.436,4.142,3.453,5.72,2.865,2.345-.875,3.745-5.092,3.745-11.281a.5.5,0,0,1,.878-.327l10.991,12.692a.5.5,0,0,1,.122.327V169.59a.5.5,0,0,1-.878.327c-2.109-2.435-4.139-3.453-5.72-2.864-2.344.874-3.745,5.091-3.745,11.28,0,11.3,4.585,25.792,10.221,32.3a.5.5,0,0,1,.122.327V358.826a.5.5,0,0,1-.5.5ZM536.92,322.063,567.6,357.485V211.145c-5.714-6.729-10.343-21.386-10.343-32.812,0-6.723,1.6-11.176,4.4-12.217,1.271-.477,3.3-.426,5.946,2.2V133.7l-10.013-11.562c-.2,5.986-1.767,9.929-4.375,10.9-1.411.527-3.744.409-6.824-3.148-5.738-6.626-10.413-21.286-10.464-32.767L455.939,4.768V93.534c5.714,6.729,10.343,21.386,10.343,32.812,0,6.722-1.6,11.176-4.4,12.217-1.272.476-3.3.426-5.946-2.2v92.2l16.551,19.111c.2-5.985,1.767-9.929,4.375-10.9,1.411-.527,3.744-.41,6.824,3.147,5.739,6.627,10.414,21.287,10.465,32.768l21.1,24.367c.2-5.985,1.768-9.928,4.375-10.9,1.41-.526,3.744-.41,6.824,3.148C532.2,295.922,536.87,310.583,536.92,322.063Zm12.111-19.1c-1.39,0-3.257-.75-5.533-3.378-5.77-6.662-10.464-21.445-10.464-32.955,0-6.722,1.6-11.175,4.395-12.216,1.415-.527,3.745-.41,6.825,3.147,5.77,6.663,10.464,21.446,10.464,32.954,0,6.723-1.6,11.176-4.4,12.217A3.659,3.659,0,0,1,549.031,302.967ZM538.7,255.192a2.6,2.6,0,0,0-.922.163c-2.345.874-3.745,5.09-3.745,11.279,0,11.3,4.585,25.794,10.22,32.3h0c2.111,2.436,4.14,3.453,5.719,2.864,2.345-.874,3.745-5.091,3.745-11.28,0-11.3-4.585-25.792-10.22-32.3C541.78,256.234,540.113,255.192,538.7,255.192Zm10.184-12.768c-1.389,0-3.257-.75-5.533-3.378-5.771-6.663-10.465-21.446-10.465-32.955,0-6.722,1.6-11.175,4.4-12.217,1.411-.526,3.745-.41,6.824,3.148,5.77,6.663,10.465,21.446,10.465,32.954,0,6.722-1.6,11.175-4.4,12.217A3.659,3.659,0,0,1,548.885,242.424Zm-10.331-47.776a2.625,2.625,0,0,0-.922.163c-2.344.875-3.745,5.091-3.745,11.28,0,11.3,4.585,25.793,10.221,32.3,2.11,2.436,4.139,3.452,5.72,2.865,2.344-.875,3.745-5.091,3.745-11.28,0-11.3-4.585-25.792-10.221-32.3C541.633,195.692,539.966,194.648,538.554,194.648Zm-21.631,10.869c-1.39,0-3.258-.75-5.534-3.378h0c-5.769-6.662-10.464-21.446-10.464-32.955,0-6.722,1.6-11.176,4.4-12.217,1.417-.526,3.746-.407,6.824,3.147,5.77,6.662,10.465,21.446,10.465,32.955,0,6.723-1.6,11.176-4.4,12.217A3.663,3.663,0,0,1,516.923,205.517Zm-4.778-4.033c2.11,2.437,4.145,3.454,5.72,2.865,2.344-.874,3.745-5.091,3.745-11.28,0-11.3-4.585-25.794-10.221-32.3-2.109-2.436-4.141-3.451-5.719-2.865-2.344.874-3.745,5.091-3.745,11.28,0,11.3,4.585,25.793,10.22,32.3Zm-13.6-81.409c-1.39,0-3.257-.75-5.534-3.379h0c-5.769-6.662-10.464-21.445-10.464-32.954,0-6.723,1.6-11.176,4.4-12.217,1.418-.528,3.746-.408,6.824,3.147,5.771,6.662,10.465,21.445,10.465,32.955,0,6.722-1.6,11.175-4.4,12.217A3.663,3.663,0,0,1,498.541,120.075Zm-4.778-4.033c2.11,2.436,4.145,3.455,5.72,2.865,2.345-.875,3.745-5.091,3.745-11.28,0-11.3-4.585-25.794-10.221-32.3-2.109-2.435-4.141-3.45-5.718-2.864-2.345.874-3.746,5.091-3.746,11.28,0,11.3,4.585,25.793,10.22,32.3Z"/><path d="M568.1,134.012a.5.5,0,0,1-.224-.947l4.506-2.253a.5.5,0,0,1,.448.894l-4.506,2.254A.513.513,0,0,1,568.1,134.012Z"/><path d="M568.1,211.46a.5.5,0,0,1-.224-.947l4.506-2.254a.5.5,0,0,1,.448.9l-4.506,2.253A.5.5,0,0,1,568.1,211.46Z"/><path d="M483.045,83.736l4.506-2.253c.029-3.984.458-7.067,1.767-9.525C484.435,70.591,482.98,78.117,483.045,83.736Z"/><path d="M533.389,206.088l4.507-2.253c.028-3.984.457-7.067,1.766-9.525C534.779,192.943,533.324,200.469,533.389,206.088Z"/><path d="M533.535,266.629l4.507-2.254c.028-3.983.457-7.067,1.766-9.524C534.925,253.484,533.47,261.01,533.535,266.629Z"/><path d="M473,248.946l4.507-2.253c.028-3.983.457-7.067,1.766-9.524C474.392,235.8,472.937,243.328,473,248.946Z"/><path d="M515.749,298.328l4.507-2.253c.028-3.984.457-7.067,1.766-9.525C517.139,285.183,515.684,292.709,515.749,298.328Z"/><path d="M501.427,169.178l4.506-2.253c.029-3.983.458-7.067,1.767-9.524C502.817,156.033,501.362,163.56,501.427,169.178Z"/><path d="M557.726,178.338l4.506-2.253c.029-3.984.457-7.067,1.767-9.524C559.116,165.193,557.661,172.719,557.726,178.338Z"/><path d="M536.42,97.436a.5.5,0,0,1-.223-.948l4.506-2.253a.5.5,0,0,1,.447.895l-4.506,2.253A.5.5,0,0,1,536.42,97.436Z"/><path class="a" d="M553.553,282.332H425.413a3.755,3.755,0,0,1,0-7.51H551.925C552.512,277.1,553.037,279.464,553.553,282.332Z"/><path d="M554.151,282.832H425.414a4.26,4.26,0,0,1-4.255-4.255.5.5,0,0,1,1,0,3.258,3.258,0,0,0,3.255,3.255h127.54c-.456-2.461-.94-4.664-1.513-6.885a.5.5,0,0,1,.969-.25c.625,2.421,1.144,4.819,1.635,7.546Z"/><path class="a" d="M521.167,183.237H410.406a3.756,3.756,0,0,1,0-7.511H519.354A57.645,57.645,0,0,1,521.167,183.237Z"/><path d="M521.75,183.737H410.407a4.26,4.26,0,0,1-4.256-4.255.5.5,0,0,1,1,0,3.26,3.26,0,0,0,3.256,3.255H520.579a52.1,52.1,0,0,0-1.425-5.884l-.282-.991a.5.5,0,0,1,.963-.271l.281.988a50.294,50.294,0,0,1,1.545,6.581Z"/><ellipse class="a" cx="476.062" cy="203.904" rx="2.823" ry="7.934" transform="translate(-35.227 121.471) rotate(-14.027)"/><path class="a" d="M478.862,217.385c-.813,0-1.89-.427-3.178-1.915h0c-3.166-3.656-5.742-11.756-5.742-18.055,0-3.809.9-6.243,2.537-6.852.837-.311,2.2-.257,3.961,1.774,3.166,3.656,5.742,11.756,5.742,18.056,0,3.808-.9,6.242-2.537,6.852A2.242,2.242,0,0,1,478.862,217.385Zm-2.422-2.569c1.079,1.247,2.09,1.775,2.855,1.492.912-.34,1.887-2.073,1.887-5.915,0-6.095-2.467-13.9-5.5-17.4-1.079-1.246-2.09-1.777-2.855-1.491-.913.339-1.887,2.072-1.887,5.915,0,6.094,2.467,13.9,5.5,17.4Z"/><path class="a" d="M474.888,207.231h-50.6a3.755,3.755,0,1,1,0-7.51h50.6c2.074,0,3,1.681,3,3.755S476.962,207.231,474.888,207.231Z"/><path d="M477.246,207.731H424.287a4.26,4.26,0,0,1-4.255-4.255.5.5,0,0,1,1,0,3.258,3.258,0,0,0,3.255,3.255h52.959a.5.5,0,0,1,0,1Z"/><path class="b" d="M421.986,176.079c0-6.939,1.708-11.107,4.33-11.832.976-.27.318,4.624,1.506,5.343l4.507-2.253V131.259L399.575,93.438l-4.506,2.253s3.455,5.859,2.9,6.961c-1.834,3.665-5.063,3.775-8.741-.471-5.712-6.6-10.342-21.2-10.342-32.628L319.671,1.174l-4.506,2.253,4.506,8.724V61.476c5.712,6.595,10.343,21.2,10.343,32.627s-4.631,15.338-10.343,8.743l-4.506,2.253,4.506,5.08V226.488l54.623,63.073,1.167,8.8,4.506-2.253c0-11.424,4.631-15.338,10.343-8.743s10.342,21.2,10.342,32.628l25.776,29.763,1.394,9.066,4.507-2.253V208.707C426.617,202.111,421.986,187.5,421.986,176.079Zm-77.948,47.239c-5.712-6.6-10.343-21.2-10.343-32.627s4.631-15.339,10.343-8.743,10.342,21.2,10.342,32.628S349.75,229.914,344.038,223.318Zm13.58-109.2c-5.712-6.6-10.342-21.2-10.342-32.628s4.63-15.338,10.342-8.742,10.343,21.2,10.343,32.627S363.33,120.712,357.618,114.116ZM376,199.558c-5.712-6.595-10.343-21.2-10.343-32.627s4.631-15.338,10.343-8.743,10.342,21.2,10.342,32.628S381.712,206.154,376,199.558Zm32.108,97.451c-5.712-6.6-10.342-21.2-10.342-32.628s4.63-15.338,10.342-8.742,10.343,21.2,10.343,32.627S413.82,303.6,408.108,297.009Z"/><path d="M427.823,359.326a.5.5,0,0,1-.494-.424l-1.374-8.924-25.68-29.654a.5.5,0,0,1-.122-.327c0-11.3-4.585-25.793-10.221-32.3-2.109-2.435-4.138-3.45-5.72-2.864-2.344.874-3.745,5.091-3.745,11.28a.5.5,0,0,1-.276.447l-4.506,2.253a.5.5,0,0,1-.72-.381l-1.146-8.656-54.526-62.96a.5.5,0,0,1-.122-.327V110.369l-4.38-4.939a.5.5,0,0,1,.151-.779l4.506-2.253a.5.5,0,0,1,.6.12c2.111,2.436,4.142,3.454,5.72,2.865,2.345-.875,3.745-5.091,3.745-11.28,0-11.3-4.585-25.792-10.221-32.3a.5.5,0,0,1-.122-.327v-49.2l-4.45-8.617a.5.5,0,0,1,.221-.676L319.448.726a.5.5,0,0,1,.6.12l59.219,68.38a.5.5,0,0,1,.122.327c0,11.3,4.585,25.794,10.221,32.3,1.868,2.156,3.656,3.2,5.128,3.009a3.833,3.833,0,0,0,2.787-2.435c.206-.594-1.325-3.834-2.888-6.483a.5.5,0,0,1,.207-.7l4.506-2.253a.5.5,0,0,1,.6.12l32.753,37.821a.494.494,0,0,1,.123.327v36.078a.5.5,0,0,1-.277.447l-4.506,2.253a.5.5,0,0,1-.482-.019c-.831-.5-.959-2.051-1.082-3.547a10.722,10.722,0,0,0-.219-1.683c-2.37.843-3.777,5.033-3.777,11.291,0,11.3,4.585,25.793,10.22,32.3a.5.5,0,0,1,.123.328V356.573a.5.5,0,0,1-.277.448l-4.506,2.253A.5.5,0,0,1,427.823,359.326Zm-26.67-39.516,25.653,29.623a.493.493,0,0,1,.116.251l1.29,8.388,3.617-1.808V208.892c-5.714-6.73-10.343-21.386-10.343-32.813,0-7,1.712-11.488,4.7-12.314a.738.738,0,0,1,.629.1c.466.325.549,1.088.667,2.52a8.942,8.942,0,0,0,.448,2.59l3.9-1.951V131.445L399.451,94.059,395.769,95.9c1.167,2.022,3.212,5.854,2.651,6.976a4.819,4.819,0,0,1-3.557,2.98c-1.824.227-3.912-.928-6.008-3.348-5.739-6.626-10.414-21.286-10.465-32.768L319.547,1.8l-3.705,1.853,4.274,8.274a.508.508,0,0,1,.055.229v49.14c5.714,6.729,10.343,21.385,10.343,32.812,0,6.723-1.6,11.175-4.4,12.217-1.371.512-3.615.415-6.567-2.856l-3.579,1.79,4.073,4.593a.5.5,0,0,1,.126.332V226.3l54.5,62.932a.5.5,0,0,1,.118.262l1.075,8.109,3.6-1.8c.049-6.549,1.645-10.882,4.4-11.907,1.41-.528,3.743-.411,6.824,3.147C396.427,293.669,401.1,308.329,401.153,319.81Zm12.111-19.1c-1.391,0-3.257-.75-5.533-3.378h0c-5.771-6.662-10.465-21.446-10.465-32.955,0-6.722,1.6-11.175,4.4-12.217,1.418-.528,3.747-.407,6.825,3.148,5.769,6.662,10.464,21.445,10.464,32.954,0,6.723-1.6,11.176-4.4,12.217A3.667,3.667,0,0,1,413.264,300.714Zm-10.332-47.776a2.62,2.62,0,0,0-.921.163c-2.345.875-3.745,5.091-3.745,11.28,0,11.3,4.585,25.793,10.221,32.3h0c2.11,2.437,4.143,3.452,5.718,2.865,2.345-.874,3.746-5.091,3.746-11.28,0-11.3-4.585-25.793-10.22-32.3C406.012,253.982,404.345,252.938,402.932,252.938Zm-53.739-25.914c-1.39,0-3.258-.75-5.533-3.379-5.771-6.663-10.465-21.446-10.465-32.954,0-6.723,1.6-11.176,4.4-12.217,1.411-.526,3.744-.41,6.824,3.147,5.771,6.663,10.465,21.446,10.465,32.955,0,6.722-1.6,11.175-4.4,12.217A3.681,3.681,0,0,1,349.193,227.024Zm-10.331-47.776a2.621,2.621,0,0,0-.922.163c-2.345.874-3.745,5.091-3.745,11.28,0,11.3,4.585,25.792,10.22,32.3,2.11,2.436,4.14,3.452,5.72,2.865,2.345-.875,3.745-5.091,3.745-11.28,0-11.3-4.585-25.793-10.22-32.3C341.941,180.291,340.274,179.248,338.862,179.248Zm42.294,24.016c-1.391,0-3.257-.75-5.534-3.379h0c-5.77-6.661-10.464-21.445-10.464-32.954,0-6.722,1.6-11.176,4.395-12.217,1.416-.527,3.747-.407,6.825,3.147,5.77,6.662,10.464,21.446,10.464,32.955,0,6.723-1.6,11.175-4.395,12.217A3.667,3.667,0,0,1,381.156,203.264Zm-10.332-47.776a2.612,2.612,0,0,0-.921.163c-2.345.874-3.745,5.091-3.745,11.28,0,11.3,4.585,25.793,10.22,32.3,2.111,2.437,4.145,3.453,5.719,2.865,2.345-.874,3.745-5.091,3.745-11.28,0-11.3-4.585-25.793-10.22-32.3C373.9,156.531,372.237,155.488,370.824,155.488Zm-8.05-37.667c-1.391,0-3.258-.75-5.534-3.378h0c-5.77-6.662-10.464-21.446-10.464-32.955,0-6.722,1.6-11.175,4.395-12.216,1.417-.527,3.746-.408,6.825,3.147,5.77,6.662,10.464,21.445,10.464,32.955,0,6.722-1.6,11.175-4.395,12.216A3.667,3.667,0,0,1,362.774,117.821ZM358,113.789c2.11,2.436,4.146,3.454,5.719,2.864,2.345-.874,3.745-5.091,3.745-11.279,0-11.3-4.585-25.794-10.22-32.3-2.11-2.435-4.143-3.45-5.719-2.864-2.345.874-3.745,5.09-3.745,11.279,0,11.3,4.585,25.793,10.22,32.3Z"/><path class="c" d="M417.48,178.333c0-11.424,4.63-15.339,10.342-8.743V133.512L395.069,95.691c0,11.424-4.631,15.339-10.343,8.743s-10.342-21.2-10.342-32.628L315.165,3.427v60.3c5.712,6.595,10.343,21.2,10.343,32.627s-4.631,15.338-10.343,8.743V228.741l60.3,69.624c0-11.424,4.631-15.338,10.343-8.743s10.342,21.2,10.342,32.628l31.676,36.576V210.96C422.11,204.364,417.48,189.757,417.48,178.333Zm-77.949,47.238c-5.712-6.595-10.342-21.2-10.342-32.627s4.63-15.338,10.342-8.743,10.343,21.2,10.343,32.628S345.243,232.167,339.531,225.571Zm13.581-109.2c-5.712-6.6-10.343-21.2-10.343-32.627S347.4,68.4,353.112,75s10.342,21.2,10.342,32.628S358.824,122.965,353.112,116.369Zm18.382,85.443c-5.712-6.6-10.343-21.2-10.343-32.628s4.631-15.338,10.343-8.742,10.342,21.2,10.342,32.627S377.206,208.407,371.494,201.812Zm32.108,97.45c-5.712-6.6-10.342-21.2-10.342-32.628s4.63-15.338,10.342-8.742,10.343,21.2,10.343,32.627S409.314,305.857,403.6,299.262Z"/><path d="M427.823,359.326a.5.5,0,0,1-.378-.173l-31.677-36.576a.5.5,0,0,1-.122-.327c0-11.3-4.585-25.794-10.221-32.3-2.109-2.436-4.14-3.452-5.719-2.865-2.344.874-3.745,5.091-3.745,11.28a.5.5,0,0,1-.878.327l-60.3-69.624a.492.492,0,0,1-.123-.327V105.1a.5.5,0,0,1,.878-.327c2.111,2.436,4.146,3.452,5.719,2.864,2.345-.874,3.745-5.091,3.745-11.28,0-11.3-4.585-25.793-10.219-32.3a.494.494,0,0,1-.123-.327V3.427a.5.5,0,0,1,.878-.327l59.218,68.379a.5.5,0,0,1,.122.327c0,11.3,4.585,25.793,10.221,32.3,2.11,2.436,4.142,3.453,5.72,2.864,2.344-.874,3.745-5.091,3.745-11.279a.5.5,0,0,1,.878-.328L428.2,133.185a.5.5,0,0,1,.122.327V169.59a.5.5,0,0,1-.878.327c-2.11-2.435-4.143-3.453-5.72-2.864-2.345.874-3.745,5.091-3.745,11.28,0,11.3,4.585,25.793,10.221,32.3a.5.5,0,0,1,.122.327V358.826a.5.5,0,0,1-.5.5Zm-31.177-37.263,30.677,35.422V211.145c-5.714-6.728-10.343-21.385-10.343-32.812,0-6.723,1.6-11.176,4.395-12.217,1.277-.477,3.3-.426,5.948,2.2V133.7L395.547,97.008c-.2,5.986-1.767,9.928-4.375,10.9-1.411.527-3.744.41-6.824-3.147-5.739-6.627-10.414-21.287-10.465-32.768L315.665,4.768V63.544c5.714,6.729,10.342,21.385,10.342,32.812,0,6.723-1.6,11.176-4.395,12.217-1.278.478-3.3.425-5.947-2.2V228.555l59.318,68.493c.2-5.986,1.767-9.928,4.374-10.9,1.418-.527,3.746-.408,6.824,3.148C391.92,295.921,396.6,310.581,396.646,322.063Zm12.111-19.1c-1.39,0-3.258-.75-5.533-3.378-5.77-6.663-10.465-21.446-10.465-32.955,0-6.722,1.6-11.175,4.4-12.217,1.411-.526,3.744-.41,6.824,3.148,5.77,6.663,10.465,21.446,10.465,32.954,0,6.723-1.6,11.176-4.4,12.217A3.659,3.659,0,0,1,408.757,302.967Zm-10.331-47.776a2.625,2.625,0,0,0-.922.163c-2.344.875-3.745,5.091-3.745,11.28,0,11.3,4.585,25.793,10.221,32.3,2.109,2.436,4.14,3.452,5.72,2.864,2.344-.874,3.745-5.091,3.745-11.28,0-11.3-4.585-25.792-10.221-32.3C401.505,256.234,399.838,255.191,398.426,255.191Zm-53.739-25.914c-1.391,0-3.257-.75-5.533-3.378-5.771-6.664-10.465-21.447-10.465-32.955,0-6.723,1.6-11.176,4.4-12.217,1.412-.526,3.745-.41,6.825,3.147,5.769,6.662,10.463,21.446,10.463,32.955,0,6.722-1.6,11.175-4.395,12.217A3.69,3.69,0,0,1,344.687,229.277ZM334.356,181.5a2.625,2.625,0,0,0-.922.163c-2.345.874-3.745,5.091-3.745,11.28,0,11.3,4.585,25.792,10.221,32.3,2.109,2.436,4.141,3.452,5.718,2.865,2.345-.875,3.745-5.091,3.745-11.28,0-11.3-4.584-25.793-10.219-32.3C337.435,182.544,335.768,181.5,334.356,181.5Zm42.293,24.016c-1.39,0-3.257-.75-5.533-3.378-5.771-6.663-10.465-21.447-10.465-32.955,0-6.722,1.6-11.176,4.4-12.217,1.41-.525,3.743-.409,6.825,3.147,5.77,6.663,10.464,21.447,10.464,32.955,0,6.723-1.6,11.176-4.4,12.217A3.659,3.659,0,0,1,376.649,205.517Zm-10.331-47.776a2.625,2.625,0,0,0-.922.163c-2.345.874-3.745,5.091-3.745,11.28,0,11.3,4.585,25.793,10.221,32.3,2.11,2.437,4.141,3.455,5.719,2.865,2.345-.874,3.745-5.091,3.745-11.28,0-11.3-4.585-25.793-10.22-32.3C369.4,158.784,367.73,157.741,366.318,157.741Zm-8.051-37.666c-1.391,0-3.258-.751-5.533-3.379-5.771-6.663-10.465-21.446-10.465-32.954,0-6.723,1.6-11.176,4.4-12.217,1.412-.528,3.746-.41,6.825,3.147,5.77,6.663,10.465,21.446,10.465,32.955,0,6.722-1.6,11.175-4.4,12.217A3.681,3.681,0,0,1,358.267,120.075ZM347.936,72.3a2.626,2.626,0,0,0-.922.164c-2.345.874-3.745,5.091-3.745,11.28,0,11.3,4.585,25.792,10.221,32.3,2.11,2.436,4.141,3.455,5.719,2.865,2.345-.875,3.746-5.091,3.746-11.28,0-11.3-4.585-25.793-10.221-32.3C351.015,73.342,349.348,72.3,347.936,72.3Z"/><path d="M427.823,134.012a.5.5,0,0,1-.224-.947l4.506-2.253a.5.5,0,1,1,.447.894l-4.506,2.254A.506.506,0,0,1,427.823,134.012Z"/><path d="M374.383,72.306a.5.5,0,0,1-.223-.947l4.506-2.253a.5.5,0,0,1,.448.9l-4.507,2.253A.513.513,0,0,1,374.383,72.306Z"/><path d="M427.823,211.46a.5.5,0,0,1-.224-.947l4.506-2.254a.5.5,0,0,1,.447.9l-4.506,2.253A.494.494,0,0,1,427.823,211.46Z"/><path d="M342.771,83.736l4.507-2.253c.028-3.984.457-7.067,1.766-9.525C344.161,70.591,342.706,78.117,342.771,83.736Z"/><path d="M361.153,169.178l4.507-2.253c.028-3.984.457-7.067,1.766-9.524C362.543,156.033,361.088,163.559,361.153,169.178Z"/><path d="M329.191,192.938l4.506-2.253c.029-3.984.457-7.067,1.767-9.525C330.581,179.793,329.126,187.319,329.191,192.938Z"/><path d="M393.262,266.628l4.506-2.253c.029-3.983.457-7.067,1.767-9.524C394.652,253.484,393.2,261.01,393.262,266.628Z"/><path d="M375.429,298.39l4.506-2.253c.029-3.983.457-7.067,1.767-9.524C376.819,285.246,375.363,292.772,375.429,298.39Z"/><path d="M417.481,178.334l4.506-2.253c.029-3.984.457-7.067,1.766-9.525C418.871,165.189,417.415,172.715,417.481,178.334Z"/><path class="a" d="M413.264,282.332H285.125a3.755,3.755,0,1,1,0-7.51H411.636C412.224,277.1,412.748,279.464,413.264,282.332Z"/><path d="M413.862,282.832H285.124a4.26,4.26,0,0,1-4.254-4.255.5.5,0,0,1,1,0,3.258,3.258,0,0,0,3.254,3.255h127.54c-.455-2.461-.939-4.664-1.512-6.885a.5.5,0,0,1,.969-.25c.625,2.421,1.144,4.819,1.635,7.546Z"/><path class="a" d="M380.878,183.237H285.139a3.756,3.756,0,1,1,0-7.511h93.926A57.645,57.645,0,0,1,380.878,183.237Z"/><path class="a" d="M348.97,207.231H285.139a3.755,3.755,0,1,1,0-7.51h62.034A67.983,67.983,0,0,1,348.97,207.231Z"/><path d="M381.462,183.737H285.138a4.26,4.26,0,0,1-4.255-4.255.5.5,0,0,1,1,0,3.259,3.259,0,0,0,3.255,3.255H380.29a52.126,52.126,0,0,0-1.421-5.873l-.286-1a.5.5,0,1,1,.963-.271l.284,1a50.166,50.166,0,0,1,1.542,6.57Z"/><path d="M349.579,207.731H285.138a4.26,4.26,0,0,1-4.255-4.255.5.5,0,0,1,1,0,3.258,3.258,0,0,0,3.255,3.255h63.224a63.236,63.236,0,0,0-1.663-6.854.5.5,0,1,1,.949-.312,68.594,68.594,0,0,1,1.812,7.569Z"/><ellipse class="a" cx="400.91" cy="155.242" rx="2.823" ry="7.934" transform="translate(-25.673 101.805) rotate(-14.027)"/><path class="a" d="M403.71,168.724c-.812,0-1.889-.428-3.177-1.915h0c-3.166-3.657-5.743-11.756-5.743-18.056,0-3.809.9-6.242,2.538-6.852.836-.312,2.2-.256,3.961,1.774,3.166,3.656,5.741,11.756,5.741,18.056,0,3.809-.9,6.242-2.537,6.852A2.218,2.218,0,0,1,403.71,168.724Zm-2.421-2.57c1.078,1.246,2.089,1.778,2.855,1.492.911-.34,1.886-2.072,1.886-5.915,0-6.095-2.466-13.9-5.5-17.4-1.079-1.247-2.093-1.777-2.856-1.492-.912.34-1.887,2.072-1.887,5.915,0,6.094,2.467,13.9,5.5,17.4Z"/><path class="a" d="M399.5,159.243H287.748a3.766,3.766,0,0,1,0-7.511H399.5c1.923,0,2.73,1.682,2.73,3.755S401.423,159.243,399.5,159.243Z"/><path d="M401.662,159.743H287.748a4.13,4.13,0,0,1-3.981-4.256.5.5,0,0,1,1,0,3.132,3.132,0,0,0,2.981,3.256H401.662a.5.5,0,0,1,0,1Z"/><path class="b" d="M292.529,264.6c-5.712-6.6-10.343-21.2-10.343-32.627,0-6.426,1.465-10.476,3.764-11.616,1.021-.506.777,4.437,2.072,5.126l4.507-2.253h0V131.259L228.6,57.445,224.1,59.7c-.184,1.078,3.684,5,3.385,5.828-1.71,4.739-5.2,5.309-9.222.662-5.712-6.6-10.342-21.2-10.342-32.628L179.871,1.174l-4.506,2.253,4.506,8.787V55.508c5.712,6.6,10.343,21.2,10.343,32.627s-4.631,15.338-10.343,8.743l-4.506,2.253,4.506,5.415V226.488l29.7,34.3,1.434,9.112,4.506-2.253c0-11.424,4.631-15.338,10.343-8.743s10.342,21.2,10.342,32.628l49.85,57.562,1.972,9.733,4.507-2.253V264.6Zm-88.291-41.283c-5.712-6.595-10.343-21.2-10.343-32.627s4.631-15.338,10.343-8.743,10.342,21.2,10.342,32.628S209.95,229.914,204.238,223.318Zm31.962-23.76c-5.712-6.595-10.342-21.2-10.342-32.627s4.63-15.338,10.342-8.742,10.343,21.2,10.343,32.627S241.912,206.154,236.2,199.558Zm32.108,97.451c-5.712-6.6-10.342-21.2-10.342-32.628s4.63-15.338,10.342-8.742,10.343,21.2,10.343,32.627S274.02,303.6,268.308,297.009Zm0-124.592c-5.712-6.595-10.342-21.2-10.342-32.627s4.63-15.338,10.342-8.743,10.343,21.2,10.343,32.628S274.02,179.013,268.308,172.417Z"/><path d="M288.022,359.326a.5.5,0,0,1-.49-.4l-1.946-9.6-49.764-57.463a.5.5,0,0,1-.122-.327c0-11.3-4.585-25.793-10.22-32.3-2.109-2.436-4.137-3.452-5.72-2.865-2.345.874-3.745,5.091-3.745,11.28a.5.5,0,0,1-.276.447l-4.506,2.253a.5.5,0,0,1-.718-.369l-1.411-8.971-29.61-34.191a.493.493,0,0,1-.122-.327V104.727l-4.391-5.276a.5.5,0,0,1,.161-.767l4.506-2.254a.5.5,0,0,1,.6.12c2.111,2.436,4.142,3.455,5.72,2.865,2.345-.874,3.745-5.091,3.745-11.28,0-11.3-4.585-25.792-10.22-32.3a.493.493,0,0,1-.122-.327V12.335l-4.452-8.68a.507.507,0,0,1-.03-.384.5.5,0,0,1,.252-.291L179.648.727a.5.5,0,0,1,.6.12L208.3,33.233a.5.5,0,0,1,.122.327c0,11.3,4.585,25.793,10.221,32.3,1.938,2.236,3.762,3.273,5.282,2.986,1.285-.238,2.354-1.445,3.091-3.489a13.819,13.819,0,0,0-1.53-2.285c-1.244-1.673-2-2.734-1.878-3.458a.5.5,0,0,1,.269-.363L228.38,57a.5.5,0,0,1,.6.12l63.925,73.814a.5.5,0,0,1,.122.327v91.972a.5.5,0,0,1-.277.447l-4.506,2.254a.5.5,0,0,1-.459-.006c-.87-.463-1.141-1.962-1.4-3.41a10.236,10.236,0,0,0-.375-1.622c-2.084,1.206-3.322,5.319-3.322,11.08,0,11.3,4.585,25.792,10.221,32.3a.5.5,0,0,1,.122.327v91.972a.5.5,0,0,1-.277.448l-4.506,2.253A.507.507,0,0,1,288.022,359.326ZM236.7,291.344l49.728,57.422a.489.489,0,0,1,.112.228l1.842,9.093,3.647-1.823V264.786c-5.714-6.729-10.343-21.386-10.343-32.812,0-6.394,1.473-10.791,4.042-12.064a.766.766,0,0,1,.7-.009c.527.265.685,1.018.943,2.436a8.087,8.087,0,0,0,.725,2.553l3.937-1.968V131.445L228.48,58.066l-3.844,1.922a16.215,16.215,0,0,0,1.649,2.487c1.253,1.683,1.9,2.591,1.669,3.221-.866,2.4-2.2,3.826-3.85,4.134-1.89.347-4.038-.8-6.221-3.315-5.739-6.627-10.414-21.287-10.465-32.768L179.747,1.8l-3.706,1.853,4.276,8.338a.5.5,0,0,1,.055.228V55.323c5.713,6.729,10.342,21.386,10.342,32.812,0,6.723-1.6,11.176-4.4,12.217-1.372.512-3.614.416-6.567-2.855l-3.6,1.8,4.1,4.93a.505.505,0,0,1,.116.32V226.3l29.582,34.159a.5.5,0,0,1,.116.25l1.327,8.436,3.619-1.81c.049-6.549,1.645-10.882,4.4-11.907,1.411-.527,3.744-.41,6.824,3.147C231.974,265.2,236.649,279.863,236.7,291.344Zm36.764,9.37c-1.39,0-3.258-.75-5.534-3.378-5.769-6.662-10.464-21.446-10.464-32.955,0-6.723,1.6-11.175,4.4-12.217,1.417-.528,3.746-.407,6.824,3.148,5.77,6.661,10.465,21.445,10.465,32.954,0,6.722-1.6,11.176-4.4,12.217A3.663,3.663,0,0,1,273.464,300.714Zm-4.778-4.033c2.11,2.436,4.146,3.455,5.72,2.865,2.344-.875,3.745-5.091,3.745-11.28,0-11.3-4.585-25.793-10.221-32.3-2.109-2.436-4.142-3.451-5.719-2.865-2.344.874-3.745,5.091-3.745,11.28,0,11.3,4.585,25.793,10.22,32.3Zm-59.293-69.657c-1.39,0-3.258-.75-5.533-3.379h0c-5.771-6.662-10.465-21.446-10.465-32.954,0-6.723,1.6-11.176,4.4-12.217,1.411-.526,3.745-.41,6.825,3.147,5.77,6.663,10.464,21.446,10.464,32.955,0,6.722-1.6,11.175-4.4,12.217A3.681,3.681,0,0,1,209.393,227.024Zm-10.331-47.776a2.625,2.625,0,0,0-.922.163c-2.345.874-3.745,5.091-3.745,11.28,0,11.3,4.585,25.792,10.221,32.3,2.11,2.436,4.14,3.452,5.719,2.865,2.345-.875,3.745-5.091,3.745-11.28,0-11.3-4.584-25.793-10.22-32.3C202.141,180.291,200.474,179.248,199.062,179.248Zm42.293,24.016c-1.39,0-3.257-.75-5.533-3.378h0c-5.77-6.662-10.464-21.446-10.464-32.955,0-6.722,1.6-11.176,4.395-12.217,1.418-.527,3.745-.407,6.825,3.147,5.77,6.662,10.464,21.446,10.464,32.955,0,6.723-1.6,11.175-4.4,12.217A3.669,3.669,0,0,1,241.355,203.264Zm-4.777-4.032c2.108,2.434,4.139,3.453,5.719,2.864,2.345-.874,3.745-5.091,3.745-11.28,0-11.3-4.585-25.793-10.22-32.3-2.11-2.436-4.142-3.45-5.719-2.865-2.345.874-3.745,5.091-3.745,11.28,0,11.3,4.585,25.793,10.22,32.3Zm36.886-23.109c-1.39,0-3.258-.75-5.534-3.379h0c-5.769-6.662-10.464-21.446-10.464-32.954,0-6.723,1.6-11.176,4.4-12.217,1.417-.527,3.746-.407,6.824,3.147,5.77,6.662,10.465,21.446,10.465,32.955,0,6.722-1.6,11.175-4.4,12.217A3.686,3.686,0,0,1,273.464,176.123Zm-4.778-4.033c2.11,2.436,4.146,3.453,5.72,2.865,2.344-.875,3.745-5.092,3.745-11.28,0-11.3-4.585-25.794-10.221-32.3-2.109-2.436-4.142-3.451-5.719-2.865-2.344.874-3.745,5.091-3.745,11.28,0,11.3,4.585,25.793,10.22,32.3Z"/><path class="c" d="M288.022,266.854c-5.712-6.595-10.342-21.2-10.342-32.627s4.63-15.338,10.342-8.743h0V133.512L224.1,59.7c0,11.424-4.631,15.338-10.343,8.743s-10.342-21.2-10.342-32.628L175.365,3.427V57.761c5.712,6.6,10.343,21.2,10.343,32.627s-4.631,15.339-10.343,8.743v129.61L211.009,269.9c0-11.424,4.63-15.338,10.342-8.743s10.343,21.2,10.343,32.628l56.328,65.042V266.854Zm-88.291-41.283c-5.712-6.595-10.342-21.2-10.342-32.627s4.63-15.338,10.342-8.743,10.343,21.2,10.343,32.628S205.443,232.167,199.731,225.571Zm31.963-23.759c-5.712-6.6-10.343-21.2-10.343-32.628s4.631-15.338,10.343-8.742,10.342,21.2,10.342,32.627S237.406,208.407,231.694,201.812Zm32.108,97.45c-5.712-6.6-10.342-21.2-10.342-32.628s4.63-15.338,10.342-8.742,10.343,21.2,10.343,32.627S269.514,305.857,263.8,299.262Zm0-124.592c-5.712-6.595-10.342-21.2-10.342-32.627s4.63-15.338,10.342-8.743,10.343,21.2,10.343,32.628S269.514,181.266,263.8,174.67Z"/><path d="M288.022,359.326a.5.5,0,0,1-.378-.173l-56.328-65.042a.5.5,0,0,1-.122-.327c0-11.3-4.585-25.793-10.221-32.3-2.109-2.435-4.143-3.452-5.719-2.864-2.344.874-3.745,5.091-3.745,11.28a.5.5,0,0,1-.878.327l-35.643-41.158a.5.5,0,0,1-.122-.327V99.131a.5.5,0,0,1,.878-.327c2.109,2.436,4.145,3.453,5.718,2.865,2.345-.874,3.745-5.092,3.745-11.281,0-11.3-4.585-25.793-10.219-32.3a.5.5,0,0,1-.122-.327V3.427a.5.5,0,0,1,.878-.327L203.79,35.486a.494.494,0,0,1,.123.327c0,11.3,4.584,25.793,10.22,32.3,2.111,2.436,4.147,3.454,5.719,2.865C222.2,70.1,223.6,65.887,223.6,59.7a.5.5,0,0,1,.878-.327L288.4,133.185a.5.5,0,0,1,.122.327v91.972a.5.5,0,0,1-.878.328c-2.109-2.436-4.141-3.453-5.719-2.865-2.345.874-3.745,5.091-3.745,11.28,0,11.3,4.585,25.793,10.22,32.3a.5.5,0,0,1,.122.327v91.972a.5.5,0,0,1-.325.469A.509.509,0,0,1,288.022,359.326ZM232.194,293.6l55.328,63.888V267.039c-5.714-6.729-10.342-21.385-10.342-32.812,0-6.723,1.6-11.176,4.4-12.217,1.278-.476,3.3-.424,5.946,2.2V133.7L224.576,61.015c-.2,5.986-1.768,9.928-4.374,10.9-1.415.53-3.746.408-6.825-3.147C207.638,62.141,202.963,47.481,202.913,36L175.866,4.768V57.576c5.714,6.729,10.341,21.385,10.341,32.812,0,6.723-1.6,11.176-4.395,12.218-1.277.476-3.3.425-5.946-2.2V228.555l34.665,40.028c.2-5.987,1.767-9.93,4.374-10.9,1.417-.527,3.745-.407,6.824,3.147C227.468,267.456,232.143,282.116,232.194,293.6Zm36.763,9.37c-1.389,0-3.256-.75-5.533-3.378-5.77-6.663-10.465-21.446-10.465-32.955,0-6.722,1.6-11.175,4.4-12.217,1.41-.525,3.744-.409,6.824,3.148,5.771,6.663,10.465,21.446,10.465,32.954,0,6.723-1.6,11.176-4.4,12.217A3.654,3.654,0,0,1,268.957,302.967Zm-10.331-47.775a2.615,2.615,0,0,0-.921.162c-2.345.875-3.746,5.091-3.746,11.28,0,11.3,4.585,25.793,10.221,32.3,2.11,2.436,4.142,3.453,5.72,2.864,2.345-.874,3.745-5.091,3.745-11.28,0-11.3-4.585-25.792-10.221-32.3C261.705,256.234,260.039,255.192,258.626,255.192Zm-53.739-25.915c-1.39,0-3.258-.75-5.534-3.378h0c-5.77-6.663-10.464-21.446-10.464-32.955,0-6.723,1.6-11.176,4.4-12.217,1.418-.528,3.745-.408,6.824,3.147,5.77,6.662,10.465,21.445,10.465,32.955,0,6.722-1.6,11.175-4.4,12.217A3.667,3.667,0,0,1,204.887,229.277Zm-4.778-4.033c2.109,2.436,4.144,3.453,5.72,2.865,2.344-.875,3.745-5.091,3.745-11.28,0-11.3-4.585-25.794-10.221-32.3-2.109-2.435-4.143-3.451-5.719-2.864-2.345.874-3.745,5.091-3.745,11.28,0,11.3,4.585,25.793,10.22,32.3Zm36.74-19.727c-1.39,0-3.257-.75-5.533-3.378-5.771-6.663-10.465-21.447-10.465-32.955,0-6.722,1.6-11.176,4.4-12.217,1.412-.526,3.746-.409,6.825,3.147,5.77,6.663,10.465,21.447,10.465,32.955,0,6.723-1.6,11.176-4.4,12.217A3.659,3.659,0,0,1,236.849,205.517Zm-10.331-47.776a2.625,2.625,0,0,0-.922.163c-2.345.874-3.745,5.091-3.745,11.28,0,11.3,4.585,25.793,10.221,32.3,2.11,2.437,4.139,3.455,5.719,2.865,2.345-.874,3.746-5.091,3.746-11.28,0-11.3-4.585-25.793-10.221-32.3C229.6,158.784,227.93,157.741,226.518,157.741Zm42.439,20.635c-1.39,0-3.257-.75-5.533-3.378-5.77-6.663-10.465-21.447-10.465-32.955,0-6.723,1.6-11.176,4.4-12.217,1.411-.526,3.744-.41,6.824,3.147,5.771,6.663,10.465,21.447,10.465,32.955,0,6.722-1.6,11.176-4.4,12.217A3.677,3.677,0,0,1,268.957,178.376ZM258.626,130.6a2.616,2.616,0,0,0-.921.163c-2.345.874-3.746,5.091-3.746,11.28,0,11.3,4.585,25.793,10.221,32.3,2.11,2.436,4.142,3.454,5.72,2.865,2.345-.874,3.745-5.091,3.745-11.28,0-11.3-4.585-25.793-10.221-32.3C261.705,131.643,260.039,130.6,258.626,130.6Z"/><path d="M288.022,134.012a.5.5,0,0,1-.224-.947l4.507-2.253a.5.5,0,1,1,.447.894l-4.506,2.254A.517.517,0,0,1,288.022,134.012Z"/><path d="M288.022,267.354a.5.5,0,0,1-.233-.942l4.283-2.253a.5.5,0,1,1,.465.885l-4.283,2.252A.484.484,0,0,1,288.022,267.354Z"/><path d="M203.413,36.313a.5.5,0,0,1-.224-.947l4.506-2.253a.5.5,0,1,1,.447.894l-4.506,2.253A.5.5,0,0,1,203.413,36.313Z"/><path d="M253.462,142.037l4.506-2.253c.029-3.984.457-7.067,1.767-9.525C254.852,128.892,253.4,136.418,253.462,142.037Z"/><path d="M221.128,169.178l4.506-2.253c.028-3.984.457-7.067,1.766-9.524C222.517,156.033,221.062,163.559,221.128,169.178Z"/><path d="M189.391,192.938l4.506-2.253c.029-3.984.457-7.067,1.767-9.525C190.781,179.793,189.326,187.319,189.391,192.938Z"/><path d="M211.445,269.733l4.506-2.254c.029-3.983.457-7.067,1.767-9.524C212.835,256.588,211.38,264.114,211.445,269.733Z"/><path d="M277.994,233.87l4.506-2.253c.029-3.984.458-7.067,1.767-9.525C279.384,220.725,277.929,228.251,277.994,233.87Z"/><path d="M253.462,266.628l4.506-2.253c.029-3.983.457-7.067,1.767-9.524C254.852,253.484,253.4,261.01,253.462,266.628Z"/><path class="a" d="M273.468,282.332H145.328a3.755,3.755,0,1,1,0-7.51H271.84C272.427,277.1,272.952,279.464,273.468,282.332Z"/><path d="M274.066,282.832H145.329a4.26,4.26,0,0,1-4.255-4.255.5.5,0,0,1,1,0,3.258,3.258,0,0,0,3.255,3.255h127.54c-.455-2.461-.94-4.664-1.513-6.885a.5.5,0,0,1,.969-.25c.625,2.421,1.144,4.819,1.635,7.546Z"/><path class="a" d="M241.082,183.237h-95.74a3.756,3.756,0,0,1,0-7.511h93.927A57.645,57.645,0,0,1,241.082,183.237Z"/><path class="a" d="M209.174,207.231H145.342a3.755,3.755,0,0,1,0-7.51h62.035A67.983,67.983,0,0,1,209.174,207.231Z"/><path class="a" d="M273.7,159.243H145.342a3.756,3.756,0,0,1,0-7.511H272.251C272.824,154.19,273.3,156.653,273.7,159.243Z"/><path d="M241.665,183.737H145.342a4.261,4.261,0,0,1-4.255-4.255.5.5,0,1,1,1,0,3.259,3.259,0,0,0,3.255,3.255h95.152a52.1,52.1,0,0,0-1.425-5.884l-.281-.991a.5.5,0,1,1,.962-.271l.281.988a50.294,50.294,0,0,1,1.545,6.581Z"/><path d="M209.783,207.731H145.342a4.261,4.261,0,0,1-4.255-4.255.5.5,0,0,1,1,0,3.258,3.258,0,0,0,3.255,3.255h63.224a63.236,63.236,0,0,0-1.663-6.854.5.5,0,1,1,.949-.312,68.594,68.594,0,0,1,1.812,7.569Z"/><path d="M274.281,159.743H145.342a4.261,4.261,0,0,1-4.255-4.256.5.5,0,1,1,1,0,3.259,3.259,0,0,0,3.255,3.256H273.115c-.37-2.327-.813-4.59-1.351-6.9a.5.5,0,0,1,.975-.226c.587,2.523,1.062,4.992,1.454,7.548Z"/><ellipse class="a" cx="200.756" cy="80.295" rx="2.823" ry="7.934" transform="translate(-13.476 51.055) rotate(-14.027)"/><path class="a" d="M203.556,93.776c-.812,0-1.89-.427-3.178-1.915h0c-3.166-3.655-5.741-11.755-5.741-18.055,0-3.809.9-6.242,2.537-6.852.838-.311,2.2-.256,3.96,1.775,3.166,3.655,5.742,11.755,5.742,18.055,0,3.808-.9,6.242-2.537,6.852A2.237,2.237,0,0,1,203.556,93.776Zm-2.422-2.569c1.079,1.247,2.092,1.776,2.856,1.492.912-.34,1.886-2.072,1.886-5.915,0-6.094-2.466-13.9-5.5-17.4-1.078-1.245-2.088-1.776-2.855-1.492-.911.34-1.886,2.072-1.886,5.915,0,6.094,2.466,13.9,5.5,17.4Z"/><path class="a" d="M199.731,84.05H93.436a3.757,3.757,0,0,1,0-7.51H199.731c2.006,0,2.88,1.681,2.88,3.755S201.737,84.05,199.731,84.05Z"/><path d="M201.447,84.55H93.436A4.2,4.2,0,0,1,89.305,80.3a.5.5,0,0,1,1,0,3.2,3.2,0,0,0,3.131,3.255H201.447a.5.5,0,0,1,0,1Z"/><path class="b" d="M117.647,91.35,113.141,93.6c-.183,1.328,3.776,4.708,3.432,5.7-1.692,4.859-5.207,5.483-9.269.793-5.712-6.6-10.342-21.2-10.342-32.627L39.552,1.174,35.046,3.427l4.506,5.2V70.3C45.264,76.9,49.9,91.5,49.9,102.926s-4.631,15.339-10.343,8.743l-4.506,2.253,4.506,5.448V226.488l31.086,35.895.052,7.516,4.506-2.253c0-11.424,4.63-15.338,10.342-8.743s10.343,21.2,10.343,32.628l50.908,58.784.914,8.511,4.506-2.253V131.259ZM63.918,223.318c-5.712-6.6-10.342-21.2-10.342-32.627s4.63-15.338,10.342-8.743,10.343,21.2,10.343,32.628S69.631,229.914,63.918,223.318Zm0-124.591c-5.712-6.6-10.342-21.2-10.342-32.628s4.63-15.338,10.342-8.742,10.343,21.2,10.343,32.627S69.631,105.322,63.918,98.727ZM95.881,199.558c-5.712-6.595-10.343-21.2-10.343-32.627s4.631-15.338,10.343-8.742,10.342,21.2,10.342,32.627S101.593,206.154,95.881,199.558Zm32.108,97.451c-5.712-6.6-10.342-21.2-10.342-32.628s4.63-15.338,10.342-8.742,10.343,21.2,10.343,32.627S133.7,303.6,127.989,297.009Zm0-124.592c-5.712-6.595-10.342-21.2-10.342-32.627s4.63-15.338,10.342-8.743,10.343,21.2,10.343,32.628S133.7,179.013,127.989,172.417Z"/><path d="M147.7,359.326a.5.5,0,0,1-.5-.447l-.9-8.355L95.5,291.858a.5.5,0,0,1-.122-.327c0-11.3-4.585-25.793-10.22-32.3-2.11-2.436-4.139-3.452-5.72-2.865-2.345.874-3.745,5.091-3.745,11.28a.5.5,0,0,1-.277.447l-4.5,2.253a.5.5,0,0,1-.724-.444l-.051-7.332L39.174,226.815a.5.5,0,0,1-.122-.327V119.55l-4.391-5.309a.5.5,0,0,1-.1-.423.5.5,0,0,1,.266-.343l4.506-2.253a.5.5,0,0,1,.6.12c2.11,2.436,4.14,3.452,5.72,2.865,2.345-.875,3.745-5.092,3.745-11.281,0-11.3-4.585-25.792-10.221-32.3a.5.5,0,0,1-.122-.327V8.817L34.668,3.754a.5.5,0,0,1,.155-.774L39.329.727a.5.5,0,0,1,.6.12l57.41,66.29a.5.5,0,0,1,.122.327c0,11.3,4.585,25.793,10.22,32.3,1.942,2.243,3.777,3.275,5.3,2.983,1.307-.25,2.387-1.5,3.122-3.614a9.149,9.149,0,0,0-1.5-2.159c-1.291-1.584-2.065-2.606-1.951-3.44a.5.5,0,0,1,.271-.38l4.507-2.253a.5.5,0,0,1,.6.121l34.562,39.909a.5.5,0,0,1,.122.327V356.573a.5.5,0,0,1-.276.448l-4.506,2.253A.5.5,0,0,1,147.7,359.326ZM96.381,291.344l50.786,58.644a.5.5,0,0,1,.12.274l.836,7.8,3.586-1.793V131.445L117.523,91.971,113.667,93.9a11.553,11.553,0,0,0,1.7,2.445c1.235,1.516,1.921,2.409,1.674,3.12-.86,2.47-2.2,3.946-3.879,4.267-1.89.366-4.05-.783-6.24-3.311-5.738-6.626-10.413-21.287-10.464-32.768L39.428,1.8,35.846,3.586,39.93,8.3a.5.5,0,0,1,.122.327V70.114C45.766,76.843,50.4,91.5,50.4,102.926c0,6.723-1.6,11.176-4.4,12.218-1.369.512-3.613.415-6.566-2.856l-3.6,1.8,4.106,4.963a.508.508,0,0,1,.114.319V226.3l30.964,35.754a.5.5,0,0,1,.122.324l.046,6.714,3.513-1.757c.049-6.549,1.644-10.882,4.395-11.907,1.411-.527,3.743-.41,6.824,3.147C91.656,265.2,96.33,279.863,96.381,291.344Zm36.764,9.37c-1.391,0-3.257-.75-5.533-3.378-5.771-6.662-10.465-21.445-10.465-32.955,0-6.722,1.6-11.175,4.395-12.217,1.418-.528,3.747-.407,6.826,3.148,5.769,6.662,10.463,21.445,10.463,32.954,0,6.723-1.6,11.176-4.395,12.217A3.667,3.667,0,0,1,133.145,300.714Zm-10.332-47.776a2.62,2.62,0,0,0-.921.163c-2.345.875-3.745,5.091-3.745,11.28,0,11.3,4.585,25.794,10.221,32.3h0c2.109,2.437,4.145,3.452,5.718,2.865,2.345-.874,3.745-5.091,3.745-11.28,0-11.3-4.584-25.793-10.219-32.3C125.893,253.982,124.226,252.938,122.813,252.938ZM69.074,227.024c-1.39,0-3.258-.75-5.534-3.379-5.77-6.663-10.464-21.446-10.464-32.954,0-6.723,1.6-11.176,4.4-12.217,1.411-.526,3.743-.41,6.824,3.147,5.771,6.663,10.465,21.446,10.465,32.955,0,6.722-1.6,11.175-4.4,12.217A3.681,3.681,0,0,1,69.074,227.024ZM58.743,179.248a2.621,2.621,0,0,0-.922.163c-2.345.874-3.745,5.091-3.745,11.28,0,11.3,4.585,25.792,10.22,32.3,2.111,2.436,4.142,3.452,5.72,2.865,2.345-.875,3.745-5.091,3.745-11.28,0-11.3-4.585-25.793-10.221-32.3C61.822,180.291,60.155,179.248,58.743,179.248Zm42.294,24.016c-1.391,0-3.258-.75-5.534-3.378h0c-5.77-6.662-10.464-21.445-10.464-32.955,0-6.722,1.6-11.176,4.395-12.217,1.417-.527,3.747-.407,6.825,3.147,5.77,6.663,10.464,21.446,10.464,32.955,0,6.723-1.6,11.175-4.395,12.217A3.671,3.671,0,0,1,101.037,203.264ZM90.705,155.488a2.616,2.616,0,0,0-.921.163c-2.345.874-3.745,5.091-3.745,11.28,0,11.3,4.584,25.794,10.22,32.3h0c2.111,2.436,4.144,3.455,5.719,2.864,2.345-.874,3.745-5.091,3.745-11.28,0-11.3-4.585-25.793-10.22-32.3C93.785,156.531,92.118,155.488,90.705,155.488Zm42.44,20.635c-1.391,0-3.257-.75-5.533-3.379-5.771-6.661-10.465-21.445-10.465-32.954,0-6.723,1.6-11.176,4.395-12.217,1.418-.527,3.747-.407,6.826,3.147,5.769,6.662,10.463,21.446,10.463,32.955,0,6.723-1.6,11.175-4.395,12.217A3.69,3.69,0,0,1,133.145,176.123Zm-10.332-47.776a2.616,2.616,0,0,0-.921.163c-2.345.874-3.745,5.091-3.745,11.28,0,11.3,4.585,25.793,10.221,32.3h0c2.109,2.436,4.145,3.452,5.718,2.865,2.345-.874,3.745-5.091,3.745-11.28,0-11.3-4.584-25.793-10.219-32.3C125.893,129.39,124.226,128.347,122.813,128.347ZM69.074,102.432c-1.39,0-3.258-.75-5.534-3.378C57.77,92.391,53.076,77.608,53.076,66.1c0-6.722,1.6-11.175,4.4-12.217,1.411-.525,3.744-.41,6.824,3.148,5.771,6.662,10.465,21.446,10.465,32.954,0,6.723-1.6,11.176-4.4,12.217A3.659,3.659,0,0,1,69.074,102.432ZM58.743,54.656a2.644,2.644,0,0,0-.922.163c-2.345.875-3.745,5.092-3.745,11.28,0,11.3,4.585,25.793,10.22,32.3,2.111,2.436,4.142,3.452,5.72,2.864,2.345-.874,3.745-5.091,3.745-11.28,0-11.3-4.585-25.792-10.221-32.3C61.822,55.7,60.155,54.656,58.743,54.656Z"/><path class="c" d="M113.141,93.6c0,11.424-4.631,15.338-10.343,8.742s-10.342-21.2-10.342-32.627L35.046,3.427V72.552c5.712,6.6,10.343,21.2,10.343,32.628s-4.631,15.338-10.343,8.742V228.741L70.69,269.9c0-11.424,4.63-15.338,10.342-8.743s10.343,21.2,10.343,32.628L147.7,358.826V133.512ZM59.412,225.571c-5.712-6.595-10.342-21.2-10.342-32.627s4.63-15.338,10.342-8.743,10.343,21.2,10.343,32.628S65.124,232.167,59.412,225.571Zm0-124.591c-5.712-6.6-10.342-21.2-10.342-32.628S53.7,53.014,59.412,59.61s10.343,21.2,10.343,32.627S65.124,107.576,59.412,100.98ZM91.375,201.812c-5.712-6.6-10.343-21.2-10.343-32.628s4.631-15.338,10.343-8.742,10.342,21.2,10.342,32.627S97.087,208.407,91.375,201.812Zm32.108,97.45c-5.712-6.6-10.342-21.2-10.342-32.628s4.63-15.338,10.342-8.742,10.342,21.2,10.342,32.627S129.2,305.857,123.483,299.262Zm0-124.592c-5.712-6.595-10.342-21.2-10.342-32.627s4.63-15.338,10.342-8.743,10.342,21.2,10.342,32.628S129.2,181.266,123.483,174.67Z"/><path d="M147.7,359.326a.5.5,0,0,1-.378-.173L91,294.111a.494.494,0,0,1-.123-.327c0-11.3-4.585-25.793-10.22-32.3-2.11-2.435-4.142-3.452-5.719-2.864-2.345.874-3.745,5.091-3.745,11.28a.5.5,0,0,1-.878.327L34.668,229.068a.5.5,0,0,1-.122-.327V113.922a.5.5,0,0,1,.878-.327c2.111,2.436,4.144,3.454,5.719,2.865,2.345-.874,3.745-5.091,3.745-11.28,0-11.3-4.585-25.794-10.22-32.3a.5.5,0,0,1-.122-.327V3.427a.5.5,0,0,1,.878-.327L92.833,69.391a.493.493,0,0,1,.122.327c0,11.3,4.585,25.792,10.221,32.3,2.111,2.436,4.144,3.452,5.719,2.865,2.345-.875,3.745-5.091,3.745-11.28a.5.5,0,0,1,.878-.328l34.563,39.91a.494.494,0,0,1,.123.327V358.826a.5.5,0,0,1-.5.5ZM91.874,293.6l55.33,63.888V133.7l-33.585-38.78c-.2,5.986-1.768,9.929-4.374,10.9-1.415.527-3.746.408-6.825-3.148-5.739-6.626-10.414-21.287-10.465-32.767L35.546,4.768v67.6C41.26,79.1,45.888,93.752,45.888,105.18c0,6.722-1.6,11.175-4.395,12.217-1.279.477-3.3.424-5.947-2.205V228.555l34.665,40.028c.2-5.987,1.768-9.93,4.374-10.9,1.417-.527,3.745-.407,6.825,3.147C87.149,267.456,91.824,282.116,91.874,293.6Zm36.764,9.37c-1.39,0-3.257-.75-5.533-3.378-5.771-6.663-10.465-21.446-10.465-32.955,0-6.722,1.6-11.175,4.4-12.217,1.411-.525,3.745-.409,6.824,3.148,5.77,6.663,10.465,21.446,10.465,32.954,0,6.723-1.6,11.176-4.4,12.217A3.659,3.659,0,0,1,128.638,302.967Zm-10.331-47.775a2.624,2.624,0,0,0-.922.162c-2.345.875-3.745,5.091-3.745,11.28,0,11.3,4.585,25.793,10.221,32.3,2.11,2.436,4.139,3.453,5.719,2.864,2.345-.874,3.746-5.091,3.746-11.28,0-11.3-4.585-25.792-10.221-32.3C121.386,256.234,119.719,255.192,118.307,255.192ZM64.568,229.277c-1.391,0-3.257-.75-5.533-3.378-5.771-6.664-10.465-21.447-10.465-32.955,0-6.723,1.6-11.176,4.4-12.217,1.411-.526,3.743-.41,6.824,3.147,5.77,6.662,10.464,21.446,10.464,32.955,0,6.722-1.6,11.175-4.4,12.217A3.667,3.667,0,0,1,64.568,229.277ZM54.237,181.5a2.621,2.621,0,0,0-.922.163c-2.345.874-3.745,5.091-3.745,11.28,0,11.3,4.585,25.792,10.22,32.3,2.11,2.436,4.146,3.454,5.719,2.865,2.345-.874,3.745-5.091,3.745-11.28,0-11.3-4.585-25.793-10.219-32.3C57.316,182.544,55.649,181.5,54.237,181.5ZM96.53,205.517c-1.39,0-3.257-.75-5.533-3.378-5.771-6.663-10.465-21.447-10.465-32.955,0-6.722,1.6-11.176,4.4-12.217,1.41-.526,3.745-.409,6.824,3.147,5.771,6.663,10.465,21.447,10.465,32.955,0,6.723-1.6,11.176-4.4,12.217A3.659,3.659,0,0,1,96.53,205.517ZM86.2,157.741a2.621,2.621,0,0,0-.922.163c-2.345.874-3.745,5.091-3.745,11.28,0,11.3,4.585,25.793,10.22,32.3,2.111,2.437,4.141,3.455,5.72,2.865,2.345-.874,3.745-5.091,3.745-11.28,0-11.3-4.585-25.793-10.22-32.3C89.278,158.784,87.611,157.741,86.2,157.741Zm42.439,20.635c-1.391,0-3.258-.75-5.533-3.378-5.771-6.663-10.465-21.447-10.465-32.955,0-6.723,1.6-11.176,4.4-12.217,1.411-.528,3.745-.41,6.824,3.147,5.77,6.663,10.465,21.447,10.465,32.955,0,6.722-1.6,11.176-4.4,12.217A3.681,3.681,0,0,1,128.638,178.376ZM118.307,130.6a2.625,2.625,0,0,0-.922.163c-2.345.874-3.745,5.091-3.745,11.28,0,11.3,4.585,25.793,10.221,32.3,2.11,2.436,4.139,3.454,5.719,2.865,2.345-.874,3.746-5.091,3.746-11.28,0-11.3-4.585-25.793-10.221-32.3C121.386,131.643,119.719,130.6,118.307,130.6ZM64.568,104.686c-1.391,0-3.257-.75-5.533-3.379C53.264,94.644,48.57,79.861,48.57,68.353c0-6.723,1.6-11.176,4.4-12.218,1.411-.526,3.743-.41,6.824,3.148,5.77,6.662,10.464,21.446,10.464,32.954,0,6.723-1.6,11.176-4.4,12.218A3.69,3.69,0,0,1,64.568,104.686ZM54.237,56.909a2.621,2.621,0,0,0-.922.163c-2.345.875-3.745,5.092-3.745,11.281,0,11.3,4.585,25.792,10.22,32.3,2.11,2.436,4.146,3.454,5.719,2.865,2.345-.875,3.745-5.092,3.745-11.281,0-11.3-4.585-25.793-10.219-32.3C57.316,57.953,55.649,56.909,54.237,56.909Z"/><path d="M147.7,134.012a.5.5,0,0,1-.224-.947l4.506-2.253a.5.5,0,1,1,.447.894l-4.506,2.254A.506.506,0,0,1,147.7,134.012Z"/><path d="M92.455,70.218a.5.5,0,0,1-.223-.947l4.507-2.254a.5.5,0,1,1,.447.9l-4.507,2.253A.5.5,0,0,1,92.455,70.218Z"/><path d="M113.143,142.037l4.506-2.253c.029-3.984.457-7.067,1.766-9.525C114.533,128.892,113.077,136.418,113.143,142.037Z"/><path d="M49.072,68.661l4.506-2.253c.029-3.984.457-7.067,1.767-9.525C50.462,55.516,49.007,63.042,49.072,68.661Z"/><path d="M81.034,169.178l4.506-2.253c.029-3.984.458-7.067,1.767-9.524C82.424,156.033,80.969,163.559,81.034,169.178Z"/><path d="M49.072,192.938l4.506-2.253c.029-3.984.457-7.067,1.767-9.525C50.462,179.793,49.007,187.319,49.072,192.938Z"/><path d="M71.126,269.733l4.506-2.254c.029-3.983.457-7.067,1.766-9.524C72.516,256.588,71.06,264.114,71.126,269.733Z"/><path d="M113.143,266.628l4.506-2.253c.029-3.983.457-7.067,1.766-9.524C114.533,253.484,113.077,261.01,113.143,266.628Z"/><path class="a" d="M100.744,183.237H5c-2.074,0-3-1.681-3-3.755s.93-3.756,3-3.756H98.93A57.645,57.645,0,0,1,100.744,183.237Z"/><path class="a" d="M68.836,207.231H5c-2.074,0-3-1.681-3-3.755s.93-3.755,3-3.755H67.039A68.21,68.21,0,0,1,68.836,207.231Z"/><path class="a" d="M133.144,282.332H5c-2.074,0-3-1.681-3-3.755s.93-3.755,3-3.755H131.516C132.1,277.1,132.627,279.464,133.144,282.332Z"/><path class="a" d="M133.361,159.243H5c-2.074,0-3-1.682-3-3.756s.93-3.755,3-3.755H131.913C132.485,154.19,132.964,156.653,133.361,159.243Z"/><path class="a" d="M69.063,84.05H5c-2.074,0-3-1.681-3-3.755s.93-3.755,3-3.755H67.445A61.989,61.989,0,0,1,69.063,84.05Z"/><path d="M101.328,183.737H5a.5.5,0,1,1,0-1h95.152a52.123,52.123,0,0,0-1.422-5.873l-.285-1a.5.5,0,1,1,.963-.271l.283,1a50.323,50.323,0,0,1,1.543,6.57Z"/><path d="M69.444,207.731H5a.5.5,0,1,1,0-1H68.227a61.608,61.608,0,0,0-1.663-6.854.5.5,0,1,1,.949-.312,66.634,66.634,0,0,1,1.813,7.569Z"/><path d="M133.742,282.832H5a.5.5,0,0,1,0-1h127.54c-.455-2.461-.939-4.664-1.512-6.885a.5.5,0,1,1,.968-.25c.625,2.421,1.145,4.819,1.636,7.546Z"/><path d="M133.944,159.743H5a.5.5,0,1,1,0-1H132.777c-.371-2.33-.815-4.593-1.352-6.9a.5.5,0,0,1,.374-.6.5.5,0,0,1,.6.374c.586,2.519,1.062,4.988,1.455,7.548Z"/><path d="M69.063,84.55H5a.5.5,0,0,1,0-1H68.486a59.043,59.043,0,0,0-1.356-6.219l-.17-.668a.5.5,0,0,1,.969-.247l.171.668a56.807,56.807,0,0,1,1.458,6.9.5.5,0,0,1-.5.567Z"/></svg>