<svg xmlns="http://www.w3.org/2000/svg" viewBox="0 0 760 406.06"><defs><style>.a{fill:#ca2967;}.b{fill:#fff;}.c{fill:#88308b;}.d{fill:#4537af;}.e{fill:#033ed3;}.f{fill:#052daa;}.g{fill:#061d82;}.h{fill:#080c59;}</style></defs><rect class="a" width="760" height="56" rx="28"/><path class="b" d="M332.5,34v.24h-2.23l-1.58-4.39h-7.35l-1.58,4.39h-2.19V34l6.17-16.56h2.57ZM328,28l-3-8.21H325L322,28Z"/><path class="b" d="M335.14,22h1.75l.27,1.7h.09a4.12,4.12,0,0,1,3.7-1.92c3.22,0,5.19,2.4,5.21,6.36,0,3.62-1.75,6.34-5.21,6.34a4.12,4.12,0,0,1-3.7-1.92h-.09v7.2h-2Zm9,6.14c0-2.47-1-4.56-3.5-4.56s-3.51,2.11-3.51,4.56,1.06,4.54,3.51,4.54S344.12,30.59,344.12,28.14Z"/><path class="b" d="M349.52,22h1.75l.27,1.7h.09a4.11,4.11,0,0,1,3.7-1.92c3.21,0,5.18,2.4,5.21,6.36,0,3.62-1.76,6.34-5.21,6.34a4.11,4.11,0,0,1-3.7-1.92h-.09v7.2h-2Zm9,6.14c0-2.47-1-4.56-3.51-4.56s-3.5,2.11-3.5,4.56,1.05,4.54,3.5,4.54S358.5,30.59,358.5,28.14Z"/><path class="b" d="M363.89,16.5h2V34.26h-2Z"/><path class="b" d="M369.61,18.23a1.27,1.27,0,0,1,1.39-1.4,1.28,1.28,0,0,1,1.39,1.4A1.28,1.28,0,0,1,371,19.64,1.26,1.26,0,0,1,369.61,18.23ZM370,22h2V34.26h-2Z"/><path class="b" d="M375.13,28.14c0-3.82,1.89-6.36,5.54-6.36,3.29,0,4.87,1.94,5,4.42h-2a2.73,2.73,0,0,0-3-2.62c-2.52,0-3.5,2-3.5,4.56s1,4.56,3.5,4.56a2.73,2.73,0,0,0,3.07-2.57h2c-.24,2.59-1.87,4.35-5.06,4.35C377,34.48,375.13,32,375.13,28.14Z"/><path class="b" d="M388.16,30.68c0-2.06,1.46-3.84,5.06-3.84a10.53,10.53,0,0,1,3,.44V26.05c0-1.37-.84-2.54-2.83-2.54-1.8,0-2.69,1-2.72,2.18h-1.94c0-2.35,2-3.91,4.66-3.91,3.14,0,4.79,1.9,4.79,4.22v8.26h-1.7l-.14-1.73h-.1a4.24,4.24,0,0,1-3.84,1.95C389.77,34.48,388.16,32.82,388.16,30.68Zm8.09-1.17v-.63a9.91,9.91,0,0,0-3-.43c-2,0-3,.77-3,2.21,0,1.22.81,2.14,2.59,2.14A3.3,3.3,0,0,0,396.25,29.51Z"/><path class="b" d="M403.13,31.19V23.7h-2V22h2.09V19.38l1.73-.67h.24V22h3v1.7h-3V31c0,1.18.5,1.68,1.61,1.68a4.48,4.48,0,0,0,1.2-.14h.24v1.72a7.85,7.85,0,0,1-1.82.2C404,34.48,403.13,33.23,403.13,31.19Z"/><path class="b" d="M411.05,18.23a1.4,1.4,0,1,1,2.79,0,1.4,1.4,0,1,1-2.79,0Zm.39,3.77h2V34.26h-2Z"/><path class="b" d="M416.57,28.14c0-3.53,1.76-6.36,5.55-6.36s5.54,2.83,5.54,6.36-1.7,6.34-5.54,6.34S416.57,31.67,416.57,28.14Zm9.05,0c0-2.64-1-4.56-3.5-4.56s-3.5,1.94-3.5,4.56,1,4.54,3.5,4.54S425.62,30.78,425.62,28.14Z"/><path class="b" d="M431,22h1.75l.17,1.92h.1a4,4,0,0,1,3.79-2.14c2.71,0,4.3,1.7,4.3,4.51v8h-2V26.6c0-1.92-.89-3-2.83-3S433,25,433,27.49v6.77h-2Z"/><rect class="c" y="58.34" width="760" height="56" rx="28"/><path class="b" d="M311,75.8h6.19c3.43,0,5.54,2.19,5.54,5.31a5.16,5.16,0,0,1-5.54,5.4h-4.11V92.6H311ZM317,84.59c2.33,0,3.65-1.23,3.65-3.48S319.22,77.7,317,77.7h-3.84v6.89Z"/><path class="b" d="M326.37,80.34h1.75l.17,2.06h.1a3.35,3.35,0,0,1,3.24-2.21h1.1v2h-1c-2.33,0-3.38,1.63-3.38,4.51V92.6h-2Z"/><path class="b" d="M334.29,86.48c0-3.55,1.75-6.36,5.55-6.36,3.45,0,5.3,2.57,5.3,6v1H336.4c0,2.33,1.18,3.94,3.46,3.94,1.61,0,2.76-.67,3.1-2h2c-.33,2.26-2.49,3.77-5.11,3.77C336.23,92.82,334.29,90.08,334.29,86.48Zm8.76-1.08c0-1.94-1-3.48-3.21-3.48s-3.34,1.56-3.41,3.48Z"/><path class="b" d="M347.54,88.55h2c0,1.63,1.25,2.47,3,2.47s2.81-.58,2.81-1.75c0-.82-.55-1.47-1.87-1.75L351,87.06c-2-.41-3.12-1.63-3.12-3.43,0-2,1.76-3.51,4.47-3.51s4.73,1.51,4.73,4h-2c-.07-1.56-1.23-2.25-2.76-2.25s-2.52.6-2.52,1.8c0,1,.79,1.51,2.13,1.73l1.92.35c2.31.53,3.48,1.45,3.48,3.56s-2.2,3.55-4.85,3.55C349.65,92.82,347.61,91.24,347.54,88.55Z"/><path class="b" d="M359.8,86.48c0-3.55,1.75-6.36,5.55-6.36,3.45,0,5.3,2.57,5.3,6v1h-8.73c0,2.33,1.17,3.94,3.45,3.94,1.61,0,2.76-.67,3.1-2h2c-.33,2.26-2.49,3.77-5.11,3.77C361.75,92.82,359.8,90.08,359.8,86.48Zm8.76-1.08c0-1.94-1-3.48-3.21-3.48s-3.34,1.56-3.41,3.48Z"/><path class="b" d="M374,80.34h1.75l.17,1.92h.1a4,4,0,0,1,3.79-2.14c2.71,0,4.3,1.71,4.3,4.51v8h-2V85c0-1.92-.89-3-2.83-3S376,83.36,376,85.83V92.6h-2Z"/><path class="b" d="M389,89.53V82h-2v-1.7h2.09V77.72l1.73-.67h.24v3.29h3V82h-3v7.32c0,1.18.5,1.68,1.61,1.68a4.53,4.53,0,0,0,1.2-.14h.24v1.73a8.59,8.59,0,0,1-1.83.19C389.85,92.82,389,91.57,389,89.53Z"/><path class="b" d="M396.38,89c0-2.07,1.46-3.84,5.06-3.84a10.58,10.58,0,0,1,3,.43V84.39c0-1.36-.84-2.54-2.84-2.54-1.8,0-2.68,1-2.71,2.19H397c0-2.36,2-3.92,4.65-3.92,3.15,0,4.8,1.9,4.8,4.23V92.6h-1.7l-.14-1.72h-.1a4.25,4.25,0,0,1-3.84,1.94C398,92.82,396.38,91.16,396.38,89Zm8.09-1.18v-.62a9.92,9.92,0,0,0-3-.44c-2,0-3,.77-3,2.21,0,1.23.81,2.14,2.59,2.14A3.29,3.29,0,0,0,404.47,87.85Z"/><path class="b" d="M411.35,89.53V82h-2v-1.7h2.09V77.72l1.73-.67h.24v3.29h3V82h-3v7.32c0,1.18.5,1.68,1.61,1.68a4.53,4.53,0,0,0,1.2-.14h.24v1.73a8.59,8.59,0,0,1-1.83.19C412.17,92.82,411.35,91.57,411.35,89.53Z"/><path class="b" d="M419.27,76.57a1.4,1.4,0,0,1,2.79,0,1.4,1.4,0,1,1-2.79,0Zm.39,3.77h2V92.6h-2Z"/><path class="b" d="M424.79,86.48c0-3.52,1.76-6.36,5.55-6.36s5.54,2.84,5.54,6.36-1.7,6.34-5.54,6.34S424.79,90,424.79,86.48Zm9,0c0-2.64-1-4.56-3.5-4.56s-3.51,2-3.51,4.56,1,4.54,3.51,4.54S433.84,89.12,433.84,86.48Z"/><path class="b" d="M439.24,80.34H441l.17,1.92h.1a4,4,0,0,1,3.79-2.14c2.71,0,4.3,1.71,4.3,4.51v8h-2V85c0-1.92-.89-3-2.83-3s-3.24,1.44-3.24,3.91V92.6h-2Z"/><rect class="d" y="116.69" width="760" height="56" rx="28"/><path class="b" d="M337.79,145.91h2.14c.12,2.09,1.59,3.36,4.23,3.36s4.1-1,4.1-2.93c0-1.63-1.18-2.35-3-2.74l-2.45-.53c-2.9-.62-4.46-2-4.46-4.53,0-2.83,2.11-4.61,5.83-4.61s5.95,2,6,5H348c-.1-1.82-1.3-3.07-3.89-3.07-2.16,0-3.6.79-3.6,2.69,0,1.37,1.08,2.11,2.86,2.49l2.28.48c3.12.65,4.77,2.26,4.77,4.83,0,3-2.4,4.82-6.28,4.82C340.08,151.16,337.89,149.08,337.79,145.91Z"/><path class="b" d="M353,144.83c0-3.56,1.75-6.36,5.55-6.36,3.45,0,5.3,2.56,5.3,6v1h-8.73c0,2.32,1.17,3.93,3.45,3.93,1.61,0,2.76-.67,3.1-2h2c-.33,2.26-2.49,3.77-5.11,3.77C354.91,151.16,353,148.43,353,144.83Zm8.76-1.08c0-1.95-1-3.48-3.21-3.48s-3.34,1.56-3.41,3.48Z"/><path class="b" d="M366.21,146.89h2c0,1.63,1.24,2.47,3,2.47s2.81-.57,2.81-1.75c0-.82-.56-1.46-1.88-1.75l-2.45-.46c-2-.41-3.12-1.63-3.12-3.43,0-2,1.76-3.5,4.47-3.5s4.73,1.51,4.73,4h-2c-.07-1.56-1.23-2.26-2.76-2.26s-2.52.6-2.52,1.8c0,1,.79,1.51,2.13,1.73l1.92.36c2.31.53,3.49,1.44,3.49,3.55s-2.21,3.55-4.85,3.55C368.32,151.16,366.28,149.58,366.21,146.89Z"/><path class="b" d="M378.47,146.89h2c0,1.63,1.25,2.47,3,2.47s2.81-.57,2.81-1.75c0-.82-.55-1.46-1.87-1.75L382,145.4c-2-.41-3.12-1.63-3.12-3.43,0-2,1.75-3.5,4.46-3.5s4.73,1.51,4.73,4h-2c-.07-1.56-1.22-2.26-2.76-2.26s-2.52.6-2.52,1.8c0,1,.79,1.51,2.14,1.73l1.92.36c2.3.53,3.48,1.44,3.48,3.55s-2.21,3.55-4.85,3.55C380.59,151.16,378.55,149.58,378.47,146.89Z"/><path class="b" d="M391.31,134.91a1.4,1.4,0,0,1,2.79,0,1.4,1.4,0,1,1-2.79,0Zm.39,3.77h2V151h-2Z"/><path class="b" d="M396.83,144.83c0-3.53,1.76-6.36,5.55-6.36s5.54,2.83,5.54,6.36-1.7,6.33-5.54,6.33S396.83,148.36,396.83,144.83Zm9.05,0c0-2.64-1-4.56-3.5-4.56s-3.51,1.94-3.51,4.56,1,4.53,3.51,4.53S405.88,147.47,405.88,144.83Z"/><path class="b" d="M411.28,138.68H413l.17,1.92h.1a4,4,0,0,1,3.79-2.13c2.71,0,4.3,1.7,4.3,4.51v8h-2v-7.66c0-1.92-.89-3-2.83-3s-3.24,1.44-3.24,3.91V151h-2Z"/><rect class="e" y="175.03" width="760" height="56" rx="28"/><path class="b" d="M331.82,194.41h-5.21v-1.92h12.53v1.92h-5.21v14.88h-2.11Z"/><path class="b" d="M340.94,197h1.75l.17,2.06h.1a3.32,3.32,0,0,1,3.24-2.21h1.1v2h-1c-2.33,0-3.38,1.63-3.38,4.51v5.95h-2Z"/><path class="b" d="M349.34,205.71c0-2.06,1.46-3.83,5.06-3.83a10.58,10.58,0,0,1,3,.43v-1.23c0-1.37-.84-2.54-2.83-2.54-1.81,0-2.69,1-2.72,2.18h-1.94c0-2.35,2-3.91,4.66-3.91,3.14,0,4.8,1.9,4.8,4.22v8.26h-1.71l-.14-1.73h-.1a4.24,4.24,0,0,1-3.84,1.95C351,209.51,349.34,207.85,349.34,205.71Zm8.09-1.17v-.63a9.91,9.91,0,0,0-3-.43c-2,0-3,.77-3,2.21,0,1.23.82,2.14,2.59,2.14A3.3,3.3,0,0,0,357.43,204.54Z"/><path class="b" d="M363.47,197h1.76l.16,1.92h.1a4,4,0,0,1,3.79-2.14c2.72,0,4.3,1.7,4.3,4.51v8h-2v-7.66c0-1.92-.88-3-2.83-3s-3.24,1.44-3.24,3.91v6.77h-2Z"/><path class="b" d="M376.7,205.23h2c0,1.64,1.25,2.48,3,2.48s2.81-.58,2.81-1.75c0-.82-.55-1.47-1.87-1.76l-2.45-.45c-2-.41-3.12-1.64-3.12-3.44,0-2,1.75-3.5,4.47-3.5s4.73,1.51,4.73,4h-2c-.08-1.56-1.23-2.26-2.76-2.26s-2.52.6-2.52,1.8c0,1,.79,1.52,2.13,1.73l1.92.36c2.31.53,3.48,1.44,3.48,3.56s-2.2,3.55-4.85,3.55C378.81,209.51,376.77,207.92,376.7,205.23Z"/><path class="b" d="M389.92,197h1.75l.27,1.7H392a4.12,4.12,0,0,1,3.7-1.92c3.22,0,5.19,2.4,5.21,6.36,0,3.62-1.75,6.34-5.21,6.34a4.12,4.12,0,0,1-3.7-1.92h-.09v7.2h-2Zm9,6.14c0-2.47-1-4.56-3.51-4.56s-3.5,2.11-3.5,4.56,1.06,4.54,3.5,4.54S398.9,205.62,398.9,203.17Z"/><path class="b" d="M403.34,203.17c0-3.53,1.75-6.36,5.54-6.36s5.55,2.83,5.55,6.36-1.71,6.34-5.55,6.34S403.34,206.7,403.34,203.17Zm9.05,0c0-2.64-1-4.56-3.51-4.56s-3.5,1.94-3.5,4.56,1,4.54,3.5,4.54S412.39,205.81,412.39,203.17Z"/><path class="b" d="M417.79,197h1.75l.17,2.06h.09a3.34,3.34,0,0,1,3.24-2.21h1.11v2h-1c-2.33,0-3.39,1.63-3.39,4.51v5.95h-2Z"/><path class="b" d="M428,206.22v-7.49h-2V197H428v-2.62l1.73-.67H430V197h3v1.7h-3v7.32c0,1.18.51,1.68,1.61,1.68a4.42,4.42,0,0,0,1.2-.14h.24v1.72a7.78,7.78,0,0,1-1.82.2C428.8,209.51,428,208.26,428,206.22Z"/><rect class="f" y="233.37" width="760" height="56" rx="28"/><path class="b" d="M335.63,250.83h2.28l8.6,13.37h.09V250.83h2.07v16.8h-2.31l-8.59-13.29h-.1v13.29h-2Z"/><path class="b" d="M352.27,261.51c0-3.55,1.75-6.36,5.54-6.36,3.46,0,5.31,2.57,5.31,6v1h-8.74c0,2.33,1.17,3.94,3.45,3.94,1.61,0,2.77-.67,3.1-2h2c-.34,2.26-2.5,3.77-5.12,3.77C354.21,267.85,352.27,265.12,352.27,261.51Zm8.76-1.08c0-1.94-1-3.48-3.22-3.48s-3.34,1.56-3.41,3.48Z"/><path class="b" d="M367.31,264.56v-7.49h-2v-1.7h2.09v-2.62l1.73-.67h.24v3.29h3v1.7h-3v7.32c0,1.18.5,1.68,1.61,1.68a4.48,4.48,0,0,0,1.2-.14h.24v1.73a8.59,8.59,0,0,1-1.83.19C368.13,267.85,367.31,266.6,367.31,264.56Z"/><path class="b" d="M373.94,255.61v-.24H376l2.44,9.53h.1l2.88-9.53h2.06l2.88,9.53h.1l2.45-9.53h2v.24l-3.46,12h-2.08l-2.89-9.52h-.09l-2.95,9.52h-2.09Z"/><path class="b" d="M392.66,261.51c0-3.52,1.75-6.36,5.54-6.36s5.55,2.84,5.55,6.36-1.71,6.34-5.55,6.34S392.66,265,392.66,261.51Zm9,0c0-2.64-1-4.56-3.51-4.56s-3.5,1.95-3.5,4.56,1,4.54,3.5,4.54S401.71,264.15,401.71,261.51Z"/><path class="b" d="M407.11,255.37h1.75l.17,2.06h.09a3.35,3.35,0,0,1,3.24-2.2h1.11v1.94h-1c-2.33,0-3.39,1.63-3.39,4.51v5.95h-2Z"/><path class="b" d="M418.48,249.87v17.76h-2V249.87Zm7.71,17.52v.24h-2.33l-5.38-6.88,5.19-5.38H426v.24l-5,5.14Z"/><rect class="g" y="291.72" width="760" height="56" rx="28"/><path class="b" d="M329.63,309.18h5.57c4.78,0,7.49,3.36,7.49,8.4,0,4.68-2.47,8.4-7.49,8.4h-5.57Zm5.36,14.9c3.86,0,5.54-3,5.54-6.5s-1.68-6.48-5.54-6.48h-3.27v13Z"/><path class="b" d="M345.33,322.4c0-2.06,1.46-3.84,5.07-3.84a10.93,10.93,0,0,1,3,.43v-1.22c0-1.37-.84-2.54-2.83-2.54-1.8,0-2.69,1-2.71,2.18h-1.95c0-2.35,2-3.91,4.66-3.91,3.14,0,4.8,1.89,4.8,4.22V326h-1.71l-.14-1.73h-.1a4.24,4.24,0,0,1-3.84,1.95C346.94,326.2,345.33,324.54,345.33,322.4Zm8.09-1.17v-.63a9.85,9.85,0,0,0-3-.43c-2,0-3,.77-3,2.21,0,1.22.82,2.13,2.59,2.13A3.29,3.29,0,0,0,353.42,321.23Z"/><path class="b" d="M360.31,322.91v-7.49h-2v-1.71h2.09V311.1l1.72-.67h.24v3.28h3v1.71h-3v7.32c0,1.18.51,1.68,1.61,1.68a4.42,4.42,0,0,0,1.2-.14h.24V326a7.71,7.71,0,0,1-1.82.2C361.12,326.2,360.31,325,360.31,322.91Z"/><path class="b" d="M367.65,322.4c0-2.06,1.47-3.84,5.06-3.84a11,11,0,0,1,3,.43v-1.22c0-1.37-.84-2.54-2.83-2.54-1.8,0-2.69,1-2.71,2.18h-1.95c0-2.35,2-3.91,4.66-3.91,3.14,0,4.8,1.89,4.8,4.22V326H376l-.14-1.73h-.1a4.24,4.24,0,0,1-3.84,1.95C369.26,326.2,367.65,324.54,367.65,322.4Zm8.09-1.17v-.63a9.91,9.91,0,0,0-3-.43c-2,0-3,.77-3,2.21,0,1.22.82,2.13,2.59,2.13A3.29,3.29,0,0,0,375.74,321.23Z"/><path class="b" d="M389.23,309.18h2.08v14.88h8.12V326h-10.2Z"/><path class="b" d="M401.8,310a1.4,1.4,0,1,1,1.39,1.41A1.27,1.27,0,0,1,401.8,310Zm.39,3.76h2V326h-2Z"/><path class="b" d="M408.28,313.71H410l.17,1.92h.1a4,4,0,0,1,3.79-2.13c2.71,0,4.3,1.7,4.3,4.51v8h-2v-7.66c0-1.92-.89-3-2.83-3s-3.24,1.44-3.24,3.91V326h-2Z"/><path class="b" d="M424.48,308.22V326h-2V308.22Zm7.71,17.52V326h-2.33l-5.38-6.89,5.19-5.38H432V314l-5,5.14Z"/><rect class="h" y="350.06" width="760" height="56" rx="28"/><path class="b" d="M336.13,367.52h6.19c3.43,0,5.54,2.19,5.54,5.31a5.16,5.16,0,0,1-5.54,5.4h-4.11v6.09h-2.08Zm5.92,8.79c2.33,0,3.65-1.23,3.65-3.48s-1.39-3.41-3.65-3.41h-3.84v6.89Z"/><path class="b" d="M351,366.56h2V374h.09a3.94,3.94,0,0,1,3.75-2.14c2.71,0,4.34,1.71,4.34,4.51v8h-2v-7.65c0-1.92-.94-3-2.88-3s-3.29,1.49-3.29,4v6.72h-2Z"/><path class="b" d="M366.2,389.58l2.09-5.35,0-.05-4.92-11.88v-.24h2.16l3.72,9.62h.1l3.6-9.62H375v.24l-6.79,17.52h-2Z"/><path class="b" d="M376.71,380.27h2c0,1.63,1.24,2.47,3,2.47s2.81-.58,2.81-1.75c0-.82-.56-1.47-1.88-1.76l-2.45-.45c-2-.41-3.12-1.63-3.12-3.43,0-2,1.76-3.51,4.47-3.51s4.73,1.51,4.73,4h-2c-.07-1.56-1.23-2.25-2.76-2.25s-2.52.6-2.52,1.8c0,1,.79,1.51,2.13,1.72l1.92.36c2.31.53,3.49,1.45,3.49,3.56s-2.21,3.55-4.85,3.55C378.82,384.54,376.78,383,376.71,380.27Z"/><path class="b" d="M389.55,368.29a1.39,1.39,0,1,1,2.78,0,1.39,1.39,0,1,1-2.78,0Zm.38,3.77h2v12.26h-2Z"/><path class="b" d="M395.07,378.2c0-3.81,1.9-6.36,5.55-6.36,3.28,0,4.87,2,5,4.42h-2a2.74,2.74,0,0,0-3-2.62c-2.53,0-3.51,2-3.51,4.56s1,4.56,3.51,4.56a2.74,2.74,0,0,0,3.07-2.57h2c-.24,2.6-1.87,4.35-5.06,4.35C397,384.54,395.07,382.07,395.07,378.2Z"/><path class="b" d="M408.1,380.75c0-2.07,1.47-3.84,5.07-3.84a10.56,10.56,0,0,1,3,.43v-1.23c0-1.36-.84-2.54-2.83-2.54-1.8,0-2.69,1-2.71,2.18H408.7c0-2.35,2-3.91,4.66-3.91,3.14,0,4.8,1.9,4.8,4.23v8.25h-1.7l-.15-1.73h-.1a4.23,4.23,0,0,1-3.83,2C409.71,384.54,408.1,382.88,408.1,380.75Zm8.09-1.18V379a9.56,9.56,0,0,0-3-.44c-2,0-3,.77-3,2.21,0,1.23.82,2.14,2.59,2.14A3.29,3.29,0,0,0,416.19,379.57Z"/><path class="b" d="M422.24,366.56h2v17.76h-2Z"/></svg>