<svg xmlns="http://www.w3.org/2000/svg" viewBox="0 0 760 502"><defs><style>.a{fill:#033ed3;}.b{fill:#080c59;}.c{fill:#fff;}</style></defs><circle class="a" cx="755.833" cy="317.171" r="3.75"/><path class="a" d="M722,407.5a.487.487,0,0,1-.175-.032.5.5,0,0,1-.292-.645l33.833-89.829a.5.5,0,0,1,.935.353l-33.833,89.829A.5.5,0,0,1,722,407.5Z"/><path class="a" d="M453.248,327.186a.5.5,0,0,1-.236-.941l52.881-28.4a.5.5,0,1,1,.473.881l-52.881,28.4A.491.491,0,0,1,453.248,327.186Z"/><path class="a" d="M582.384,356.787a.54.54,0,0,1-.112-.012L453.388,326.987a.5.5,0,1,1,.225-.975L582.5,355.8a.5.5,0,0,1-.113.987Z"/><path class="a" d="M582.384,356.787a.5.5,0,0,1-.447-.722l34.63-69.565a.5.5,0,0,1,.447-.278h.011l53.233,1.188a.5.5,0,0,1,.3.895l-87.863,68.377A.5.5,0,0,1,582.384,356.787Zm34.937-69.558-33.51,67.315,85.02-66.165Z"/><path class="a" d="M582.384,356.787a.5.5,0,0,1-.447-.277L515.455,222.953a.5.5,0,1,1,.894-.445l66.482,133.557a.5.5,0,0,1-.224.67A.493.493,0,0,1,582.384,356.787Z"/><path class="a" d="M342.368,409.627a.444.444,0,0,1-.063,0,.5.5,0,0,1-.415-.348L309.653,304.717l-65.724,20.5a.5.5,0,0,1-.3-.955l66.2-20.654a.5.5,0,0,1,.626.33l32.06,103.982,50.093-81.546a.5.5,0,0,1,.426-.239h0l60.209.047a.5.5,0,0,1,0,1h0l-59.93-.047-50.525,82.25A.5.5,0,0,1,342.368,409.627Z"/><path class="a" d="M145.813,333.592a.5.5,0,0,1-.308-.106L43.183,253.451a.5.5,0,0,1,.254-.891l64.525-7.029a.509.509,0,0,1,.551.443.5.5,0,0,1-.443.551l-63.3,6.9L146.121,332.7a.5.5,0,0,1-.308.894Z"/><path class="a" d="M506.129,298.781a.493.493,0,0,1-.352-.145l-41.16-41.026a.5.5,0,1,1,.7-.708l41.16,41.025a.5.5,0,0,1-.353.854Z"/><path class="a" d="M617.014,287.222a.5.5,0,0,1-.385-.819l62.382-74.969-9.254-83.922L626.2,219.046a.5.5,0,1,1-.9-.43L669.611,125.5a.5.5,0,0,1,.948.16l9.47,85.881a.5.5,0,0,1-.113.374L617.4,287.042A.5.5,0,0,1,617.014,287.222Z"/><path class="a" d="M527.668,162.1a.5.5,0,0,1-.147-.022l-85.673-26.369a.5.5,0,0,1,.295-.956L527.439,161l38.805-65.57a.5.5,0,0,1,.861.51L528.1,161.852A.5.5,0,0,1,527.668,162.1Z"/><path class="a" d="M414.58,265.967a.494.494,0,0,1-.256-.07l-56.545-33.666a.5.5,0,0,1,.511-.859l56.545,33.665a.5.5,0,0,1-.255.93Z"/><path class="a" d="M259.371,253.24a.487.487,0,0,1-.21-.047.5.5,0,0,1-.244-.664L283.6,199.294a.5.5,0,1,1,.907.421L259.824,252.95A.5.5,0,0,1,259.371,253.24Z"/><path class="a" d="M108.016,246.528a.443.443,0,0,1-.072,0,.5.5,0,0,1-.418-.4l-18.552-91.51a.5.5,0,0,1,.981-.2l18.274,90.145,67.614-126.926a.5.5,0,1,1,.883.47L108.457,246.263A.5.5,0,0,1,108.016,246.528Z"/><path class="a" d="M43.491,253.557a.505.505,0,0,1-.211-.046.5.5,0,0,1-.242-.665l45.973-98.539a.5.5,0,1,1,.906.423L43.944,253.269A.5.5,0,0,1,43.491,253.557Z"/><path class="a" d="M145.813,333.592a.5.5,0,0,1-.459-.3l-37.8-87.064a.5.5,0,0,1,.918-.4l37.8,87.063a.5.5,0,0,1-.459.7Z"/><path class="a" d="M243.781,325.243a.483.483,0,0,1-.106-.011.5.5,0,0,1-.383-.6l15.59-72a.5.5,0,1,1,.977.211l-15.59,72A.5.5,0,0,1,243.781,325.243Z"/><path class="a" d="M145.812,333.592a.5.5,0,0,1-.041-1l97.968-8.349a.515.515,0,0,1,.54.456.5.5,0,0,1-.456.54l-97.968,8.349Z"/><path class="a" d="M193.122,272.032a.5.5,0,0,1-.136-.981l66.248-18.792a.5.5,0,1,1,.273.961l-66.248,18.793A.5.5,0,0,1,193.122,272.032Z"/><path class="a" d="M284.053,200.005a.5.5,0,0,1-.3-.1L175.983,118.271a.5.5,0,1,1,.6-.8l107.769,81.632a.5.5,0,0,1-.3.9Z"/><path class="a" d="M309.984,304.59a.5.5,0,0,1-.108-.012.5.5,0,0,1-.381-.595L334.082,191.46a.5.5,0,0,1,.6-.381.5.5,0,0,1,.382.595L310.471,304.2A.5.5,0,0,1,309.984,304.59Z"/><path class="a" d="M176.285,118.373a.5.5,0,0,1-.025-1l126.08-6.046a.479.479,0,0,1,.524.475.5.5,0,0,1-.475.524l-126.08,6.046Z"/><path class="a" d="M442.131,135.7a.5.5,0,0,1-.151-.976L566.523,95.212a.5.5,0,0,1,.291,0L670.2,125.23a.5.5,0,0,1-.28.96L566.681,96.211l-124.4,39.467A.506.506,0,0,1,442.131,135.7Z"/><path class="a" d="M453.248,327.186a.5.5,0,0,1-.45-.283c-.572-1.188-24.843-39.455-38.089-60.3l-21.2,60.2a.5.5,0,0,1-.6.317l-83.056-22.55a.5.5,0,0,1-.285-.759l48.052-72.288a.5.5,0,1,1,.832.553l-47.667,71.711,81.937,22.246L414.108,265.3a.5.5,0,0,1,.893-.1c1.436,2.258,32.778,51.577,37.981,60.064l11.494-68.09a.51.51,0,0,1,.576-.411.5.5,0,0,1,.41.577l-11.72,69.43a.5.5,0,0,1-.423.412A.565.565,0,0,1,453.248,327.186Z"/><path class="a" d="M617.014,287.222a.492.492,0,0,1-.267-.077L515.634,223.153a.5.5,0,0,1,.535-.845L617.282,286.3a.5.5,0,0,1-.268.922Z"/><path class="a" d="M414.58,265.967a.5.5,0,0,1-.483-.37L381.208,143.252a.5.5,0,1,1,.965-.26l32.889,122.345a.5.5,0,0,1-.353.613A.487.487,0,0,1,414.58,265.967Z"/><path class="a" d="M670.248,288.41c-.02,0-.041,0-.061,0a.5.5,0,0,1-.436-.557l9.206-75.677-53.147,7.154a.5.5,0,0,1-.318-.064l-98.076-57.234a.5.5,0,0,1,.5-.864l97.927,57.148,53.618-7.218a.506.506,0,0,1,.418.14.5.5,0,0,1,.145.416l-9.284,76.32A.5.5,0,0,1,670.248,288.41Z"/><path class="a" d="M515.9,223.231a.52.52,0,0,1-.1-.009.5.5,0,0,1-.4-.586L527.023,162.3l-63.261,18.249a.5.5,0,0,1-.277-.961l64.045-18.475a.5.5,0,0,1,.475.112.5.5,0,0,1,.155.464l-11.767,61.133A.5.5,0,0,1,515.9,223.231Z"/><path class="a" d="M464.969,257.756a.5.5,0,0,1-.5-.492l-1.346-77.184a.5.5,0,0,1,1-.017l1.346,77.184a.5.5,0,0,1-.491.509Z"/><path class="a" d="M515.9,223.231a.5.5,0,0,1-.317-.113l-52.278-42.659a.5.5,0,0,1,.633-.775l52.278,42.66a.5.5,0,0,1-.316.887Z"/><path class="a" d="M463.623,180.572a.5.5,0,0,1-.2-.045l-81.932-36.95a.5.5,0,1,1,.41-.911l81.933,36.95a.5.5,0,0,1-.206.956Z"/><path class="a" d="M617.015,287.222c-.021,0-.043,0-.064,0a.5.5,0,0,1-.433-.561l8.729-67.891a.507.507,0,0,1,.56-.432.5.5,0,0,1,.433.56l-8.73,67.891A.5.5,0,0,1,617.015,287.222Z"/><path class="a" d="M625.744,219.331a.5.5,0,0,1-.452-.283L566.223,95.905a.5.5,0,0,1,.9-.433L626.2,218.615a.5.5,0,0,1-.236.667A.482.482,0,0,1,625.744,219.331Z"/><path class="a" d="M515.9,223.231a.5.5,0,0,1-.018-1l109.842-3.9a.488.488,0,0,1,.518.482.5.5,0,0,1-.483.517l-109.842,3.9Z"/><path class="a" d="M393.039,327.139a.5.5,0,0,1-.469-.326l-35-94.838a.5.5,0,1,1,.937-.347l35,94.838a.5.5,0,0,1-.3.643A.491.491,0,0,1,393.039,327.139Z"/><path class="a" d="M358.035,232.3a.5.5,0,0,1-.432-.249l-23.464-40.234a.5.5,0,1,1,.863-.5l23.464,40.235a.5.5,0,0,1-.431.752Z"/><path class="a" d="M334.571,192.067a.5.5,0,0,1-.359-.848l47.12-48.446a.5.5,0,1,1,.717.7l-47.12,48.446A.5.5,0,0,1,334.571,192.067Z"/><path class="a" d="M334.571,192.067a.5.5,0,0,1-.464-.313L301.9,112.013a.5.5,0,0,1,.928-.374l32.206,79.741a.5.5,0,0,1-.277.651A.513.513,0,0,1,334.571,192.067Z"/><path class="a" d="M259.371,253.24a.5.5,0,0,1-.316-.888l75.2-61.173a.5.5,0,0,1,.631.776l-75.2,61.172A.5.5,0,0,1,259.371,253.24Z"/><path class="a" d="M309.983,304.59a.5.5,0,0,1-.357-.149l-50.612-51.35a.5.5,0,0,1,.713-.7l50.612,51.351a.5.5,0,0,1-.006.707A.493.493,0,0,1,309.983,304.59Z"/><path class="a" d="M259.371,253.24a.5.5,0,0,1-.392-.19l-42.89-54.193a.5.5,0,1,1,.783-.62l42.89,54.192a.5.5,0,0,1-.391.811Z"/><path class="a" d="M193.122,272.032a.507.507,0,0,1-.152-.024.5.5,0,0,1-.324-.628L216,198.394a.5.5,0,0,1,.953.305L193.6,271.684A.5.5,0,0,1,193.122,272.032Z"/><path class="a" d="M108.016,246.528a.5.5,0,0,1-.2-.958l108.465-47.481a.5.5,0,1,1,.4.916L108.216,246.486A.485.485,0,0,1,108.016,246.528Z"/><path class="a" d="M284.052,200.005a.5.5,0,0,1-.076-.994l50.518-7.938a.509.509,0,0,1,.571.417.5.5,0,0,1-.417.571L284.13,200A.493.493,0,0,1,284.052,200.005Z"/><path class="a" d="M302.365,112.326a.5.5,0,0,1-.216-.951l87.635-41.9a.5.5,0,1,1,.431.9l-87.635,41.9A.5.5,0,0,1,302.365,112.326Z"/><path class="a" d="M193.122,272.032a.516.516,0,0,1-.143-.021l-85.107-25.5a.5.5,0,0,1,.288-.958l85.106,25.5a.5.5,0,0,1-.144.979Z"/><path class="a" d="M243.781,325.243a.5.5,0,0,1-.363-.155L192.76,271.877a.5.5,0,0,1,.725-.69L244.143,324.4a.5.5,0,0,1-.362.844Z"/><path class="a" d="M145.813,333.592a.5.5,0,0,1-.4-.805l47.31-61.56a.5.5,0,0,1,.793.61L146.209,333.4A.5.5,0,0,1,145.813,333.592Z"/><path class="a" d="M342.368,409.627a.5.5,0,0,1-.3-.9l110.881-82.442a.5.5,0,1,1,.595.8L342.665,409.529A.494.494,0,0,1,342.368,409.627Z"/><path class="a" d="M405.79,456.794a.5.5,0,0,1-.3-.1l-63.423-47.167-98.614-84.406a.5.5,0,0,1,.651-.759l98.587,84.383,63.4,47.146a.5.5,0,0,1-.3.9Z"/><path class="a" d="M405.79,456.794a.5.5,0,0,1-.248-.934l116.109-66.429a.5.5,0,0,1,.5.868L406.039,456.728A.5.5,0,0,1,405.79,456.794Z"/><path class="a" d="M405.79,456.794a.509.509,0,0,1-.171-.03.5.5,0,0,1-.3-.642l47.458-129.608a.5.5,0,1,1,.939.344L406.26,456.466A.5.5,0,0,1,405.79,456.794Z"/><path class="a" d="M521.9,390.365a.5.5,0,0,1-.339-.132l-68.65-63.18a.5.5,0,1,1,.677-.735L522.238,389.5a.5.5,0,0,1-.339.868Z"/><path class="a" d="M591.137,419.514a.513.513,0,0,1-.194-.039l-69.238-29.149a.5.5,0,1,1,.388-.922l69.238,29.149a.5.5,0,0,1-.194.961Z"/><path class="a" d="M521.9,390.365a.5.5,0,0,1-.243-.937l60.485-33.578a.5.5,0,1,1,.486.874L522.142,390.3A.5.5,0,0,1,521.9,390.365Z"/><path class="a" d="M204.942,411.091a.5.5,0,0,1-.4-.2l-59.129-77.5a.5.5,0,1,1,.8-.607l58.977,77.3,137.176-1.461h0a.5.5,0,0,1,0,1l-137.425,1.464Z"/><path class="a" d="M204.942,411.091a.5.5,0,0,1-.455-.706l38.839-85.848a.5.5,0,0,1,.91.412L205.4,410.8A.5.5,0,0,1,204.942,411.091Z"/><path class="a" d="M204.942,411.091a.49.49,0,0,1-.21-.047L95.8,360.593a.5.5,0,1,1,.42-.907l108.935,50.451a.5.5,0,0,1-.21.954Z"/><path class="a" d="M96.007,360.639a.5.5,0,0,1-.238-.939l49.806-27.048a.5.5,0,0,1,.476.879l-49.8,27.048A.5.5,0,0,1,96.007,360.639Z"/><path class="a" d="M316.225,496.616a.478.478,0,0,1-.144-.021.5.5,0,0,1-.334-.623l26.142-86.989a.5.5,0,1,1,.957.288L316.7,496.261A.5.5,0,0,1,316.225,496.616Z"/><path class="a" d="M316.225,496.616a.5.5,0,0,1-.2-.957l89.565-39.822a.5.5,0,0,1,.407.914l-89.566,39.822A.488.488,0,0,1,316.225,496.616Z"/><path class="a" d="M405.789,456.794a.5.5,0,0,1-.047-1l116.685-11.415a.5.5,0,1,1,.1,1L405.839,456.792Z"/><path class="a" d="M522.476,445.379a.5.5,0,0,1-.5-.494L521.4,389.87a.5.5,0,0,1,.5-.5h0a.5.5,0,0,1,.5.5l.569,54.3,67.993-25.613a.5.5,0,1,1,.352.936l-68.661,25.865A.507.507,0,0,1,522.476,445.379Z"/><path class="a" d="M640.18,442.3a.512.512,0,0,1-.211-.046l-49.043-22.786a.5.5,0,0,1,.422-.908l49.043,22.786a.5.5,0,0,1-.211.954Z"/><path class="a" d="M582.383,356.787a.5.5,0,0,1-.067-1L654,345.936a.5.5,0,1,1,.137.99l-71.685,9.856A.412.412,0,0,1,582.383,356.787Z"/><path class="a" d="M654.07,346.931a.507.507,0,0,1-.133-.018.5.5,0,0,1-.349-.615l16.178-58.521a.5.5,0,1,1,.963.267l-16.178,58.52A.5.5,0,0,1,654.07,346.931Z"/><path class="a" d="M640.181,442.3a.448.448,0,0,1-.073,0,.5.5,0,0,1-.423-.567l13.89-95.369a.5.5,0,0,1,.99.144l-13.89,95.369A.5.5,0,0,1,640.181,442.3Z"/><path class="a" d="M654.07,346.931a.5.5,0,0,1-.138-.981L755.7,316.69a.5.5,0,1,1,.275.961l-101.764,29.26A.459.459,0,0,1,654.07,346.931Z"/><path class="a" d="M755.833,317.671a.514.514,0,0,1-.162-.027l-85.586-29.26a.5.5,0,0,1,.325-.947L756,316.7a.5.5,0,0,1-.163.973Z"/><path class="a" d="M755.833,317.671a.5.5,0,0,1-.4-.207l-76.3-105.58a.5.5,0,1,1,.811-.586l76.3,105.58a.5.5,0,0,1-.406.793Z"/><path class="a" d="M640.18,442.3a.5.5,0,0,1-.195-.96l81.82-34.8a.5.5,0,0,1,.391.92l-81.821,34.8A.493.493,0,0,1,640.18,442.3Z"/><path class="a" d="M679.532,212.091a.488.488,0,0,1-.164-.028.5.5,0,0,1-.309-.636L737.442,43.52,670.45,126.025a.5.5,0,0,1-.776-.63l68.788-84.718a.5.5,0,0,1,.861.479L680,211.755A.5.5,0,0,1,679.532,212.091Z"/><path class="a" d="M358.035,232.3a.484.484,0,0,1-.129-.018.5.5,0,0,1-.355-.611l23.656-88.68a.5.5,0,0,1,.967.258L358.518,231.93A.5.5,0,0,1,358.035,232.3Z"/><path class="a" d="M381.694,143.418a.377.377,0,0,1-.058,0,.5.5,0,0,1-.44-.553l8.313-72.73a.5.5,0,0,1,.994.113l-8.313,72.73A.5.5,0,0,1,381.694,143.418Z"/><path class="a" d="M442,135.728a.5.5,0,0,1-.392-.188l-52-65.3a.5.5,0,0,1,.783-.623l52,65.305a.5.5,0,0,1-.08.7A.494.494,0,0,1,442,135.728Z"/><path class="a" d="M442.131,135.7a.5.5,0,0,1-.416-.777l62.869-94.2a.5.5,0,0,1,.832.555l-62.869,94.2A.5.5,0,0,1,442.131,135.7Z"/><path class="a" d="M566.674,96.188a.5.5,0,0,1-.332-.126L504.668,41.374a.5.5,0,0,1,.664-.748l61.461,54.5L738.7,40.516a.5.5,0,1,1,.3.953l-172.175,54.7A.529.529,0,0,1,566.674,96.188Z"/><path class="a" d="M176.285,118.373a.494.494,0,0,1-.3-.1.5.5,0,0,1-.094-.7L261.2,5.884a.5.5,0,0,1,.467-.192.5.5,0,0,1,.4.315l40.763,105.639a.5.5,0,0,1-.933.361L261.456,7.2,176.682,118.177A.5.5,0,0,1,176.285,118.373Z"/><path class="a" d="M176.285,118.373a.491.491,0,0,1-.226-.054L51.432,55.261a.5.5,0,0,1,.451-.893L176.51,117.427a.5.5,0,0,1-.225.946Z"/><path class="a" d="M89.464,155.018a.5.5,0,0,1-.217-.05L40.159,131.173a.5.5,0,0,1-.277-.524L51.164,54.741a.5.5,0,0,1,.38-.414L261.488,5.7a.5.5,0,0,1,.336.04L390.056,69.393,504.878,40.515a.5.5,0,1,1,.244.97l-115,28.923a.5.5,0,0,1-.345-.037L261.539,6.715,52.1,55.225,40.925,130.433l48.757,23.636a.5.5,0,0,1-.218.949Z"/><path class="a" d="M43.491,253.557a.5.5,0,0,1-.428-.24L6.552,193.049a.5.5,0,0,1,.856-.518L43.918,252.8a.5.5,0,0,1-.169.687A.494.494,0,0,1,43.491,253.557Z"/><path class="a" d="M145.814,333.592a.4.4,0,0,1-.049,0L3.718,319.884a.5.5,0,0,1-.381-.754L43.062,252.8a.5.5,0,1,1,.857.513L4.6,318.965l141.26,13.629a.5.5,0,0,1-.047,1Z"/><path class="a" d="M316.225,496.616a.5.5,0,0,1-.305-.1L204.87,411.166l-50.249,21.553a.5.5,0,0,1-.586-.146l-58.1-71.729L19.469,423.233a.5.5,0,0,1-.81-.313L3.272,319.46a.5.5,0,0,1,.7-.531l92.241,40.753a.5.5,0,0,1,.193.15l58.172,71.819,50.171-21.52a.5.5,0,0,1,.5.063L316.53,495.72a.5.5,0,0,1-.3.9ZM4.394,320.211,19.518,421.9,95.06,360.267Z"/><path class="a" d="M6.98,193.29a.5.5,0,0,1-.441-.737l33.4-62.067a.5.5,0,1,1,.881.474L7.42,193.027A.5.5,0,0,1,6.98,193.29Z"/><path class="a" d="M6.98,193.29a.5.5,0,0,1-.21-.954l82.484-38.271a.5.5,0,0,1,.42.907L7.19,193.243A.493.493,0,0,1,6.98,193.29Z"/><circle class="a" cx="40.474" cy="130.794" r="3.75"/><circle class="a" cx="6.98" cy="192.79" r="3.75"/><circle class="a" cx="43.642" cy="253.105" r="3.75"/><circle class="a" cx="4.313" cy="319.156" r="3.75"/><circle class="a" cx="108.418" cy="246.315" r="3.75"/><circle class="a" cx="145.812" cy="333.092" r="3.75"/><circle class="a" cx="192.859" cy="271.624" r="3.75"/><circle class="a" cx="243.781" cy="324.744" r="3.75"/><circle class="a" cx="259.344" cy="252.708" r="3.75"/><circle class="a" cx="310.038" cy="304.365" r="3.75"/><circle class="a" cx="358.035" cy="231.801" r="3.75"/><circle class="a" cx="334.571" cy="191.567" r="3.75"/><circle class="a" cx="261.653" cy="5.995" r="3.75"/><circle class="a" cx="505" cy="41" r="3.75"/><circle class="a" cx="390" cy="70" r="3.75"/><circle class="a" cx="527.668" cy="161.597" r="3.75"/><circle class="a" cx="566.674" cy="95.688" r="3.75"/><circle class="a" cx="670" cy="126" r="3.75"/><circle class="a" cx="738.85" cy="41" r="3.75"/><circle class="a" cx="679.404" cy="212.092" r="3.75"/><circle class="a" cx="670.248" cy="287.911" r="3.75"/><circle class="a" cx="617.118" cy="286.888" r="3.75"/><circle class="a" cx="626" cy="219" r="3.75"/><circle class="a" cx="640.18" cy="441.713" r="3.75"/><circle class="a" cx="521.899" cy="389.865" r="3.75"/><circle class="a" cx="453.045" cy="326.55" r="3.75"/><circle class="a" cx="392.912" cy="326.386" r="3.75"/><circle class="a" cx="342.426" cy="409.306" r="3.75"/><circle class="a" cx="316" cy="496" r="3.75"/><circle class="a" cx="205.117" cy="410.819" r="3.75"/><circle class="a" cx="95.895" cy="359.837" r="3.75"/><circle class="a" cx="154.163" cy="432.531" r="3.75"/><circle class="a" cx="18.893" cy="422.685" r="3.75"/><circle class="a" cx="405.664" cy="456.041" r="3.75"/><circle class="a" cx="522.476" cy="444.879" r="3.75"/><path class="b" d="M506.133,301.282a3,3,0,0,1-2.979-3.385l9.772-75.551a3,3,0,0,1,5.951.769l-9.772,75.551A3,3,0,0,1,506.133,301.282Z"/><path class="b" d="M463.625,183.072a3,3,0,0,1-2.7-1.7l-21.628-44.844a3,3,0,0,1,5.4-2.606l21.628,44.843a3,3,0,0,1-2.7,4.3Z"/><path class="b" d="M414.579,268.467a3,3,0,0,1-2.6-4.494l49.044-85.4a3,3,0,1,1,5.2,2.989l-45.9,79.925,43.51-7.09,50.385-34.154a3,3,0,0,1,3.367,4.967l-50.932,34.525a3.016,3.016,0,0,1-1.2.478l-50.39,8.211A3.034,3.034,0,0,1,414.579,268.467Z"/><path class="b" d="M582.382,359.287a2.984,2.984,0,0,1-1.814-.612l-76.255-58.006a3,3,0,1,1,3.633-4.775L584.2,353.9a3,3,0,0,1-1.819,5.387Z"/><path class="b" d="M591.133,422.014a3,3,0,0,1-2.968-2.586L579.413,356.7a3,3,0,1,1,5.943-.829l8.753,62.726a3,3,0,0,1-2.557,3.386A2.971,2.971,0,0,1,591.133,422.014Z"/><path class="b" d="M591.136,422.014a3,3,0,0,1-2.265-4.965L651.8,344.466a3,3,0,1,1,4.533,3.93L593.4,420.979A3,3,0,0,1,591.136,422.014Z"/><path class="b" d="M722,410a2.989,2.989,0,0,1-2-.761l-67.93-60.569a3,3,0,1,1,3.992-4.478L724,404.761A3,3,0,0,1,722,410Z"/><path class="a" d="M316.5,497a.491.491,0,0,1-.183-.035l-162-64a.5.5,0,0,1,.367-.93l162,64a.5.5,0,0,1-.184.965Z"/><path class="a" d="M154.5,433l-.038,0-135-10a.5.5,0,1,1,.075-1l135,10a.5.5,0,0,1-.037,1Z"/><path class="b" d="M89.465,157.519a3,3,0,0,1-1.168-5.764l86.821-36.646a3,3,0,0,1,2.334,5.527L90.631,157.282A2.987,2.987,0,0,1,89.465,157.519Z"/><path class="b" d="M381.691,146.122a3,3,0,0,1-1.1-.21l-79.326-31.295a3,3,0,1,1,2.2-5.581l78.606,31.011,59.535-7.793a3,3,0,0,1,.779,5.949L382.08,146.1A2.814,2.814,0,0,1,381.691,146.122Z"/><path class="b" d="M284.054,202.505h-.044l-67.572-.958a3,3,0,0,1,.042-6h.044l67.572.958a3,3,0,0,1-.042,6Z"/><path class="b" d="M284.056,202.505a2.957,2.957,0,0,1-.616-.064,3,3,0,0,1-2.323-3.55l18.311-87.678a3,3,0,1,1,5.873,1.227L286.99,200.118A3,3,0,0,1,284.056,202.505Z"/><path class="b" d="M216.483,201.547a3,3,0,0,1-2.688-1.662l-40.2-80.674a3,3,0,0,1,5.371-2.676l40.2,80.674a3,3,0,0,1-2.683,4.338Z"/><path class="b" d="M89.465,157.519a3,3,0,0,1-2.807-1.941L48.969,55.728a3,3,0,0,1,5.613-2.119l37.689,99.85a3,3,0,0,1-2.806,4.06Z"/><circle class="c" cx="51.658" cy="54.815" r="3.75"/><path class="b" d="M51.658,62.565a7.75,7.75,0,1,1,7.75-7.75A7.759,7.759,0,0,1,51.658,62.565Zm0-8a.25.25,0,0,0-.25.25c0,.275.5.275.5,0A.251.251,0,0,0,51.658,54.565Z"/><circle class="a" cx="51.658" cy="54.815" r="3.75"/><path class="c" d="M51.658,60.565a5.75,5.75,0,1,1,5.75-5.75A5.757,5.757,0,0,1,51.658,60.565Zm0-7.5a1.75,1.75,0,1,0,1.75,1.75A1.752,1.752,0,0,0,51.658,53.065Z"/><circle class="b" cx="51.658" cy="54.815" r="3.75"/><circle class="c" cx="722.022" cy="407" r="3.723"/><path class="b" d="M722.022,414.723A7.723,7.723,0,1,1,729.745,407,7.732,7.732,0,0,1,722.022,414.723Zm0-8a.277.277,0,1,0,.276.277A.277.277,0,0,0,722.022,406.723Z"/><circle class="a" cx="722.022" cy="407" r="3.723"/><path class="c" d="M722.022,412.723A5.723,5.723,0,1,1,727.745,407,5.73,5.73,0,0,1,722.022,412.723Zm0-7.446A1.723,1.723,0,1,0,723.745,407,1.726,1.726,0,0,0,722.022,405.277Z"/><circle class="b" cx="722.022" cy="407" r="3.723"/><circle class="c" cx="654.272" cy="347.149" r="3.723"/><path class="b" d="M654.272,354.872A7.723,7.723,0,1,1,662,347.149,7.732,7.732,0,0,1,654.272,354.872Zm0-8a.278.278,0,1,0,.276.277A.277.277,0,0,0,654.272,346.872Z"/><circle class="a" cx="654.272" cy="347.149" r="3.723"/><path class="c" d="M654.272,352.872A5.723,5.723,0,1,1,660,347.149,5.73,5.73,0,0,1,654.272,352.872Zm0-7.445A1.723,1.723,0,1,0,656,347.149,1.725,1.725,0,0,0,654.272,345.427Z"/><circle class="b" cx="654.272" cy="347.149" r="3.723"/><circle class="c" cx="591.338" cy="419.732" r="3.723"/><path class="b" d="M591.338,427.455a7.723,7.723,0,1,1,7.723-7.722A7.732,7.732,0,0,1,591.338,427.455Zm0-8a.278.278,0,1,0,.277.278A.278.278,0,0,0,591.338,419.455Z"/><circle class="a" cx="591.338" cy="419.732" r="3.723"/><path class="c" d="M591.338,425.455a5.723,5.723,0,1,1,5.723-5.722A5.729,5.729,0,0,1,591.338,425.455Zm0-7.445a1.723,1.723,0,1,0,1.723,1.723A1.724,1.724,0,0,0,591.338,418.01Z"/><circle class="b" cx="591.338" cy="419.732" r="3.723"/><circle class="c" cx="506.118" cy="298.201" r="3.723"/><path class="b" d="M506.119,305.924a7.723,7.723,0,1,1,7.722-7.723A7.732,7.732,0,0,1,506.119,305.924Zm0-8a.277.277,0,1,0,.276.277A.277.277,0,0,0,506.119,297.924Z"/><circle class="a" cx="506.118" cy="298.201" r="3.723"/><path class="c" d="M506.119,303.924a5.723,5.723,0,1,1,5.722-5.723A5.729,5.729,0,0,1,506.119,303.924Zm0-7.446a1.723,1.723,0,1,0,1.722,1.723A1.725,1.725,0,0,0,506.119,296.478Z"/><circle class="b" cx="506.118" cy="298.201" r="3.723"/><circle class="c" cx="515.723" cy="222.9" r="3.723"/><path class="b" d="M515.723,230.623a7.723,7.723,0,1,1,7.724-7.723A7.732,7.732,0,0,1,515.723,230.623Zm0-8a.277.277,0,0,0-.276.277c0,.307.553.305.553,0A.277.277,0,0,0,515.723,222.623Z"/><circle class="a" cx="515.723" cy="222.9" r="3.723"/><path class="c" d="M515.723,228.623a5.723,5.723,0,1,1,5.724-5.723A5.73,5.73,0,0,1,515.723,228.623Zm0-7.446a1.723,1.723,0,1,0,1.724,1.723A1.725,1.725,0,0,0,515.723,221.177Z"/><circle class="b" cx="515.723" cy="222.9" r="3.723"/><circle class="c" cx="465.155" cy="257.235" r="3.723"/><path class="b" d="M465.155,264.958a7.723,7.723,0,1,1,7.723-7.722A7.732,7.732,0,0,1,465.155,264.958Zm0-8a.277.277,0,1,0,.277.278A.278.278,0,0,0,465.155,256.958Z"/><circle class="a" cx="465.155" cy="257.235" r="3.723"/><path class="c" d="M465.155,262.958a5.723,5.723,0,1,1,5.723-5.722A5.729,5.729,0,0,1,465.155,262.958Zm0-7.446a1.723,1.723,0,1,0,1.723,1.724A1.725,1.725,0,0,0,465.155,255.512Z"/><circle class="b" cx="465.155" cy="257.235" r="3.723"/><circle class="c" cx="414.651" cy="265.22" r="3.723"/><path class="b" d="M414.651,272.943a7.724,7.724,0,1,1,7.723-7.724A7.733,7.733,0,0,1,414.651,272.943Zm0-8a.277.277,0,0,0-.277.276c0,.307.553.305.554,0A.277.277,0,0,0,414.651,264.943Z"/><circle class="a" cx="414.651" cy="265.22" r="3.723"/><path class="c" d="M414.651,270.943a5.724,5.724,0,1,1,5.723-5.724A5.731,5.731,0,0,1,414.651,270.943Zm0-7.447a1.724,1.724,0,1,0,1.723,1.723A1.725,1.725,0,0,0,414.651,263.5Z"/><circle class="b" cx="414.651" cy="265.22" r="3.723"/><circle class="c" cx="463.691" cy="180.142" r="3.723"/><path class="b" d="M463.691,187.865a7.723,7.723,0,1,1,7.723-7.723A7.732,7.732,0,0,1,463.691,187.865Zm0-8a.277.277,0,0,0-.277.277c0,.306.554.306.554,0A.277.277,0,0,0,463.691,179.865Z"/><circle class="a" cx="463.691" cy="180.142" r="3.723"/><path class="c" d="M463.691,185.865a5.723,5.723,0,1,1,5.723-5.723A5.73,5.73,0,0,1,463.691,185.865Zm0-7.446a1.723,1.723,0,1,0,1.723,1.723A1.725,1.725,0,0,0,463.691,178.419Z"/><circle class="b" cx="463.691" cy="180.142" r="3.723"/><circle class="c" cx="442.568" cy="135.22" r="3.723"/><path class="b" d="M442.568,142.943a7.724,7.724,0,1,1,7.722-7.724A7.733,7.733,0,0,1,442.568,142.943Zm0-8a.277.277,0,1,0,.277.276A.277.277,0,0,0,442.568,134.943Z"/><circle class="a" cx="442.568" cy="135.22" r="3.723"/><path class="c" d="M442.568,140.943a5.724,5.724,0,1,1,5.722-5.724A5.731,5.731,0,0,1,442.568,140.943Zm0-7.447a1.724,1.724,0,1,0,1.722,1.723A1.725,1.725,0,0,0,442.568,133.5Z"/><circle class="b" cx="442.568" cy="135.22" r="3.723"/><circle class="c" cx="381.764" cy="143.447" r="3.723"/><path class="b" d="M381.764,151.17a7.724,7.724,0,1,1,7.723-7.723A7.733,7.733,0,0,1,381.764,151.17Zm0-8a.277.277,0,0,0-.277.277c0,.3.552.306.553,0A.277.277,0,0,0,381.764,143.17Z"/><circle class="a" cx="381.764" cy="143.447" r="3.723"/><path class="c" d="M381.764,149.17a5.724,5.724,0,1,1,5.723-5.723A5.731,5.731,0,0,1,381.764,149.17Zm0-7.447a1.724,1.724,0,1,0,1.723,1.724A1.726,1.726,0,0,0,381.764,141.723Z"/><circle class="b" cx="381.764" cy="143.447" r="3.723"/><circle class="c" cx="302.385" cy="111.728" r="3.723"/><path class="b" d="M302.385,119.451a7.723,7.723,0,1,1,7.723-7.723A7.731,7.731,0,0,1,302.385,119.451Zm0-8a.277.277,0,0,0-.277.277c0,.305.555.305.555,0A.277.277,0,0,0,302.385,111.451Z"/><circle class="a" cx="302.385" cy="111.728" r="3.723"/><path class="c" d="M302.385,117.451a5.723,5.723,0,1,1,5.723-5.723A5.729,5.729,0,0,1,302.385,117.451Zm0-7.446a1.723,1.723,0,1,0,1.723,1.723A1.724,1.724,0,0,0,302.385,110.005Z"/><circle class="b" cx="302.385" cy="111.728" r="3.723"/><circle class="c" cx="283.959" cy="199.494" r="3.723"/><path class="b" d="M283.958,207.218a7.724,7.724,0,1,1,7.724-7.724A7.732,7.732,0,0,1,283.958,207.218Zm0-8a.277.277,0,0,0-.276.276c0,.307.553.305.554,0A.277.277,0,0,0,283.958,199.218Z"/><circle class="a" cx="283.959" cy="199.494" r="3.723"/><path class="c" d="M283.958,205.218a5.724,5.724,0,1,1,5.724-5.724A5.73,5.73,0,0,1,283.958,205.218Zm0-7.447a1.724,1.724,0,1,0,1.724,1.723A1.724,1.724,0,0,0,283.958,197.771Z"/><circle class="b" cx="283.959" cy="199.494" r="3.723"/><circle class="c" cx="216.387" cy="198.536" r="3.723"/><path class="b" d="M216.387,206.26a7.724,7.724,0,1,1,7.724-7.724A7.733,7.733,0,0,1,216.387,206.26Zm0-8a.277.277,0,1,0,.277.276A.277.277,0,0,0,216.387,198.26Z"/><circle class="a" cx="216.387" cy="198.536" r="3.723"/><path class="c" d="M216.387,204.26a5.724,5.724,0,1,1,5.724-5.724A5.731,5.731,0,0,1,216.387,204.26Zm0-7.447a1.724,1.724,0,1,0,1.724,1.723A1.725,1.725,0,0,0,216.387,196.813Z"/><circle class="b" cx="216.387" cy="198.536" r="3.723"/><circle class="c" cx="176.191" cy="117.863" r="3.723"/><path class="b" d="M176.191,125.586a7.724,7.724,0,1,1,7.723-7.723A7.733,7.733,0,0,1,176.191,125.586Zm0-8a.277.277,0,1,0,.276.277A.277.277,0,0,0,176.191,117.586Z"/><circle class="a" cx="176.191" cy="117.863" r="3.723"/><path class="c" d="M176.191,123.586a5.724,5.724,0,1,1,5.723-5.723A5.731,5.731,0,0,1,176.191,123.586Zm0-7.447a1.724,1.724,0,1,0,1.723,1.724A1.726,1.726,0,0,0,176.191,116.139Z"/><circle class="b" cx="176.191" cy="117.863" r="3.723"/><circle class="c" cx="89.37" cy="154.508" r="3.723"/><path class="b" d="M89.371,162.231a7.723,7.723,0,1,1,7.722-7.723A7.732,7.732,0,0,1,89.371,162.231Zm0-8a.277.277,0,1,0,.276.277A.277.277,0,0,0,89.371,154.231Z"/><circle class="a" cx="89.37" cy="154.508" r="3.723"/><path class="c" d="M89.371,160.231a5.723,5.723,0,1,1,5.722-5.723A5.729,5.729,0,0,1,89.371,160.231Zm0-7.446a1.723,1.723,0,1,0,1.722,1.723A1.725,1.725,0,0,0,89.371,152.785Z"/><circle class="b" cx="89.37" cy="154.508" r="3.723"/><rect class="b" x="29.658" width="44" height="34" rx="4"/><path class="b" d="M59.145,33.661l-6.257,7.711a1.52,1.52,0,0,1-2.461,0l-6.256-7.711C43.075,32.31,43.851,30,45.4,30H57.914C59.464,30,60.241,32.31,59.145,33.661Z"/><path class="c" d="M49.658,25V19h4v6h5V17h3l-10-9-10,9h3v8Z"/><rect class="b" x="700.022" y="427.88" width="44" height="34" rx="4"/><path class="b" d="M714.535,428.074l6.256-7.712a1.52,1.52,0,0,1,2.461,0l6.256,7.712c1.1,1.351.32,3.66-1.23,3.66H715.765C714.215,431.734,713.439,429.425,714.535,428.074Z"/><path class="c" d="M724.922,438.88l-.4-2h-9v17h2v-7h5.6l.4,2h7v-10Z"/></svg>