<svg xmlns="http://www.w3.org/2000/svg" viewBox="0 0 760 474.39">
  <defs>
    <style>
      .a24ed3a2-6d62-4f55-b753-7ce059bf452c, .aaecd743-d9d7-464b-b85f-138104169cf3, .f306418e-aecf-48a1-b78f-ccc62ac26f00 {
        fill: none;
        stroke-miterlimit: 10;
      }

      .a24ed3a2-6d62-4f55-b753-7ce059bf452c {
        stroke: #033ed5;
      }

      .b9a4fb09-e3b2-43bf-aede-8d4d7c29802b {
        fill: #080c59;
      }

      .e487f0d1-32ee-4257-996d-f0ad32b5f33d {
        fill: #fff;
      }

      .bbfe62b3-6b21-40f7-91a2-8f64a41d06da {
        fill: #bebedc;
      }

      .f306418e-aecf-48a1-b78f-ccc62ac26f00 {
        stroke: #080c59;
      }

      .aaecd743-d9d7-464b-b85f-138104169cf3 {
        stroke: blue;
      }

      .b161ac62-6478-44bd-b9ae-8ad3c837760e {
        fill: #ec9bc2;
      }

      .f60a0aa7-51d9-49af-80e9-37ffdffadf57 {
        fill: #033ed5;
      }

      .e7863040-933b-409e-8e06-4878786fd4f3 {
        fill: #98b7ff;
      }
    </style>
  </defs>
  <g id="b863e560-5fe5-40c9-8933-b602f45843ed" data-name="Layer 2">
    <line class="a24ed3a2-6d62-4f55-b753-7ce059bf452c" x1="418.4" y1="444.8" x2="435.74" y2="361.7"/>
    <g>
      <circle class="b9a4fb09-e3b2-43bf-aede-8d4d7c29802b" cx="418.4" cy="439.98" r="29.3"/>
      <path class="e487f0d1-32ee-4257-996d-f0ad32b5f33d" d="M416.09,443.41v-1.13H408v4.53a2.28,2.28,0,0,0,2.31,2.26H426.5a2.28,2.28,0,0,0,2.31-2.26v-4.53h-8.09v1.13Zm11.56-10.19H423V431l-2.32-2.27h-4.62L413.77,431v2.26h-4.61a2.3,2.3,0,0,0-2.31,2.27v3.39a2.28,2.28,0,0,0,2.31,2.27h6.93v-2.27h4.63v2.27h6.93a2.3,2.3,0,0,0,2.31-2.27v-3.39A2.3,2.3,0,0,0,427.65,433.22Zm-6.93,0h-4.63V431h4.63Z"/>
    </g>
    <line class="a24ed3a2-6d62-4f55-b753-7ce059bf452c" x1="283.52" y1="428.69" x2="326.58" y2="360.88"/>
    <line class="a24ed3a2-6d62-4f55-b753-7ce059bf452c" x1="249.65" y1="365.95" x2="325.99" y2="365.29"/>
    <g>
      <circle class="b9a4fb09-e3b2-43bf-aede-8d4d7c29802b" cx="247.34" cy="362.52" r="29.3"/>
      <path class="e487f0d1-32ee-4257-996d-f0ad32b5f33d" d="M245,366v-1.13H237v4.53a2.28,2.28,0,0,0,2.31,2.26h16.18a2.28,2.28,0,0,0,2.31-2.26v-4.53h-8.09V366Zm11.56-10.19H252V353.5l-2.31-2.27H245l-2.32,2.27v2.26h-4.61a2.29,2.29,0,0,0-2.31,2.26v3.4a2.28,2.28,0,0,0,2.31,2.27H245v-2.27h4.62v2.27h6.94a2.3,2.3,0,0,0,2.31-2.27V358A2.29,2.29,0,0,0,256.59,355.76Zm-6.94,0H245V353.5h4.62Z"/>
    </g>
    <g>
      <circle class="b9a4fb09-e3b2-43bf-aede-8d4d7c29802b" cx="283.52" cy="426.65" r="29.3"/>
      <path class="e487f0d1-32ee-4257-996d-f0ad32b5f33d" d="M281.2,430.08V429h-8.08v4.53a2.28,2.28,0,0,0,2.31,2.26h16.19a2.28,2.28,0,0,0,2.31-2.26V429h-8.09v1.13Zm11.56-10.19h-4.63v-2.26l-2.31-2.27h-4.63l-2.31,2.27v2.26h-4.61a2.3,2.3,0,0,0-2.31,2.27v3.39a2.28,2.28,0,0,0,2.31,2.27h6.93v-2.27h4.63v2.27h6.93a2.3,2.3,0,0,0,2.31-2.27v-3.39A2.3,2.3,0,0,0,292.76,419.89Zm-6.93,0H281.2v-2.26h4.63Z"/>
    </g>
    <g>
      <rect class="bbfe62b3-6b21-40f7-91a2-8f64a41d06da" x="302.8" y="331.12" width="46.39" height="57.9" rx="7.32"/>
      <rect class="f306418e-aecf-48a1-b78f-ccc62ac26f00" x="308.65" y="336.9" width="34.68" height="8.81" rx="1.66"/>
      <rect class="f306418e-aecf-48a1-b78f-ccc62ac26f00" x="308.65" y="348.89" width="34.68" height="8.81" rx="1.66"/>
      <rect class="f306418e-aecf-48a1-b78f-ccc62ac26f00" x="308.65" y="360.88" width="34.68" height="8.81" rx="1.66"/>
      <rect class="f306418e-aecf-48a1-b78f-ccc62ac26f00" x="308.65" y="372.88" width="34.68" height="8.81" rx="1.66"/>
    </g>
    <line class="a24ed3a2-6d62-4f55-b753-7ce059bf452c" x1="510.76" y1="360.56" x2="435.74" y2="360.56"/>
    <line class="a24ed3a2-6d62-4f55-b753-7ce059bf452c" x1="487.91" y1="436.6" x2="435.74" y2="360.56"/>
    <g>
      <circle class="b9a4fb09-e3b2-43bf-aede-8d4d7c29802b" cx="490.23" cy="433.17" r="29.3"/>
      <path class="e487f0d1-32ee-4257-996d-f0ad32b5f33d" d="M487.91,436.6v-1.13h-8.08V440a2.28,2.28,0,0,0,2.31,2.26h16.19a2.28,2.28,0,0,0,2.31-2.26v-4.53h-8.09v1.13Zm11.56-10.19h-4.63v-2.26l-2.31-2.27H487.9l-2.31,2.27v2.26H481a2.29,2.29,0,0,0-2.31,2.26v3.4a2.28,2.28,0,0,0,2.31,2.27h6.93v-2.27h4.63v2.27h6.93a2.3,2.3,0,0,0,2.32-2.27v-3.4A2.3,2.3,0,0,0,499.47,426.41Zm-6.93,0h-4.63v-2.26h4.63Z"/>
    </g>
    <g>
      <circle class="b9a4fb09-e3b2-43bf-aede-8d4d7c29802b" cx="520.91" cy="360.07" r="29.3"/>
      <path class="e487f0d1-32ee-4257-996d-f0ad32b5f33d" d="M518.6,363.5v-1.14h-8.08v4.53a2.28,2.28,0,0,0,2.31,2.27H529a2.28,2.28,0,0,0,2.31-2.27v-4.53h-8.09v1.14Zm11.56-10.19h-4.64V351l-2.31-2.26h-4.62L516.28,351v2.27h-4.62a2.29,2.29,0,0,0-2.31,2.26V359a2.28,2.28,0,0,0,2.31,2.26h6.94V359h4.62v2.26h6.94a2.29,2.29,0,0,0,2.31-2.26v-3.4A2.29,2.29,0,0,0,530.16,353.31Zm-6.94,0H518.6V351h4.62Z"/>
    </g>
    <g>
      <rect class="bbfe62b3-6b21-40f7-91a2-8f64a41d06da" x="412.55" y="332.75" width="46.39" height="57.9" rx="7.32"/>
      <rect class="f306418e-aecf-48a1-b78f-ccc62ac26f00" x="418.4" y="338.53" width="34.68" height="8.81" rx="1.66"/>
      <rect class="f306418e-aecf-48a1-b78f-ccc62ac26f00" x="418.4" y="350.53" width="34.68" height="8.81" rx="1.66"/>
      <rect class="f306418e-aecf-48a1-b78f-ccc62ac26f00" x="418.4" y="362.52" width="34.68" height="8.81" rx="1.66"/>
      <rect class="f306418e-aecf-48a1-b78f-ccc62ac26f00" x="418.4" y="374.51" width="34.68" height="8.81" rx="1.66"/>
    </g>
    <line class="aaecd743-d9d7-464b-b85f-138104169cf3" x1="31.68" y1="131.55" x2="129.22" y2="174.17"/>
    <line class="aaecd743-d9d7-464b-b85f-138104169cf3" x1="52.88" y1="288.62" x2="123.14" y2="306.77"/>
    <line class="aaecd743-d9d7-464b-b85f-138104169cf3" x1="60.97" y1="361.17" x2="123.14" y2="306.77"/>
    <line class="aaecd743-d9d7-464b-b85f-138104169cf3" x1="127.72" y1="391.36" x2="127.72" y2="305.95"/>
    <line class="aaecd743-d9d7-464b-b85f-138104169cf3" x1="93.78" y1="86.08" x2="129.22" y2="174.17"/>
    <line class="aaecd743-d9d7-464b-b85f-138104169cf3" x1="38.71" y1="207.57" x2="129.22" y2="174.17"/>
    <line class="a24ed3a2-6d62-4f55-b753-7ce059bf452c" x1="260" y1="231.55" x2="383.67" y2="289.55"/>
    <line class="a24ed3a2-6d62-4f55-b753-7ce059bf452c" x1="129.22" y1="174.17" x2="260" y2="231.55"/>
    <line class="a24ed3a2-6d62-4f55-b753-7ce059bf452c" x1="127.72" y1="305.95" x2="260" y2="231.55"/>
    <line class="a24ed3a2-6d62-4f55-b753-7ce059bf452c" x1="509.28" y1="231.55" x2="384.9" y2="289.55"/>
    <line class="a24ed3a2-6d62-4f55-b753-7ce059bf452c" x1="260" y1="231.55" x2="380.56" y2="174.78"/>
    <line class="a24ed3a2-6d62-4f55-b753-7ce059bf452c" x1="509.28" y1="231.55" x2="380.56" y2="174.78"/>
    <line class="aaecd743-d9d7-464b-b85f-138104169cf3" x1="300.95" y1="114.11" x2="380.56" y2="174.78"/>
    <line class="aaecd743-d9d7-464b-b85f-138104169cf3" x1="469.83" y1="111.56" x2="380.56" y2="174.78"/>
    <line class="aaecd743-d9d7-464b-b85f-138104169cf3" x1="630.52" y1="168.51" x2="509.28" y2="231.55"/>
    <line class="aaecd743-d9d7-464b-b85f-138104169cf3" x1="509.28" y1="231.55" x2="630.51" y2="297.14"/>
    <g>
      <rect class="bbfe62b3-6b21-40f7-91a2-8f64a41d06da" x="104.53" y="143.79" width="46.39" height="57.9" rx="7.32"/>
      <rect class="f306418e-aecf-48a1-b78f-ccc62ac26f00" x="110.38" y="149.57" width="34.68" height="8.81" rx="1.66"/>
      <rect class="f306418e-aecf-48a1-b78f-ccc62ac26f00" x="110.38" y="161.56" width="34.68" height="8.81" rx="1.66"/>
      <rect class="f306418e-aecf-48a1-b78f-ccc62ac26f00" x="110.38" y="173.55" width="34.68" height="8.81" rx="1.66"/>
      <rect class="f306418e-aecf-48a1-b78f-ccc62ac26f00" x="110.38" y="185.55" width="34.68" height="8.81" rx="1.66"/>
    </g>
    <g>
      <rect class="bbfe62b3-6b21-40f7-91a2-8f64a41d06da" x="104.53" y="277" width="46.39" height="57.9" rx="7.32"/>
      <rect class="f306418e-aecf-48a1-b78f-ccc62ac26f00" x="110.38" y="282.78" width="34.68" height="8.81" rx="1.66"/>
      <rect class="f306418e-aecf-48a1-b78f-ccc62ac26f00" x="110.38" y="294.78" width="34.68" height="8.81" rx="1.66"/>
      <rect class="f306418e-aecf-48a1-b78f-ccc62ac26f00" x="110.38" y="306.77" width="34.68" height="8.81" rx="1.66"/>
      <rect class="f306418e-aecf-48a1-b78f-ccc62ac26f00" x="110.38" y="318.77" width="34.68" height="8.81" rx="1.66"/>
    </g>
    <g>
      <rect class="bbfe62b3-6b21-40f7-91a2-8f64a41d06da" x="236.81" y="201.79" width="46.39" height="57.9" rx="7.32"/>
      <rect class="f306418e-aecf-48a1-b78f-ccc62ac26f00" x="242.66" y="207.57" width="34.68" height="8.81" rx="1.66"/>
      <rect class="f306418e-aecf-48a1-b78f-ccc62ac26f00" x="242.66" y="219.56" width="34.68" height="8.81" rx="1.66"/>
      <rect class="f306418e-aecf-48a1-b78f-ccc62ac26f00" x="242.66" y="231.55" width="34.68" height="8.81" rx="1.66"/>
      <rect class="f306418e-aecf-48a1-b78f-ccc62ac26f00" x="242.66" y="243.55" width="34.68" height="8.81" rx="1.66"/>
    </g>
    <line class="aaecd743-d9d7-464b-b85f-138104169cf3" x1="312.51" y1="46.95" x2="300.85" y2="112.38"/>
    <line class="aaecd743-d9d7-464b-b85f-138104169cf3" x1="235.78" y1="43.63" x2="300.85" y2="112.38"/>
    <line class="aaecd743-d9d7-464b-b85f-138104169cf3" x1="226.53" y1="112.09" x2="300.85" y2="112.38"/>
    <g>
      <rect class="bbfe62b3-6b21-40f7-91a2-8f64a41d06da" x="277.66" y="84.34" width="46.39" height="57.9" rx="7.32"/>
      <rect class="f306418e-aecf-48a1-b78f-ccc62ac26f00" x="283.52" y="90.12" width="34.68" height="8.81" rx="1.66"/>
      <rect class="f306418e-aecf-48a1-b78f-ccc62ac26f00" x="283.52" y="102.12" width="34.68" height="8.81" rx="1.66"/>
      <rect class="f306418e-aecf-48a1-b78f-ccc62ac26f00" x="283.52" y="114.11" width="34.68" height="8.81" rx="1.66"/>
      <rect class="f306418e-aecf-48a1-b78f-ccc62ac26f00" x="283.52" y="126.11" width="34.68" height="8.81" rx="1.66"/>
    </g>
    <line class="aaecd743-d9d7-464b-b85f-138104169cf3" x1="556.05" y1="104.4" x2="469.83" y2="111.56"/>
    <line class="aaecd743-d9d7-464b-b85f-138104169cf3" x1="438.59" y1="43.12" x2="469.83" y2="111.56"/>
    <line class="aaecd743-d9d7-464b-b85f-138104169cf3" x1="510.63" y1="46.52" x2="469.83" y2="111.56"/>
    <g>
      <rect class="bbfe62b3-6b21-40f7-91a2-8f64a41d06da" x="446.63" y="82.61" width="46.39" height="57.9" rx="7.32"/>
      <rect class="f306418e-aecf-48a1-b78f-ccc62ac26f00" x="452.49" y="88.39" width="34.68" height="8.81" rx="1.66"/>
      <rect class="f306418e-aecf-48a1-b78f-ccc62ac26f00" x="452.49" y="100.39" width="34.68" height="8.81" rx="1.66"/>
      <rect class="f306418e-aecf-48a1-b78f-ccc62ac26f00" x="452.49" y="112.38" width="34.68" height="8.81" rx="1.66"/>
      <rect class="f306418e-aecf-48a1-b78f-ccc62ac26f00" x="452.49" y="124.37" width="34.68" height="8.81" rx="1.66"/>
    </g>
    <g>
      <rect class="bbfe62b3-6b21-40f7-91a2-8f64a41d06da" x="357.37" y="140.6" width="46.39" height="57.9" rx="7.32"/>
      <rect class="f306418e-aecf-48a1-b78f-ccc62ac26f00" x="363.23" y="146.38" width="34.68" height="8.81" rx="1.66"/>
      <rect class="f306418e-aecf-48a1-b78f-ccc62ac26f00" x="363.23" y="158.38" width="34.68" height="8.81" rx="1.66"/>
      <rect class="f306418e-aecf-48a1-b78f-ccc62ac26f00" x="363.23" y="170.37" width="34.68" height="8.81" rx="1.66"/>
      <rect class="f306418e-aecf-48a1-b78f-ccc62ac26f00" x="363.23" y="182.37" width="34.68" height="8.81" rx="1.66"/>
    </g>
    <g>
      <rect class="bbfe62b3-6b21-40f7-91a2-8f64a41d06da" x="486.08" y="201.79" width="46.39" height="57.9" rx="7.32"/>
      <rect class="f306418e-aecf-48a1-b78f-ccc62ac26f00" x="491.94" y="207.57" width="34.68" height="8.81" rx="1.66"/>
      <rect class="f306418e-aecf-48a1-b78f-ccc62ac26f00" x="491.94" y="219.56" width="34.68" height="8.81" rx="1.66"/>
      <rect class="f306418e-aecf-48a1-b78f-ccc62ac26f00" x="491.94" y="231.55" width="34.68" height="8.81" rx="1.66"/>
      <rect class="f306418e-aecf-48a1-b78f-ccc62ac26f00" x="491.94" y="243.55" width="34.68" height="8.81" rx="1.66"/>
    </g>
    <line class="aaecd743-d9d7-464b-b85f-138104169cf3" x1="699.03" y1="213.83" x2="630.52" y2="168.51"/>
    <line class="aaecd743-d9d7-464b-b85f-138104169cf3" x1="728.98" y1="149.75" x2="630.52" y2="168.51"/>
    <line class="aaecd743-d9d7-464b-b85f-138104169cf3" x1="683.26" y1="94.66" x2="630.52" y2="168.51"/>
    <circle class="b161ac62-6478-44bd-b9ae-8ad3c837760e" cx="683.26" cy="94.66" r="29.3"/>
    <path class="b9a4fb09-e3b2-43bf-aede-8d4d7c29802b" d="M689,81.9H677.47a2.31,2.31,0,0,0-2.3,2.31V105a2.31,2.31,0,0,0,2.3,2.31H689a2.32,2.32,0,0,0,2.32-2.31V84.2A2.31,2.31,0,0,0,689,81.9Zm0,20.79H677.47V86.51H689Z"/>
    <g>
      <rect class="bbfe62b3-6b21-40f7-91a2-8f64a41d06da" x="607.32" y="139.56" width="46.39" height="57.9" rx="7.32"/>
      <rect class="f306418e-aecf-48a1-b78f-ccc62ac26f00" x="613.18" y="145.34" width="34.68" height="8.81" rx="1.66"/>
      <rect class="f306418e-aecf-48a1-b78f-ccc62ac26f00" x="613.18" y="157.34" width="34.68" height="8.81" rx="1.66"/>
      <rect class="f306418e-aecf-48a1-b78f-ccc62ac26f00" x="613.18" y="169.33" width="34.68" height="8.81" rx="1.66"/>
      <rect class="f306418e-aecf-48a1-b78f-ccc62ac26f00" x="613.18" y="181.32" width="34.68" height="8.81" rx="1.66"/>
    </g>
    <line class="aaecd743-d9d7-464b-b85f-138104169cf3" x1="712.15" y1="374.51" x2="630.52" y2="298.48"/>
    <line class="aaecd743-d9d7-464b-b85f-138104169cf3" x1="630.51" y1="383.33" x2="630.52" y2="298.48"/>
    <g>
      <rect class="bbfe62b3-6b21-40f7-91a2-8f64a41d06da" x="607.32" y="267.37" width="46.39" height="57.9" rx="7.32"/>
      <rect class="f306418e-aecf-48a1-b78f-ccc62ac26f00" x="613.18" y="273.15" width="34.68" height="8.81" rx="1.66"/>
      <rect class="f306418e-aecf-48a1-b78f-ccc62ac26f00" x="613.18" y="285.15" width="34.68" height="8.81" rx="1.66"/>
      <rect class="f306418e-aecf-48a1-b78f-ccc62ac26f00" x="613.18" y="297.14" width="34.68" height="8.81" rx="1.66"/>
      <rect class="f306418e-aecf-48a1-b78f-ccc62ac26f00" x="613.18" y="309.14" width="34.68" height="8.81" rx="1.66"/>
    </g>
    <g>
      <rect class="bbfe62b3-6b21-40f7-91a2-8f64a41d06da" x="361.71" y="259.9" width="46.39" height="57.9" rx="7.32"/>
      <rect class="f306418e-aecf-48a1-b78f-ccc62ac26f00" x="367.56" y="265.68" width="34.68" height="8.81" rx="1.66"/>
      <rect class="f306418e-aecf-48a1-b78f-ccc62ac26f00" x="367.56" y="277.68" width="34.68" height="8.81" rx="1.66"/>
      <rect class="f306418e-aecf-48a1-b78f-ccc62ac26f00" x="367.56" y="289.67" width="34.68" height="8.81" rx="1.66"/>
      <rect class="f306418e-aecf-48a1-b78f-ccc62ac26f00" x="367.56" y="301.66" width="34.68" height="8.81" rx="1.66"/>
    </g>
    <line class="a24ed3a2-6d62-4f55-b753-7ce059bf452c" x1="347.34" y1="334.29" x2="362.94" y2="314.55"/>
    <line class="a24ed3a2-6d62-4f55-b753-7ce059bf452c" x1="415.27" y1="334.38" x2="405.17" y2="314.86"/>
    <g>
      <circle class="f60a0aa7-51d9-49af-80e9-37ffdffadf57" cx="224.22" cy="109.2" r="29.3"/>
      <path class="e487f0d1-32ee-4257-996d-f0ad32b5f33d" d="M221.91,119v-6.93h4.62V119h5.78v-9.24h3.47L224.22,99.37l-11.56,10.41h3.47V119Z"/>
    </g>
    <g>
      <circle class="f60a0aa7-51d9-49af-80e9-37ffdffadf57" cx="235.78" cy="37.33" r="29.3"/>
      <path class="e487f0d1-32ee-4257-996d-f0ad32b5f33d" d="M233.47,47.16V40.22h4.62v6.94h5.78V37.91h3.47l-11.56-10.4-11.56,10.4h3.47v9.25Z"/>
    </g>
    <g>
      <circle class="f60a0aa7-51d9-49af-80e9-37ffdffadf57" cx="312.51" cy="37.33" r="29.3"/>
      <path class="e487f0d1-32ee-4257-996d-f0ad32b5f33d" d="M310.2,47.16V40.22h4.62v6.94h5.78V37.91h3.47l-11.56-10.4L301,37.91h3.47v9.25Z"/>
    </g>
    <g>
      <circle class="f60a0aa7-51d9-49af-80e9-37ffdffadf57" cx="512.94" cy="43.63" r="29.3"/>
      <path class="e487f0d1-32ee-4257-996d-f0ad32b5f33d" d="M510.63,53.46V46.52h4.62v6.94H521V44.21h3.47l-11.56-10.4-11.56,10.4h3.47v9.25Z"/>
    </g>
    <g>
      <circle class="f60a0aa7-51d9-49af-80e9-37ffdffadf57" cx="436.27" cy="40.23" r="29.3"/>
      <path class="e487f0d1-32ee-4257-996d-f0ad32b5f33d" d="M434,50.05V43.12h4.63v6.93h5.78V40.8h3.46L436.27,30.4,424.71,40.8h3.47v9.25Z"/>
    </g>
    <g>
      <circle class="f60a0aa7-51d9-49af-80e9-37ffdffadf57" cx="553.74" cy="101.51" r="29.3"/>
      <path class="e487f0d1-32ee-4257-996d-f0ad32b5f33d" d="M551.43,111.33V104.4h4.62v6.93h5.78v-9.24h3.47L553.74,91.68l-11.56,10.41h3.47v9.24Z"/>
    </g>
    <circle class="b161ac62-6478-44bd-b9ae-8ad3c837760e" cx="720.24" cy="298.48" r="29.3"/>
    <path class="b9a4fb09-e3b2-43bf-aede-8d4d7c29802b" d="M726,285.72H714.45a2.31,2.31,0,0,0-2.3,2.31v20.81a2.31,2.31,0,0,0,2.3,2.31H726a2.32,2.32,0,0,0,2.31-2.31V288A2.31,2.31,0,0,0,726,285.72Zm0,20.8H714.45V290.33H726Z"/>
    <circle class="b161ac62-6478-44bd-b9ae-8ad3c837760e" cx="711.37" cy="371.33" r="29.3"/>
    <path class="b9a4fb09-e3b2-43bf-aede-8d4d7c29802b" d="M717.15,358.57H705.59a2.31,2.31,0,0,0-2.3,2.31v20.81a2.31,2.31,0,0,0,2.3,2.31h11.56a2.32,2.32,0,0,0,2.31-2.31V360.87A2.31,2.31,0,0,0,717.15,358.57Zm0,20.8H705.59V363.18h11.56Z"/>
    <circle class="b161ac62-6478-44bd-b9ae-8ad3c837760e" cx="630.52" cy="377.28" r="29.3"/>
    <path class="b9a4fb09-e3b2-43bf-aede-8d4d7c29802b" d="M636.29,364.52H624.73a2.31,2.31,0,0,0-2.3,2.31v20.81a2.31,2.31,0,0,0,2.3,2.31h11.56a2.32,2.32,0,0,0,2.31-2.31V366.82A2.31,2.31,0,0,0,636.29,364.52Zm0,20.8H624.73V369.14h11.56Z"/>
    <circle class="b161ac62-6478-44bd-b9ae-8ad3c837760e" cx="728.32" cy="149.47" r="29.3"/>
    <path class="b9a4fb09-e3b2-43bf-aede-8d4d7c29802b" d="M734.1,136.71H722.54a2.31,2.31,0,0,0-2.3,2.31v20.81a2.31,2.31,0,0,0,2.3,2.31H734.1a2.32,2.32,0,0,0,2.31-2.31V139A2.31,2.31,0,0,0,734.1,136.71Zm0,20.8H722.54V141.32H734.1Z"/>
    <circle class="b161ac62-6478-44bd-b9ae-8ad3c837760e" cx="699.68" cy="213.83" r="29.3"/>
    <path class="b9a4fb09-e3b2-43bf-aede-8d4d7c29802b" d="M705.45,201.07H693.89a2.31,2.31,0,0,0-2.3,2.31v20.81a2.31,2.31,0,0,0,2.3,2.31h11.56a2.32,2.32,0,0,0,2.31-2.31V203.37A2.31,2.31,0,0,0,705.45,201.07Zm0,20.8H693.89V205.69h11.56Z"/>
    <circle class="e7863040-933b-409e-8e06-4878786fd4f3" cx="31.68" cy="128.08" r="29.3"/>
    <g>
      <circle class="e7863040-933b-409e-8e06-4878786fd4f3" cx="93.78" cy="82.61" r="29.3"/>
      <path class="b9a4fb09-e3b2-43bf-aede-8d4d7c29802b" d="M85.69,84V88.6L93.78,93l8.1-4.42V84l-8.1,4.41Zm8.09-11.77L81.07,79.15l12.71,6.93,10.41-5.67v8h2.31V79.15Z"/>
    </g>
    <g>
      <circle class="e7863040-933b-409e-8e06-4878786fd4f3" cx="38.71" cy="201.79" r="29.3"/>
      <path class="b9a4fb09-e3b2-43bf-aede-8d4d7c29802b" d="M30.61,203.15v4.62l8.1,4.42,8.09-4.42v-4.62l-8.09,4.42Zm8.1-11.77L26,198.32l12.72,6.93,10.4-5.67v8h2.31v-9.25Z"/>
    </g>
    <g>
      <circle class="e7863040-933b-409e-8e06-4878786fd4f3" cx="52.88" cy="285.15" r="29.3"/>
      <path class="b9a4fb09-e3b2-43bf-aede-8d4d7c29802b" d="M44.79,286.51v4.63l8.09,4.41L61,291.14v-4.63l-8.09,4.42Zm8.09-11.77-12.71,6.94,12.71,6.94,10.41-5.68v8H65.6v-9.25Z"/>
    </g>
    <g>
      <circle class="e7863040-933b-409e-8e06-4878786fd4f3" cx="60.97" cy="357.7" r="29.3"/>
      <path class="b9a4fb09-e3b2-43bf-aede-8d4d7c29802b" d="M52.88,359.07v4.62L61,368.11l8.1-4.42v-4.62L61,363.48ZM61,347.3l-12.71,6.94L61,361.17l10.41-5.67v8h2.31v-9.24Z"/>
    </g>
    <g>
      <circle class="e7863040-933b-409e-8e06-4878786fd4f3" cx="127.72" cy="387" r="29.3"/>
      <path class="b9a4fb09-e3b2-43bf-aede-8d4d7c29802b" d="M119.63,388.37V393l8.09,4.42,8.09-4.42v-4.62l-8.09,4.41Zm8.09-11.77L115,383.53l12.72,6.94,10.4-5.68v8h2.31v-9.25Z"/>
    </g>
    <path class="b9a4fb09-e3b2-43bf-aede-8d4d7c29802b" d="M23.58,129.45v4.62l8.1,4.42,8.09-4.42v-4.62l-8.09,4.41Zm8.1-11.77L19,124.61l12.72,6.94,10.4-5.68v8h2.31v-9.25Z"/>
    <line class="aaecd743-d9d7-464b-b85f-138104169cf3" x1="690.94" y1="298.48" x2="653.71" y2="298.48"/>
    <g>
      <path d="M37.09,67.94H37l-3.55,2.68h-.22V67.76l3.83-2.86h3V80.3h-3Z"/>
      <path d="M42.62,78.69a1.78,1.78,0,0,1,3.56,0,1.78,1.78,0,1,1-3.56,0Z"/>
    </g>
    <g>
      <path d="M378.89,38.59l5.08-5.2c1.59-1.58,2.2-2.37,2.2-3.54a1.87,1.87,0,0,0-2.11-1.91,2.16,2.16,0,0,0-2.33,2.42h-2.88c0-3.15,2-5,5.21-5s5.13,1.85,5.13,4.44c0,1.63-.81,2.93-2.66,4.8l-3.68,3.67v.09h6.58V41H378.89Z"/>
      <path d="M391.32,39.38a1.79,1.79,0,0,1,3.57,0,1.79,1.79,0,1,1-3.57,0Z"/>
    </g>
    <g>
      <path d="M726.91,88.13h3c0,1.08.66,2.27,2.75,2.27,1.76,0,2.56-.92,2.56-2.16s-.82-2.17-2.78-2.17h-1.34V83.49h1.3c1.54,0,2.33-.77,2.33-1.93,0-1-.72-1.83-2.2-1.83A2.08,2.08,0,0,0,730.13,82h-3c0-3,2.15-4.82,5.39-4.82,2.88,0,5.17,1.65,5.17,4.14a3.24,3.24,0,0,1-2.14,3.28v.09a3.69,3.69,0,0,1,2.62,3.58c0,2.55-1.71,4.78-5.57,4.78C729.36,93,726.91,91.35,726.91,88.13Z"/>
      <path d="M740.2,91.19a1.79,1.79,0,0,1,3.57,0,1.79,1.79,0,1,1-3.57,0Z"/>
    </g>
    <g>
      <path d="M369.19,441.87h-6.86V439l6.09-9.58h3.74v9.84h1.92v2.62h-1.92v2.95h-3Zm0-2.62V433h-.09l-3.87,6.2v.09Z"/>
      <path d="M375.57,443.21a1.78,1.78,0,1,1,1.78,1.8A1.62,1.62,0,0,1,375.57,443.21Z"/>
    </g>
    <g>
      <path d="M301.84,231.56h3a2.3,2.3,0,0,0,2.56,2.09A2.49,2.49,0,0,0,310,230.9a2.43,2.43,0,0,0-2.59-2.6,2.88,2.88,0,0,0-2.4,1.19h-2.88l.59-8.82h9.24v2.64h-6.8l-.28,3.5h.08a4.35,4.35,0,0,1,2.91-.95,4.87,4.87,0,0,1,5.13,5c0,3.08-2,5.37-5.59,5.37C304.07,236.27,301.84,234.13,301.84,231.56Z"/>
      <path d="M314.84,234.46a1.79,1.79,0,1,1,1.79,1.81A1.62,1.62,0,0,1,314.84,234.46Z"/>
    </g>
  </g>
</svg>
