<svg xmlns="http://www.w3.org/2000/svg" viewBox="0 0 760 502"><defs><style>.a{fill:#033ed3;}.b{fill:#ca2967;}.c{fill:#080c59;}.d{fill:#fff;}</style></defs><path class="a" d="M722,407.5a.487.487,0,0,1-.175-.032.5.5,0,0,1-.292-.644l33.833-89.83a.5.5,0,0,1,.935.353l-33.833,89.829A.5.5,0,0,1,722,407.5Z"/><path class="a" d="M453.248,327.186a.5.5,0,0,1-.236-.941l52.881-28.4a.5.5,0,1,1,.473.881l-52.881,28.4A.491.491,0,0,1,453.248,327.186Z"/><path class="a" d="M582.384,356.787a.48.48,0,0,1-.112-.012L453.388,326.987a.5.5,0,1,1,.225-.974L582.5,355.8a.5.5,0,0,1-.113.987Z"/><path class="a" d="M582.384,356.787a.5.5,0,0,1-.447-.722l34.63-69.565a.5.5,0,0,1,.447-.277h.011l53.233,1.187a.5.5,0,0,1,.3.895l-87.863,68.377A.5.5,0,0,1,582.384,356.787Zm34.937-69.558-33.51,67.315,85.02-66.165Z"/><path class="a" d="M582.384,356.787a.5.5,0,0,1-.447-.277L515.455,222.953a.5.5,0,1,1,.894-.445l66.482,133.557a.5.5,0,0,1-.224.67A.493.493,0,0,1,582.384,356.787Z"/><path class="a" d="M342.368,409.627a.444.444,0,0,1-.063,0,.5.5,0,0,1-.415-.348L309.653,304.716l-65.723,20.5a.5.5,0,1,1-.3-.955l66.2-20.654a.5.5,0,0,1,.626.33l32.06,103.982,50.093-81.546a.5.5,0,0,1,.426-.238h0l60.209.046a.5.5,0,0,1,0,1h0l-59.93-.046-50.525,82.249A.5.5,0,0,1,342.368,409.627Z"/><path class="a" d="M145.813,333.592a.5.5,0,0,1-.308-.106L43.183,253.451a.5.5,0,0,1,.254-.891l64.525-7.029a.51.51,0,0,1,.551.443.5.5,0,0,1-.443.551l-63.3,6.9L146.121,332.7a.5.5,0,0,1-.308.894Z"/><path class="a" d="M506.129,298.782a.494.494,0,0,1-.352-.146l-41.16-41.026a.5.5,0,1,1,.7-.708l41.16,41.026a.5.5,0,0,1-.353.854Z"/><path class="a" d="M617.014,287.223a.5.5,0,0,1-.385-.82l62.382-74.969-9.254-83.921L626.2,219.046a.5.5,0,1,1-.9-.429L669.611,125.5a.5.5,0,0,1,.948.16l9.47,85.88a.5.5,0,0,1-.113.375L617.4,287.042A.5.5,0,0,1,617.014,287.223Z"/><path class="a" d="M527.668,162.1a.54.54,0,0,1-.147-.022l-85.673-26.369a.5.5,0,0,1,.295-.956L527.439,161l38.805-65.57a.5.5,0,0,1,.861.51L528.1,161.851A.5.5,0,0,1,527.668,162.1Z"/><path class="a" d="M414.58,265.967a.494.494,0,0,1-.256-.07l-56.545-33.666a.5.5,0,0,1,.511-.859l56.545,33.665a.5.5,0,0,1-.255.93Z"/><path class="a" d="M259.371,253.24a.487.487,0,0,1-.21-.047.5.5,0,0,1-.244-.664L283.6,199.294a.5.5,0,1,1,.907.421L259.824,252.95A.5.5,0,0,1,259.371,253.24Z"/><path class="a" d="M108.016,246.528a.443.443,0,0,1-.072,0,.5.5,0,0,1-.418-.4L88.974,154.618a.5.5,0,0,1,.981-.2l18.274,90.145,67.614-126.926a.5.5,0,1,1,.883.47L108.457,246.263A.5.5,0,0,1,108.016,246.528Z"/><path class="a" d="M43.491,253.557a.491.491,0,0,1-.211-.047.5.5,0,0,1-.242-.664l45.973-98.539a.5.5,0,1,1,.906.423L43.944,253.268A.5.5,0,0,1,43.491,253.557Z"/><path class="a" d="M145.813,333.592a.5.5,0,0,1-.459-.3l-37.8-87.064a.5.5,0,0,1,.918-.4l37.8,87.063a.5.5,0,0,1-.459.7Z"/><path class="a" d="M243.781,325.244a.485.485,0,0,1-.106-.012.5.5,0,0,1-.383-.594l15.59-72a.5.5,0,1,1,.977.212l-15.59,72A.5.5,0,0,1,243.781,325.244Z"/><path class="a" d="M145.812,333.592a.5.5,0,0,1-.041-1l97.968-8.349a.514.514,0,0,1,.54.456.5.5,0,0,1-.456.541l-97.968,8.348Z"/><path class="a" d="M193.122,272.032a.5.5,0,0,1-.136-.981l66.248-18.792a.5.5,0,1,1,.273.962l-66.248,18.792A.5.5,0,0,1,193.122,272.032Z"/><path class="a" d="M284.053,200.005a.5.5,0,0,1-.3-.1L175.983,118.271a.5.5,0,1,1,.6-.8l107.769,81.632a.5.5,0,0,1-.3.9Z"/><path class="a" d="M309.983,304.589a.5.5,0,0,1-.488-.607L334.082,191.46a.5.5,0,0,1,.977.214L310.471,304.2A.5.5,0,0,1,309.983,304.589Z"/><path class="a" d="M176.285,118.373a.5.5,0,0,1-.025-1l126.08-6.046a.474.474,0,0,1,.524.476.5.5,0,0,1-.475.523l-126.08,6.046Z"/><path class="a" d="M442.131,135.7a.5.5,0,0,1-.151-.977L566.523,95.211a.506.506,0,0,1,.291,0L670.2,125.23a.5.5,0,0,1-.28.96L566.681,96.21l-124.4,39.468A.507.507,0,0,1,442.131,135.7Z"/><path class="a" d="M453.248,327.186a.5.5,0,0,1-.45-.283c-.572-1.188-24.843-39.455-38.089-60.3l-21.2,60.2a.5.5,0,0,1-.6.316l-83.056-22.55a.5.5,0,0,1-.285-.76l48.052-72.287a.5.5,0,1,1,.832.553l-47.667,71.71,81.937,22.247L414.108,265.3a.5.5,0,0,1,.415-.33.489.489,0,0,1,.478.228c1.436,2.258,32.778,51.577,37.981,60.064l11.494-68.09a.509.509,0,0,1,.576-.41.5.5,0,0,1,.41.576l-11.72,69.43a.5.5,0,0,1-.423.412A.565.565,0,0,1,453.248,327.186Z"/><path class="a" d="M617.014,287.223a.493.493,0,0,1-.267-.078L515.634,223.153a.5.5,0,0,1,.535-.845L617.282,286.3a.5.5,0,0,1-.268.923Z"/><path class="a" d="M414.58,265.967a.5.5,0,0,1-.483-.37L381.208,143.252a.5.5,0,1,1,.965-.26l32.889,122.345a.5.5,0,0,1-.353.613A.487.487,0,0,1,414.58,265.967Z"/><path class="a" d="M670.248,288.41a.416.416,0,0,1-.061,0,.5.5,0,0,1-.436-.557l9.206-75.678-53.147,7.155a.5.5,0,0,1-.318-.064l-98.076-57.235a.5.5,0,0,1,.5-.863l97.927,57.148,53.618-7.218a.5.5,0,0,1,.563.556l-9.284,76.32A.5.5,0,0,1,670.248,288.41Z"/><path class="a" d="M515.9,223.231a.52.52,0,0,1-.1-.009.5.5,0,0,1-.4-.586L527.023,162.3l-63.261,18.249a.5.5,0,0,1-.277-.961l64.045-18.475a.5.5,0,0,1,.475.111.5.5,0,0,1,.155.464l-11.767,61.135A.5.5,0,0,1,515.9,223.231Z"/><path class="a" d="M464.969,257.756a.5.5,0,0,1-.5-.491l-1.346-77.185a.5.5,0,0,1,.492-.508.477.477,0,0,1,.508.491l1.346,77.184a.5.5,0,0,1-.491.509Z"/><path class="a" d="M515.9,223.231a.5.5,0,0,1-.317-.113l-52.278-42.659a.5.5,0,0,1,.633-.775l52.278,42.66a.5.5,0,0,1-.316.887Z"/><path class="a" d="M463.623,180.572a.5.5,0,0,1-.2-.045l-81.932-36.95a.5.5,0,1,1,.41-.911l81.933,36.95a.5.5,0,0,1-.206.956Z"/><path class="a" d="M617.015,287.223c-.021,0-.043,0-.064,0a.5.5,0,0,1-.433-.56l8.729-67.892a.5.5,0,0,1,.993.128l-8.73,67.891A.5.5,0,0,1,617.015,287.223Z"/><path class="a" d="M625.744,219.331a.5.5,0,0,1-.452-.283L566.223,95.9a.5.5,0,0,1,.9-.432L626.2,218.615a.5.5,0,0,1-.236.667A.482.482,0,0,1,625.744,219.331Z"/><path class="a" d="M515.9,223.231a.5.5,0,0,1-.018-1l109.842-3.9a.483.483,0,0,1,.518.482.5.5,0,0,1-.483.517l-109.842,3.9Z"/><path class="a" d="M393.039,327.14a.5.5,0,0,1-.469-.327l-35-94.838a.5.5,0,1,1,.937-.347l35,94.838a.5.5,0,0,1-.3.643A.492.492,0,0,1,393.039,327.14Z"/><path class="a" d="M358.035,232.3a.5.5,0,0,1-.432-.248l-23.464-40.235a.5.5,0,1,1,.863-.5l23.464,40.235a.5.5,0,0,1-.431.752Z"/><path class="a" d="M334.571,192.067a.5.5,0,0,1-.359-.848l47.12-48.446a.5.5,0,0,1,.717.7l-47.12,48.445A.5.5,0,0,1,334.571,192.067Z"/><path class="a" d="M334.571,192.067a.5.5,0,0,1-.464-.313L301.9,112.014a.5.5,0,1,1,.928-.374l32.206,79.74a.5.5,0,0,1-.277.651A.493.493,0,0,1,334.571,192.067Z"/><path class="a" d="M259.371,253.24a.5.5,0,0,1-.316-.888l75.2-61.172a.5.5,0,0,1,.631.775l-75.2,61.172A.5.5,0,0,1,259.371,253.24Z"/><path class="a" d="M309.983,304.589a.5.5,0,0,1-.357-.149l-50.612-51.349a.5.5,0,0,1,.713-.7l50.612,51.349a.5.5,0,0,1-.006.707A.493.493,0,0,1,309.983,304.589Z"/><path class="a" d="M259.371,253.24a.5.5,0,0,1-.392-.19l-42.89-54.193a.5.5,0,1,1,.783-.62l42.89,54.193a.5.5,0,0,1-.391.81Z"/><path class="a" d="M193.122,272.032a.507.507,0,0,1-.152-.024.5.5,0,0,1-.324-.628L216,198.394a.5.5,0,0,1,.953.305L193.6,271.684A.5.5,0,0,1,193.122,272.032Z"/><path class="a" d="M108.016,246.528a.5.5,0,0,1-.2-.958l108.465-47.481a.5.5,0,1,1,.4.916L108.216,246.486A.485.485,0,0,1,108.016,246.528Z"/><path class="a" d="M284.052,200.005a.5.5,0,0,1-.076-.994l50.518-7.938a.509.509,0,0,1,.571.417.5.5,0,0,1-.417.571L284.13,200A.493.493,0,0,1,284.052,200.005Z"/><path class="a" d="M302.365,112.327a.5.5,0,0,1-.216-.952l87.635-41.9a.5.5,0,1,1,.431.9l-87.635,41.9A.5.5,0,0,1,302.365,112.327Z"/><path class="a" d="M193.122,272.032a.516.516,0,0,1-.143-.021l-85.107-25.5a.5.5,0,0,1,.288-.958l85.106,25.5a.5.5,0,0,1-.144.979Z"/><path class="a" d="M243.781,325.244a.5.5,0,0,1-.363-.156L192.76,271.877a.5.5,0,0,1,.725-.69L244.143,324.4a.5.5,0,0,1-.362.845Z"/><path class="a" d="M145.813,333.592a.5.5,0,0,1-.4-.805l47.31-61.56a.5.5,0,0,1,.793.61L146.209,333.4A.5.5,0,0,1,145.813,333.592Z"/><path class="a" d="M342.368,409.627a.5.5,0,0,1-.3-.9l110.881-82.441a.5.5,0,1,1,.595.8L342.665,409.529A.494.494,0,0,1,342.368,409.627Z"/><path class="a" d="M405.79,456.794a.5.5,0,0,1-.3-.1l-63.423-47.167-98.614-84.406a.5.5,0,0,1,.651-.759l98.587,84.383,63.4,47.146a.5.5,0,0,1-.3.9Z"/><path class="a" d="M405.79,456.794a.5.5,0,0,1-.248-.934l116.109-66.429a.5.5,0,0,1,.5.868L406.039,456.728A.5.5,0,0,1,405.79,456.794Z"/><path class="a" d="M405.79,456.794a.486.486,0,0,1-.171-.03.5.5,0,0,1-.3-.642l47.458-129.608a.5.5,0,1,1,.939.344L406.26,456.466A.5.5,0,0,1,405.79,456.794Z"/><path class="a" d="M521.9,390.365a.5.5,0,0,1-.339-.133l-68.65-63.178a.5.5,0,1,1,.677-.736L522.238,389.5a.5.5,0,0,1-.339.868Z"/><path class="a" d="M591.137,419.514a.513.513,0,0,1-.194-.039l-69.238-29.149a.5.5,0,1,1,.388-.922l69.238,29.149a.5.5,0,0,1-.194.961Z"/><path class="a" d="M521.9,390.365a.5.5,0,0,1-.243-.937l60.486-33.578a.5.5,0,1,1,.485.874L522.142,390.3A.5.5,0,0,1,521.9,390.365Z"/><path class="a" d="M204.942,411.09a.5.5,0,0,1-.4-.2l-59.129-77.5a.5.5,0,1,1,.8-.607l58.977,77.3,137.176-1.461h0a.5.5,0,0,1,0,1L204.947,411.09Z"/><path class="a" d="M204.942,411.09a.5.5,0,0,1-.455-.706l38.839-85.847a.5.5,0,1,1,.91.413L205.4,410.8A.5.5,0,0,1,204.942,411.09Z"/><path class="a" d="M204.942,411.09a.489.489,0,0,1-.21-.046L95.8,360.593a.5.5,0,1,1,.42-.907l108.935,50.451a.5.5,0,0,1-.21.953Z"/><path class="a" d="M96.007,360.64a.5.5,0,0,1-.238-.94l49.806-27.048a.5.5,0,0,1,.476.879l-49.8,27.048A.5.5,0,0,1,96.007,360.64Z"/><path class="a" d="M316.225,496.617a.512.512,0,0,1-.144-.021.5.5,0,0,1-.334-.623l26.142-86.99a.5.5,0,1,1,.957.288L316.7,496.261A.5.5,0,0,1,316.225,496.617Z"/><path class="a" d="M316.225,496.617a.5.5,0,0,1-.2-.957l89.565-39.823a.5.5,0,0,1,.407.914l-89.566,39.823A.5.5,0,0,1,316.225,496.617Z"/><path class="a" d="M405.789,456.794a.5.5,0,0,1-.047-1l116.685-11.415a.5.5,0,1,1,.1,1L405.839,456.792Z"/><path class="a" d="M522.476,445.379a.5.5,0,0,1-.5-.494L521.4,389.87a.5.5,0,0,1,.5-.5h0a.5.5,0,0,1,.5.494l.569,54.3,67.993-25.614a.5.5,0,1,1,.352.936l-68.661,25.865A.485.485,0,0,1,522.476,445.379Z"/><path class="a" d="M640.18,442.3a.5.5,0,0,1-.211-.047l-49.043-22.785a.5.5,0,0,1,.422-.908l49.043,22.786a.5.5,0,0,1-.211.954Z"/><path class="a" d="M582.383,356.787a.5.5,0,0,1-.067-1L654,345.936a.5.5,0,1,1,.137.99l-71.685,9.857A.548.548,0,0,1,582.383,356.787Z"/><path class="a" d="M654.07,346.931a.507.507,0,0,1-.133-.018.5.5,0,0,1-.349-.615l16.178-58.521a.5.5,0,0,1,.963.267l-16.178,58.52A.5.5,0,0,1,654.07,346.931Z"/><path class="a" d="M640.181,442.3a.449.449,0,0,1-.073-.006.5.5,0,0,1-.423-.567l13.89-95.368a.5.5,0,0,1,.99.144l-13.89,95.369A.5.5,0,0,1,640.181,442.3Z"/><path class="a" d="M654.07,346.931a.5.5,0,0,1-.138-.98L755.7,316.69a.5.5,0,1,1,.275.961l-101.764,29.26A.459.459,0,0,1,654.07,346.931Z"/><path class="a" d="M755.833,317.671a.514.514,0,0,1-.162-.027l-85.586-29.26a.5.5,0,0,1,.325-.947L756,316.7a.5.5,0,0,1-.163.973Z"/><path class="a" d="M755.833,317.671a.5.5,0,0,1-.4-.207l-76.3-105.581a.5.5,0,0,1,.811-.586l76.3,105.581a.5.5,0,0,1-.406.793Z"/><path class="a" d="M640.18,442.3a.5.5,0,0,1-.195-.96l81.82-34.8a.5.5,0,0,1,.391.92l-81.821,34.8A.493.493,0,0,1,640.18,442.3Z"/><path class="a" d="M679.532,212.09a.492.492,0,0,1-.164-.028.5.5,0,0,1-.309-.636L737.442,43.52,670.45,126.025a.5.5,0,0,1-.776-.63l68.788-84.717a.5.5,0,0,1,.861.479L680,211.754A.5.5,0,0,1,679.532,212.09Z"/><path class="a" d="M358.035,232.3a.526.526,0,0,1-.129-.017.5.5,0,0,1-.355-.612l23.656-88.68a.5.5,0,0,1,.967.258l-23.656,88.68A.5.5,0,0,1,358.035,232.3Z"/><path class="a" d="M381.694,143.418a.377.377,0,0,1-.058,0,.5.5,0,0,1-.44-.553l8.313-72.73a.5.5,0,0,1,.994.113l-8.313,72.73A.5.5,0,0,1,381.694,143.418Z"/><path class="a" d="M442,135.728a.5.5,0,0,1-.392-.188l-52-65.306a.5.5,0,0,1,.783-.623l52,65.306a.5.5,0,0,1-.08.7A.494.494,0,0,1,442,135.728Z"/><path class="a" d="M442.131,135.7a.5.5,0,0,1-.416-.778l62.869-94.2a.5.5,0,1,1,.832.554l-62.869,94.2A.5.5,0,0,1,442.131,135.7Z"/><path class="a" d="M566.674,96.188a.5.5,0,0,1-.332-.126L504.668,41.374a.5.5,0,0,1,.664-.748l61.461,54.5L738.7,40.516a.5.5,0,1,1,.3.953l-172.175,54.7A.5.5,0,0,1,566.674,96.188Z"/><path class="a" d="M176.285,118.373a.494.494,0,0,1-.3-.1.5.5,0,0,1-.094-.7L261.2,5.884a.5.5,0,0,1,.467-.192.5.5,0,0,1,.4.315l40.763,105.639a.5.5,0,0,1-.933.361L261.456,7.2,176.682,118.177A.5.5,0,0,1,176.285,118.373Z"/><path class="a" d="M176.285,118.373a.491.491,0,0,1-.226-.054L51.432,55.261a.5.5,0,1,1,.451-.892L176.51,117.427a.5.5,0,0,1-.225.946Z"/><path class="a" d="M89.464,155.018a.5.5,0,0,1-.217-.05L40.159,131.173a.5.5,0,0,1-.277-.524L51.164,54.741a.5.5,0,0,1,.38-.414L261.488,5.7a.5.5,0,0,1,.336.04L390.056,69.393,504.878,40.515a.5.5,0,1,1,.244.97l-115,28.923a.5.5,0,0,1-.345-.038L261.539,6.715,52.1,55.225,40.925,130.433l48.757,23.636a.5.5,0,0,1-.218.949Z"/><path class="a" d="M43.491,253.557a.5.5,0,0,1-.428-.241L6.552,193.049a.5.5,0,0,1,.856-.518L43.918,252.8a.5.5,0,0,1-.169.687A.494.494,0,0,1,43.491,253.557Z"/><path class="a" d="M145.814,333.592a.4.4,0,0,1-.049,0L3.718,319.884a.5.5,0,0,1-.381-.754L43.062,252.8a.5.5,0,1,1,.857.514L4.6,318.965l141.26,13.629a.5.5,0,0,1-.047,1Z"/><path class="a" d="M316.225,496.617a.5.5,0,0,1-.305-.1L204.87,411.165l-50.249,21.554a.5.5,0,0,1-.586-.145l-58.1-71.73L19.469,423.233a.5.5,0,0,1-.5.079.5.5,0,0,1-.313-.392L3.272,319.46a.5.5,0,0,1,.7-.531l92.241,40.753a.5.5,0,0,1,.193.15l58.172,71.819,50.171-21.52a.5.5,0,0,1,.5.063L316.53,495.72a.5.5,0,0,1-.3.9ZM4.394,320.211,19.518,421.9,95.06,360.267Z"/><path class="a" d="M6.98,193.29a.5.5,0,0,1-.441-.737l33.4-62.067a.5.5,0,0,1,.881.474L7.42,193.027A.5.5,0,0,1,6.98,193.29Z"/><path class="a" d="M6.98,193.29a.5.5,0,0,1-.21-.954l82.484-38.271a.5.5,0,0,1,.42.907L7.19,193.244A.507.507,0,0,1,6.98,193.29Z"/><circle class="a" cx="40.474" cy="130.794" r="3.75"/><circle class="a" cx="6.98" cy="192.79" r="3.75"/><circle class="a" cx="43.642" cy="253.105" r="3.75"/><circle class="a" cx="4.313" cy="319.156" r="3.75"/><circle class="a" cx="108.418" cy="246.315" r="3.75"/><circle class="a" cx="145.812" cy="333.092" r="3.75"/><circle class="a" cx="192.859" cy="271.624" r="3.75"/><circle class="a" cx="243.781" cy="324.744" r="3.75"/><circle class="a" cx="259.344" cy="252.708" r="3.75"/><circle class="a" cx="310.038" cy="304.365" r="3.75"/><circle class="a" cx="358.035" cy="231.801" r="3.75"/><circle class="a" cx="334.571" cy="191.567" r="3.75"/><circle class="a" cx="261.653" cy="5.995" r="3.75"/><circle class="a" cx="505" cy="41" r="3.75"/><circle class="a" cx="390" cy="70" r="3.75"/><circle class="a" cx="527.668" cy="161.597" r="3.75"/><circle class="a" cx="566.674" cy="95.688" r="3.75"/><circle class="a" cx="670" cy="126" r="3.75"/><circle class="a" cx="738.85" cy="41" r="3.75"/><circle class="a" cx="679.404" cy="212.092" r="3.75"/><circle class="a" cx="755.833" cy="317.171" r="3.75"/><circle class="a" cx="670.248" cy="287.911" r="3.75"/><circle class="a" cx="617.118" cy="286.888" r="3.75"/><circle class="a" cx="626" cy="219" r="3.75"/><circle class="a" cx="640.18" cy="441.713" r="3.75"/><circle class="a" cx="521.899" cy="389.865" r="3.75"/><circle class="a" cx="453.045" cy="326.55" r="3.75"/><circle class="a" cx="392.912" cy="326.386" r="3.75"/><circle class="a" cx="342.426" cy="409.306" r="3.75"/><circle class="a" cx="316" cy="496" r="3.75"/><circle class="a" cx="205.117" cy="410.819" r="3.75"/><circle class="a" cx="95.895" cy="359.837" r="3.75"/><circle class="a" cx="154.163" cy="432.531" r="3.75"/><circle class="a" cx="18.893" cy="422.685" r="3.75"/><circle class="a" cx="405.664" cy="456.041" r="3.75"/><circle class="a" cx="522.476" cy="444.879" r="3.75"/><path class="b" d="M506.133,301.282a3,3,0,0,1-2.979-3.385l9.772-75.551a3,3,0,0,1,5.951.77l-9.772,75.55A3,3,0,0,1,506.133,301.282Z"/><path class="b" d="M463.625,183.072a3,3,0,0,1-2.7-1.7l-21.628-44.843a3,3,0,1,1,5.4-2.607l21.628,44.843a3,3,0,0,1-2.7,4.3Z"/><path class="b" d="M414.579,268.467a3,3,0,0,1-2.6-4.494l49.044-85.4a3,3,0,1,1,5.2,2.989l-45.9,79.926,43.51-7.091,50.385-34.154a3,3,0,0,1,3.367,4.967l-50.932,34.525a3.016,3.016,0,0,1-1.2.478l-50.39,8.211A3.034,3.034,0,0,1,414.579,268.467Z"/><path class="b" d="M582.382,359.287a2.984,2.984,0,0,1-1.814-.612l-76.255-58.006a3,3,0,1,1,3.633-4.775L584.2,353.9a3,3,0,0,1-1.819,5.387Z"/><path class="b" d="M591.133,422.015a3,3,0,0,1-2.968-2.586L579.413,356.7a3,3,0,1,1,5.943-.829l8.753,62.726a3.009,3.009,0,0,1-2.976,3.416Z"/><path class="b" d="M591.136,422.014a3,3,0,0,1-2.265-4.965L651.8,344.466a3,3,0,1,1,4.533,3.93L593.4,420.979A3,3,0,0,1,591.136,422.014Z"/><path class="b" d="M722,410a2.989,2.989,0,0,1-2-.761l-67.93-60.569a3,3,0,1,1,3.992-4.478L724,404.761A3,3,0,0,1,722,410Z"/><path class="a" d="M316.5,497a.491.491,0,0,1-.183-.035l-162-64a.5.5,0,0,1,.367-.93l162,64a.5.5,0,0,1-.184.965Z"/><path class="a" d="M154.5,433l-.038,0-135-10a.5.5,0,1,1,.075-1l135,10a.5.5,0,0,1-.037,1Z"/><path class="c" d="M89.465,157.519a3,3,0,0,1-1.168-5.764l86.821-36.646a3,3,0,0,1,2.334,5.528L90.631,157.282A2.987,2.987,0,0,1,89.465,157.519Z"/><path class="c" d="M381.691,146.122a3,3,0,0,1-1.1-.21l-79.326-31.295a3,3,0,1,1,2.2-5.581l78.606,31.011,59.535-7.793a3,3,0,0,1,.779,5.949L382.08,146.1A2.977,2.977,0,0,1,381.691,146.122Z"/><path class="c" d="M284.054,202.505h-.044l-67.572-.958a3,3,0,0,1,.042-6h.044l67.572.958a3,3,0,0,1-.042,6Z"/><path class="c" d="M284.056,202.505a2.957,2.957,0,0,1-.616-.064,3,3,0,0,1-2.323-3.55l18.311-87.678a3,3,0,1,1,5.873,1.227L286.99,200.118A3,3,0,0,1,284.056,202.505Z"/><path class="c" d="M216.483,201.547a3,3,0,0,1-2.688-1.662l-40.2-80.674a3,3,0,0,1,5.371-2.676l40.2,80.674a3,3,0,0,1-2.683,4.338Z"/><path class="c" d="M89.465,157.519a3,3,0,0,1-2.807-1.941L48.969,55.728a3,3,0,0,1,5.613-2.119l37.689,99.85a3,3,0,0,1-2.806,4.06Z"/><circle class="d" cx="51.658" cy="54.815" r="3.75"/><path class="c" d="M51.658,62.565a7.75,7.75,0,1,1,7.75-7.75A7.759,7.759,0,0,1,51.658,62.565Zm0-8a.25.25,0,0,0-.25.25c0,.275.5.275.5,0A.251.251,0,0,0,51.658,54.565Z"/><circle class="a" cx="51.658" cy="54.815" r="3.75"/><path class="d" d="M51.658,60.565a5.75,5.75,0,1,1,5.75-5.75A5.757,5.757,0,0,1,51.658,60.565Zm0-7.5a1.75,1.75,0,1,0,1.75,1.75A1.752,1.752,0,0,0,51.658,53.065Z"/><circle class="c" cx="51.658" cy="54.815" r="3.75"/><circle class="d" cx="463.691" cy="180.142" r="3.723"/><path class="b" d="M463.691,187.865a7.723,7.723,0,1,1,7.723-7.723A7.732,7.732,0,0,1,463.691,187.865Zm0-8a.277.277,0,0,0-.277.277c0,.306.554.306.554,0A.277.277,0,0,0,463.691,179.865Z"/><circle class="b" cx="463.691" cy="180.142" r="3.723"/><path class="d" d="M463.691,185.865a5.723,5.723,0,1,1,5.723-5.723A5.73,5.73,0,0,1,463.691,185.865Zm0-7.446a1.723,1.723,0,1,0,1.723,1.723A1.725,1.725,0,0,0,463.691,178.419Z"/><circle class="b" cx="463.691" cy="180.142" r="3.723"/><circle class="d" cx="414.647" cy="265.537" r="3.723"/><path class="b" d="M414.647,273.26a7.723,7.723,0,1,1,7.724-7.723A7.732,7.732,0,0,1,414.647,273.26Zm0-8a.277.277,0,1,0,.277.277A.277.277,0,0,0,414.647,265.26Z"/><circle class="b" cx="414.647" cy="265.537" r="3.723"/><path class="d" d="M414.647,271.26a5.723,5.723,0,1,1,5.724-5.723A5.73,5.73,0,0,1,414.647,271.26Zm0-7.446a1.723,1.723,0,1,0,1.724,1.723A1.725,1.725,0,0,0,414.647,263.814Z"/><circle class="b" cx="414.647" cy="265.537" r="3.723"/><circle class="d" cx="465.037" cy="257.326" r="3.723"/><path class="b" d="M465.038,265.049a7.723,7.723,0,1,1,7.722-7.723A7.732,7.732,0,0,1,465.038,265.049Zm0-8a.277.277,0,1,0,.276.277A.277.277,0,0,0,465.038,257.049Z"/><circle class="b" cx="465.037" cy="257.326" r="3.723"/><path class="d" d="M465.038,263.049a5.723,5.723,0,1,1,5.722-5.723A5.729,5.729,0,0,1,465.038,263.049Zm0-7.446a1.723,1.723,0,1,0,1.722,1.723A1.725,1.725,0,0,0,465.038,255.6Z"/><circle class="b" cx="465.037" cy="257.326" r="3.723"/><circle class="d" cx="515.97" cy="222.801" r="3.723"/><path class="b" d="M515.969,230.524a7.723,7.723,0,1,1,7.724-7.723A7.731,7.731,0,0,1,515.969,230.524Zm0-8a.277.277,0,0,0-.276.277c0,.307.554.305.554,0A.278.278,0,0,0,515.969,222.524Z"/><circle class="b" cx="515.97" cy="222.801" r="3.723"/><path class="d" d="M515.969,228.524a5.723,5.723,0,1,1,5.724-5.723A5.729,5.729,0,0,1,515.969,228.524Zm0-7.446a1.723,1.723,0,1,0,1.724,1.723A1.724,1.724,0,0,0,515.969,221.078Z"/><circle class="b" cx="515.97" cy="222.801" r="3.723"/><circle class="d" cx="506.198" cy="298.352" r="3.723"/><path class="b" d="M506.2,306.075a7.723,7.723,0,1,1,7.722-7.723A7.732,7.732,0,0,1,506.2,306.075Zm0-8a.277.277,0,1,0,.276.277A.277.277,0,0,0,506.2,298.075Z"/><circle class="b" cx="506.198" cy="298.352" r="3.723"/><path class="d" d="M506.2,304.075a5.723,5.723,0,1,1,5.722-5.723A5.729,5.729,0,0,1,506.2,304.075Zm0-7.446a1.723,1.723,0,1,0,1.722,1.723A1.725,1.725,0,0,0,506.2,296.629Z"/><circle class="b" cx="506.198" cy="298.352" r="3.723"/><circle class="d" cx="581.734" cy="357.97" r="3.723"/><path class="b" d="M581.735,365.693a7.724,7.724,0,1,1,7.722-7.723A7.733,7.733,0,0,1,581.735,365.693Zm0-8a.277.277,0,1,0,.276.277A.277.277,0,0,0,581.735,357.693Z"/><circle class="b" cx="581.734" cy="357.97" r="3.723"/><path class="d" d="M581.735,363.693a5.724,5.724,0,1,1,5.722-5.723A5.731,5.731,0,0,1,581.735,363.693Zm0-7.447a1.724,1.724,0,1,0,1.722,1.724A1.726,1.726,0,0,0,581.735,356.246Z"/><circle class="b" cx="581.734" cy="357.97" r="3.723"/><circle class="d" cx="591.871" cy="418.751" r="3.723"/><path class="b" d="M591.872,426.474a7.723,7.723,0,1,1,7.722-7.723A7.732,7.732,0,0,1,591.872,426.474Zm0-8a.277.277,0,1,0,.276.277A.277.277,0,0,0,591.872,418.474Z"/><circle class="b" cx="591.871" cy="418.751" r="3.723"/><path class="d" d="M591.872,424.474a5.723,5.723,0,1,1,5.722-5.723A5.729,5.729,0,0,1,591.872,424.474Zm0-7.446a1.723,1.723,0,1,0,1.722,1.723A1.725,1.725,0,0,0,591.872,417.028Z"/><circle class="b" cx="591.871" cy="418.751" r="3.723"/><circle class="d" cx="654.805" cy="346.168" r="3.723"/><path class="b" d="M654.8,353.891a7.723,7.723,0,1,1,7.724-7.723A7.732,7.732,0,0,1,654.8,353.891Zm0-8a.277.277,0,1,0,.277.277A.277.277,0,0,0,654.8,345.891Z"/><circle class="b" cx="654.805" cy="346.168" r="3.723"/><path class="d" d="M654.8,351.891a5.723,5.723,0,1,1,5.724-5.723A5.73,5.73,0,0,1,654.8,351.891Zm0-7.446a1.723,1.723,0,1,0,1.724,1.723A1.725,1.725,0,0,0,654.8,344.445Z"/><circle class="b" cx="654.805" cy="346.168" r="3.723"/><circle class="d" cx="722.734" cy="406.737" r="3.723"/><path class="b" d="M722.735,414.46a7.723,7.723,0,1,1,7.722-7.723A7.733,7.733,0,0,1,722.735,414.46Zm0-8a.277.277,0,1,0,.276.277A.277.277,0,0,0,722.735,406.46Z"/><circle class="b" cx="722.734" cy="406.737" r="3.723"/><path class="d" d="M722.735,412.46a5.723,5.723,0,1,1,5.722-5.723A5.731,5.731,0,0,1,722.735,412.46Zm0-7.446a1.723,1.723,0,1,0,1.722,1.723A1.726,1.726,0,0,0,722.735,405.014Z"/><circle class="b" cx="722.734" cy="406.737" r="3.723"/><circle class="d" cx="442.568" cy="135.22" r="3.723"/><path class="c" d="M442.568,142.943a7.724,7.724,0,1,1,7.722-7.723A7.732,7.732,0,0,1,442.568,142.943Zm0-8a.277.277,0,1,0,.277.277A.277.277,0,0,0,442.568,134.943Z"/><circle class="a" cx="442.568" cy="135.22" r="3.723"/><path class="d" d="M442.568,140.943a5.724,5.724,0,1,1,5.722-5.723A5.73,5.73,0,0,1,442.568,140.943Zm0-7.447a1.724,1.724,0,1,0,1.722,1.724A1.725,1.725,0,0,0,442.568,133.5Z"/><circle class="c" cx="442.568" cy="135.22" r="3.723"/><circle class="d" cx="381.764" cy="143.447" r="3.723"/><path class="c" d="M381.764,151.17a7.724,7.724,0,1,1,7.723-7.723A7.733,7.733,0,0,1,381.764,151.17Zm0-8a.277.277,0,1,0,.276.277A.277.277,0,0,0,381.764,143.17Z"/><circle class="a" cx="381.764" cy="143.447" r="3.723"/><path class="d" d="M381.764,149.17a5.724,5.724,0,1,1,5.723-5.723A5.731,5.731,0,0,1,381.764,149.17Zm0-7.447a1.724,1.724,0,1,0,1.723,1.724A1.726,1.726,0,0,0,381.764,141.723Z"/><circle class="c" cx="381.764" cy="143.447" r="3.723"/><rect class="c" x="420.605" y="80.571" width="44" height="34" rx="4"/><path class="c" d="M450.092,114.232l-6.257,7.711a1.518,1.518,0,0,1-2.46,0l-6.257-7.711c-1.1-1.351-.32-3.661,1.23-3.661h12.514C450.412,110.571,451.188,112.881,450.092,114.232Z"/><path class="d" d="M442.605,86.905l-9,4v6c0,5.55,3.84,10.74,9,12,5.16-1.26,9-6.45,9-12v-6Zm-2,16-4-4,1.41-1.41,2.59,2.58,6.59-6.59,1.41,1.42Z"/><circle class="d" cx="302.385" cy="111.728" r="3.723"/><path class="c" d="M302.385,119.451a7.723,7.723,0,1,1,7.723-7.723A7.731,7.731,0,0,1,302.385,119.451Zm0-8a.277.277,0,0,0-.277.277c0,.306.555.306.555,0A.277.277,0,0,0,302.385,111.451Z"/><circle class="a" cx="302.385" cy="111.728" r="3.723"/><path class="d" d="M302.385,117.451a5.723,5.723,0,1,1,5.723-5.723A5.729,5.729,0,0,1,302.385,117.451Zm0-7.446a1.723,1.723,0,1,0,1.723,1.723A1.724,1.724,0,0,0,302.385,110.005Z"/><circle class="c" cx="302.385" cy="111.728" r="3.723"/><circle class="d" cx="283.959" cy="199.494" r="3.723"/><path class="c" d="M283.958,207.218a7.724,7.724,0,1,1,7.724-7.724A7.732,7.732,0,0,1,283.958,207.218Zm0-8a.277.277,0,1,0,.278.276A.277.277,0,0,0,283.958,199.218Z"/><circle class="a" cx="283.959" cy="199.494" r="3.723"/><path class="d" d="M283.958,205.218a5.724,5.724,0,1,1,5.724-5.724A5.73,5.73,0,0,1,283.958,205.218Zm0-7.447a1.724,1.724,0,1,0,1.724,1.723A1.724,1.724,0,0,0,283.958,197.771Z"/><circle class="c" cx="283.959" cy="199.494" r="3.723"/><circle class="d" cx="216.387" cy="198.536" r="3.723"/><path class="c" d="M216.387,206.26a7.724,7.724,0,1,1,7.724-7.724A7.733,7.733,0,0,1,216.387,206.26Zm0-8a.277.277,0,1,0,.277.276A.277.277,0,0,0,216.387,198.26Z"/><circle class="a" cx="216.387" cy="198.536" r="3.723"/><path class="d" d="M216.387,204.26a5.724,5.724,0,1,1,5.724-5.724A5.731,5.731,0,0,1,216.387,204.26Zm0-7.447a1.724,1.724,0,1,0,1.724,1.723A1.725,1.725,0,0,0,216.387,196.813Z"/><circle class="c" cx="216.387" cy="198.536" r="3.723"/><circle class="d" cx="176.191" cy="117.863" r="3.723"/><path class="c" d="M176.191,125.586a7.723,7.723,0,1,1,7.723-7.723A7.733,7.733,0,0,1,176.191,125.586Zm0-8a.277.277,0,1,0,.276.277A.277.277,0,0,0,176.191,117.586Z"/><circle class="a" cx="176.191" cy="117.863" r="3.723"/><path class="d" d="M176.191,123.586a5.723,5.723,0,1,1,5.723-5.723A5.731,5.731,0,0,1,176.191,123.586Zm0-7.446a1.723,1.723,0,1,0,1.723,1.723A1.725,1.725,0,0,0,176.191,116.14Z"/><circle class="c" cx="176.191" cy="117.863" r="3.723"/><circle class="d" cx="89.37" cy="154.508" r="3.723"/><path class="c" d="M89.371,162.231a7.723,7.723,0,1,1,7.722-7.723A7.732,7.732,0,0,1,89.371,162.231Zm0-8a.277.277,0,1,0,.276.277A.277.277,0,0,0,89.371,154.231Z"/><circle class="a" cx="89.37" cy="154.508" r="3.723"/><path class="d" d="M89.371,160.231a5.723,5.723,0,1,1,5.722-5.723A5.729,5.729,0,0,1,89.371,160.231Zm0-7.446a1.723,1.723,0,1,0,1.722,1.723A1.725,1.725,0,0,0,89.371,152.785Z"/><circle class="c" cx="89.37" cy="154.508" r="3.723"/><rect class="c" x="29.658" width="44" height="34" rx="4"/><path class="c" d="M59.145,33.661l-6.257,7.711a1.52,1.52,0,0,1-2.461,0l-6.256-7.711C43.075,32.31,43.851,30,45.4,30H57.914C59.464,30,60.241,32.31,59.145,33.661Z"/><path class="d" d="M49.658,25V19h4v6h5V17h3l-10-9-10,9h3v8Z"/><rect class="b" x="700.022" y="427.88" width="44" height="34" rx="4"/><path class="b" d="M714.535,428.074l6.256-7.712a1.52,1.52,0,0,1,2.461,0l6.256,7.712c1.1,1.351.32,3.66-1.23,3.66H715.765C714.215,431.734,713.439,429.425,714.535,428.074Z"/><path class="d" d="M724.922,438.88l-.4-2h-9v17h2v-7h5.6l.4,2h7v-10Z"/></svg>